<svg xmlns="http://www.w3.org/2000/svg" width="147.261" height="50"><g data-name="Group 710"><path data-name="Path 1" d="M37.713 35.044a1.2 1.2 0 00.338-.421 1.145 1.145 0 00.144-.527.907.907 0 00-.166-.58.548.548 0 00-.453-.208.6.6 0 00-.469.178.74.74 0 00-.163.516q0 .402.769 1.042z" fill="none"/><path data-name="Path 2" d="M37.42 37.306a.607.607 0 00.475-.187.778.778 0 00.169-.538.972.972 0 00-.131-.5 3.082 3.082 0 00-.632-.642 1.15 1.15 0 00-.569 1.025.944.944 0 00.188.613.611.611 0 00.5.229z" fill="none"/><path data-name="Path 3" d="M94.335 25.526a1.589 1.589 0 00.344-1.137c0-.914-.393-1.363-1.187-1.365a2.129 2.129 0 00-.6.063.413.413 0 00-.266.195 1.173 1.173 0 00-.067.476v2.083a5.2 5.2 0 00.675.036 1.472 1.472 0 001.101-.351z" fill="none"/><path data-name="Path 4" d="M98.233 35.58h.978l-.471-1.366z" fill="none"/><path data-name="Path 5" d="M64.996 17.774a2.183 2.183 0 001.811-.876 3.618 3.618 0 00.683-2.289 3.73 3.73 0 00-.688-2.325 2.26 2.26 0 00-3.613 0 3.749 3.749 0 00-.683 2.325 3.636 3.636 0 00.678 2.289 2.175 2.175 0 001.812.876z" fill="none"/><path data-name="Path 6" d="M107.235 17.774a2.183 2.183 0 001.811-.876 3.617 3.617 0 00.683-2.289 3.731 3.731 0 00-.687-2.325 2.26 2.26 0 00-3.613 0 3.748 3.748 0 00-.683 2.325 3.635 3.635 0 00.678 2.289 2.175 2.175 0 001.811.876z" fill="none"/><path data-name="Path 7" d="M20.069 5.476l-2.839-2.9q0 1.7.008 3.393l.048 21.073.029 12.978q1.009-.069 2.018-.128V7.201c0-.644 1.221-1.671 1.221-.678v7.691h4.392v-2.161l-3.333-.029c-.369 0-.039-.791.3-.787l3.038.027.014-6.3h-4.123c-.09.367-.505.785-.773.512z" fill="none"/><path data-name="Path 8" d="M133.517 35.58h.978l-.47-1.366z" fill="none"/><path data-name="Path 9" d="M20.555 39.823q2.166-.116 4.334-.193 0-2.014.009-4.027l.013-5.684-4.356.024z" fill="none"/><path data-name="Path 10" d="M127 17.774a2.183 2.183 0 001.811-.876 3.618 3.618 0 00.683-2.289 3.731 3.731 0 00-.687-2.325 2.26 2.26 0 00-3.613 0 3.748 3.748 0 00-.683 2.325 3.636 3.636 0 00.678 2.289 2.176 2.176 0 001.811.876z" fill="none"/><path data-name="Path 11" d="M20.555 25.325a.873.873 0 01.316.1 1.072 1.072 0 01.408.4 1.126 1.126 0 01.2.609c0 .113-.017.2-.016.275a.427.427 0 00.038.183.988.988 0 00.19.265 1.168 1.168 0 01.394.717.35.35 0 01-.109.262.437.437 0 01-.24.108 2 2 0 00-.662.183.353.353 0 00-.108.072.636.636 0 01-.11.095.425.425 0 01-.133.052.985.985 0 01-.164.02v.491l4.358-.024v-.381a1.163 1.163 0 01-.3-.03.387.387 0 01-.168-.092l-.058-.057a.364.364 0 00-.1-.064 2 2 0 00-.661-.183.436.436 0 01-.24-.107.351.351 0 01-.109-.262 1.17 1.17 0 01.394-.717.988.988 0 00.19-.265.423.423 0 00.038-.183c0-.074-.015-.162-.016-.275a1.123 1.123 0 01.2-.609 1.071 1.071 0 01.408-.4.888.888 0 01.42-.1h.004v-1.391h-4.37z" fill="none"/><path data-name="Path 12" d="M20.555 23.226h4.371l.019-8.224h-4.39zm.26-1.732a1.947 1.947 0 01.254-.269.92.92 0 00.193-.231.366.366 0 00.042-.173.473.473 0 00-.008-.086v-.017-.088a1.4 1.4 0 01.429-1.138.888.888 0 01.452-.209h.038l.089-.022a1.234 1.234 0 01.28-.035.893.893 0 01.42.1 1.075 1.075 0 01.408.4 1.122 1.122 0 01.2.609c0 .114-.016.2-.016.276a.43.43 0 00.038.183 1 1 0 00.19.265 1.17 1.17 0 01.394.717.351.351 0 01-.109.262.435.435 0 01-.24.107 1.991 1.991 0 00-.662.183.356.356 0 00-.108.072.633.633 0 01-.11.1.428.428 0 01-.133.052 1.278 1.278 0 01-.277.023 1.149 1.149 0 01-.295-.028.6.6 0 01-.157-.071.563.563 0 00-.081-.04 1.069 1.069 0 00-.22-.056 2.126 2.126 0 01-.512-.16 1.382 1.382 0 01-.423-.279.4.4 0 01-.125-.27.292.292 0 01.053-.177z" fill="none"/><path data-name="Path 13" d="M21.306 22.214a2.128 2.128 0 00.512.16 1.068 1.068 0 01.22.056.563.563 0 01.081.04.6.6 0 00.157.071 1.15 1.15 0 00.295.028 1.279 1.279 0 00.277-.023.428.428 0 00.133-.052.633.633 0 00.11-.1.355.355 0 01.108-.072 1.991 1.991 0 01.662-.184.435.435 0 00.24-.107.351.351 0 00.109-.262 1.17 1.17 0 00-.394-.717 1 1 0 01-.19-.265.43.43 0 01-.038-.183c0-.074.016-.162.016-.276a1.123 1.123 0 00-.2-.609 1.074 1.074 0 00-.408-.4.892.892 0 00-.42-.1 1.236 1.236 0 00-.28.035l-.089.022h-.038a.888.888 0 00-.452.209 1.4 1.4 0 00-.429 1.138V20.729a.474.474 0 01.008.086.366.366 0 01-.042.173.92.92 0 01-.193.231 1.947 1.947 0 00-.254.269.292.292 0 00-.057.172.4.4 0 00.125.27 1.382 1.382 0 00.431.284z" fill="#fff"/><path data-name="Path 14" d="M146.782 47.693c-18.993-.346-37.892-2.429-56.768-4.4-18.976-1.989-38.013-3.89-57.116-3.816q-1.113 0-2.225.019V11.71c0-.94-1.156.032-1.156.642v27.16q-1.694.028-3.388.08l.03-13.141.048-21.121q0-1.218.006-2.436l3.937 4.887c.485.6 1.487-.78 1.068-1.3L26.132.167c-.485-.6-1.154.6-1.155.995q0 1.506-.007 3.013h-4.315a.324.324 0 00-.206.093L17.17.919c-.352-.36-.771.363-.77.663l.03 13.29.048 21.073q0 2.066.009 4.133a202.11 202.11 0 00-15.382 1.679c-.932.139-1.718 2.461-.428 2.268 18.83-2.808 37.941-2.632 56.891-1.325 18.913 1.3 37.725 3.709 56.6 5.418 10.559.956 21.142 1.69 31.744 1.883.675.012 1.345-1.072 1.346-1.758.002-.316-.137-.544-.476-.55zM24.898 35.602q0 2.014-.009 4.027-2.168.076-4.334.193v-9.88l4.356-.024q-.004 2.843-.013 5.684zm.023-10.2h-.014a.888.888 0 00-.42.1 1.071 1.071 0 00-.408.4 1.123 1.123 0 00-.2.609c0 .113.017.2.016.276a.423.423 0 01-.038.183.988.988 0 01-.19.265 1.17 1.17 0 00-.394.717.352.352 0 00.109.262.436.436 0 00.24.107 2 2 0 01.661.183.363.363 0 01.1.064l.058.057a.387.387 0 00.168.092 1.163 1.163 0 00.3.03v.381l-4.358.024v-.491a.984.984 0 00.164-.02.425.425 0 00.133-.052.636.636 0 00.11-.095.353.353 0 01.108-.072 2 2 0 01.662-.183.437.437 0 00.24-.108.35.35 0 00.109-.262 1.168 1.168 0 00-.394-.717.988.988 0 01-.19-.265.427.427 0 01-.038-.183c0-.074.016-.162.016-.275a1.126 1.126 0 00-.2-.609 1.073 1.073 0 00-.408-.4.874.874 0 00-.316-.1v-1.307h4.37zm.005-2.178h-4.371v-8.222h4.39zm.027-11.962l-3.038-.027c-.335 0-.666.784-.3.787l3.333.029v2.161h-4.392V6.523c0-.993-1.221.034-1.221.678v32.691q-1.01.059-2.018.128l-.029-12.978-.048-21.073q0-1.7-.008-3.393l2.839 2.9c.268.274.683-.145.772-.513h4.126l-.016 6.3z" fill="#fff"/><path data-name="Path 15" d="M76.966 15.81c.038 0 .067-.019.067-.038.039-.3.159-.189.41-.189h2.274c.246 0 .36-.079.4.189a.065.065 0 00.068.038c.039 0 .068-.019.068-.038 0-.323-.029-.136-.029-.435s.029-.111.029-.429c0-.024-.029-.038-.068-.038s-.063.014-.068.038c-.051.226-.158.184-.4.184h-2.271c-.251 0-.361.085-.41-.184 0-.024-.029-.038-.067-.038s-.068.014-.068.038c0 .318.029.131.029.429s-.029.112-.029.435c-.003.023.031.038.065.038z" fill="#fff"/><path data-name="Path 16" d="M33.865 22.968a2.613 2.613 0 01.6.126.523.523 0 01.279.209.969.969 0 01.076.453v3.1a2.46 2.46 0 00.707 1.857 2.718 2.718 0 001.969.682 2.129 2.129 0 001.716-.716 2.953 2.953 0 00.608-1.974v-2.949a.665.665 0 01.2-.571 1.924 1.924 0 01.789-.217.072.072 0 00.064-.037.267.267 0 000-.2.073.073 0 00-.066-.038q-.235 0-.583.028t-.562.028q-.224 0-.584-.028t-.567-.028a.072.072 0 00-.066.038.269.269 0 000 .2.072.072 0 00.064.037 1.821 1.821 0 01.782.212.668.668 0 01.2.576v2.852c0 1.564-.613 2.338-1.844 2.339a1.714 1.714 0 01-1.415-.536 2.677 2.677 0 01-.434-1.69v-2.965a.934.934 0 01.081-.457.537.537 0 01.284-.207 2.728 2.728 0 01.6-.124.072.072 0 00.065-.037.267.267 0 000-.2.073.073 0 00-.066-.038q-.315 0-.752.028-.418.028-.7.028t-.7-.028q-.432-.028-.747-.028a.073.073 0 00-.066.038.269.269 0 000 .2.072.072 0 00.068.037z" fill="#fff"/><path data-name="Path 17" d="M46.952 28.178a.674.674 0 01-.225.567 1.932 1.932 0 01-.793.217c-.063.006-.1.057-.094.137a.215.215 0 00.02.1.071.071 0 00.066.038q.212 0 .6-.028t.633-.028q.215 0 .614.028.427.028.672.028a.071.071 0 00.066-.038.213.213 0 00.02-.1c0-.08-.027-.13-.084-.137a2.033 2.033 0 01-.808-.217.547.547 0 01-.22-.5.537.537 0 010-.069l.065-4.317 4.823 5.451a.285.285 0 00.157.077.141.141 0 00.091-.026.1.1 0 00.037-.076l.1-5.535a.667.667 0 01.223-.57 1.9 1.9 0 01.8-.214c.057-.007.086-.058.085-.138a.213.213 0 00-.02-.1.072.072 0 00-.066-.038q-.212 0-.6.028t-.633.028q-.215 0-.61-.028-.423-.028-.677-.028a.072.072 0 00-.066.038.211.211 0 00-.02.1c0 .08.027.131.084.138a1.934 1.934 0 01.838.231.633.633 0 01.223.554v3.976l-4.506-5.04a3.517 3.517 0 00-.405.028 3.272 3.272 0 01-.393.028 3.96 3.96 0 01-.393-.028q-.3-.028-.461-.028a.072.072 0 00-.066.038.206.206 0 00-.02.1.233.233 0 00.018.1.063.063 0 00.058.038 2.028 2.028 0 01.817.224.586.586 0 01.216.522v.042z" fill="#fff"/><path data-name="Path 18" d="M59.933 22.716q-.437-.028-.757-.028a.072.072 0 00-.066.038.267.267 0 000 .2.072.072 0 00.065.037 2.709 2.709 0 01.6.124.537.537 0 01.283.207.934.934 0 01.081.457v4.422a.67.67 0 01-.2.574 1.8 1.8 0 01-.768.209c-.057.007-.085.058-.085.137a.216.216 0 00.02.1.072.072 0 00.066.038q.32 0 .757-.028.413-.028.7-.028t.7.028q.432.028.747.028a.072.072 0 00.066-.038.213.213 0 00.02-.1c0-.08-.029-.131-.089-.137a2.672 2.672 0 01-.6-.124.524.524 0 01-.279-.207.944.944 0 01-.078-.453v-4.416a.955.955 0 01.078-.46.53.53 0 01.281-.2 2.7 2.7 0 01.6-.124.072.072 0 00.064-.037.268.268 0 000-.2.072.072 0 00-.066-.038q-.315 0-.747.028-.413.028-.7.028t-.693-.037z" fill="#fff"/><path data-name="Path 19" d="M69.767 23.075a1.615 1.615 0 01.592-.107.05.05 0 00.045-.039.314.314 0 00.012-.1.2.2 0 00-.02-.1.072.072 0 00-.066-.038q-.315 0-.757.028-.424.028-.71.028t-.649-.028q-.382-.028-.7-.028a.063.063 0 00-.059.038.227.227 0 00-.018.1.152.152 0 00.033.1.093.093 0 00.07.043 2.885 2.885 0 01.622.124.678.678 0 01.3.218 2.681 2.681 0 01.287.6l2.1 5.391a.127.127 0 00.132.086.14.14 0 00.141-.081l2.357-5.4a2 2 0 01.464-.746 1.188 1.188 0 01.621-.2.1.1 0 00.085-.041.26.26 0 00.013-.2.056.056 0 00-.052-.033q-.221 0-.56.028t-.539.028q-.258 0-.652-.028-.357-.028-.578-.028a.082.082 0 00-.073.037.189.189 0 00-.023.1.262.262 0 00.015.1.056.056 0 00.051.038 1.308 1.308 0 01.608.151.394.394 0 01.2.353 1.554 1.554 0 01-.084.406l-1.672 4.119-1.612-4.246a1.372 1.372 0 01-.112-.406.282.282 0 01.188-.267z" fill="#fff"/><path data-name="Path 20" d="M80.648 28.633a.543.543 0 01-.284.2 2.714 2.714 0 01-.594.124c-.057.007-.085.058-.085.137a.213.213 0 00.02.1.072.072 0 00.066.038q1.775-.056 2.517-.056t2.521.056h.008v-.008a13.5 13.5 0 01.619-1.548.114.114 0 00-.056-.1.214.214 0 00-.123-.037.088.088 0 00-.089.048 2.217 2.217 0 01-.8.9 1.98 1.98 0 01-1.1.362h-1.024a.475.475 0 01-.534-.543v-2.3h1.172a.736.736 0 01.617.226 1.711 1.711 0 01.245.8.072.072 0 00.037.064.271.271 0 00.2 0 .072.072 0 00.038-.066q0-.236-.028-.6-.028-.343-.028-.563t.028-.558q.028-.357.028-.592a.072.072 0 00-.038-.066.267.267 0 00-.2 0 .072.072 0 00-.037.064 1.615 1.615 0 01-.231.76.765.765 0 01-.631.212H81.71v-2.079c0-.372.175-.551.534-.553h.949a1.42 1.42 0 011.474 1.1.1.1 0 00.109.073.265.265 0 00.129-.025.087.087 0 00.047-.08 10.769 10.769 0 01-.314-1.435v-.01h-.01q-1.179.056-2.427.056t-2.422-.056a.072.072 0 00-.066.038.269.269 0 000 .2.072.072 0 00.064.037 2.6 2.6 0 01.6.126.523.523 0 01.279.209.973.973 0 01.076.453v4.422a.921.921 0 01-.084.47z" fill="#fff"/><path data-name="Path 21" d="M91.505 28.633a.544.544 0 01-.284.2 2.7 2.7 0 01-.594.124c-.058.007-.086.058-.085.137a.214.214 0 00.02.1.072.072 0 00.066.038q.315 0 .747-.028.413-.028.7-.028t.7.028q.437.028.752.028a.072.072 0 00.066-.038.215.215 0 00.02-.1c0-.08-.029-.131-.09-.137a2.742 2.742 0 01-.6-.124.538.538 0 01-.286-.207.914.914 0 01-.081-.452v-2.008a1.351 1.351 0 01.727.135 2.414 2.414 0 01.483.615l1.431 2.325h.006q.137 0 .428-.028c.194-.019.336-.028.426-.028q.093 0 .379.024.395.033.569.033a.072.072 0 00.066-.038.215.215 0 00.02-.1c0-.079-.023-.13-.075-.137a2.361 2.361 0 01-.763-.2 1.167 1.167 0 01-.48-.452l-1.44-2.344a2.43 2.43 0 001.016-.659 1.391 1.391 0 00.381-.937 1.471 1.471 0 00-.577-1.24 2.629 2.629 0 00-1.627-.44q-.315 0-.752.028-.418.028-.7.028t-.7-.028q-.432-.028-.747-.028a.073.073 0 00-.066.038.269.269 0 000 .2.072.072 0 00.064.037 2.608 2.608 0 01.6.126.522.522 0 01.279.209.971.971 0 01.076.453v4.422a.921.921 0 01-.075.453zm1.06-4.875a1.174 1.174 0 01.067-.476.414.414 0 01.266-.195 2.128 2.128 0 01.6-.063c.793 0 1.185.451 1.187 1.365a1.589 1.589 0 01-.344 1.137 1.472 1.472 0 01-1.1.355 5.205 5.205 0 01-.675-.036z" fill="#fff"/><path data-name="Path 22" d="M102.425 27.407a.243.243 0 00-.111.02.072.072 0 00-.041.066q.084.8.113 1.6v.01h.01a3.546 3.546 0 01.867.14 4.115 4.115 0 001 .151 2.043 2.043 0 001.507-.555 2.013 2.013 0 00.558-1.494 1.41 1.41 0 00-.323-.894 5.171 5.171 0 00-1.355-1.008 4.906 4.906 0 01-1.13-.808.951.951 0 01-.259-.629 1.115 1.115 0 01.308-.828 1.127 1.127 0 01.832-.307 1.178 1.178 0 01.864.307 2 2 0 01.467 1.009c.011.058.067.084.156.084a.188.188 0 00.1-.02.073.073 0 00.036-.065q-.094-.629-.15-1.455v-.01h-.01a3.591 3.591 0 01-.689-.08 3.77 3.77 0 00-.759-.09 2.035 2.035 0 00-1.444.531 1.712 1.712 0 00-.57 1.3 1.458 1.458 0 00.317.913 4.8 4.8 0 001.337 1 4.749 4.749 0 011.157.84 1.073 1.073 0 01.27.7 1.275 1.275 0 01-.309.913 1.144 1.144 0 01-.872.325 1.584 1.584 0 01-1.1-.354 2.63 2.63 0 01-.646-1.225.123.123 0 00-.131-.087z" fill="#fff"/><path data-name="Path 23" d="M112.789 28.752a1.8 1.8 0 01-.768.209c-.057.007-.085.058-.084.137a.214.214 0 00.02.1.071.071 0 00.066.038q.32 0 .757-.028.413-.028.7-.028t.7.028q.433.028.747.028a.072.072 0 00.066-.038.216.216 0 00.02-.1c0-.08-.029-.131-.089-.137a2.669 2.669 0 01-.6-.124.526.526 0 01-.279-.207.942.942 0 01-.078-.453v-4.421a.957.957 0 01.078-.46.531.531 0 01.281-.2 2.694 2.694 0 01.6-.124.072.072 0 00.064-.037.268.268 0 000-.2.073.073 0 00-.066-.038q-.315 0-.747.028-.413.028-.7.028t-.7-.028q-.437-.028-.757-.028a.073.073 0 00-.066.038.27.27 0 000 .2.073.073 0 00.064.037 2.714 2.714 0 01.6.124.538.538 0 01.283.207.936.936 0 01.081.457v4.422a.67.67 0 01-.193.57z" fill="#fff"/><path data-name="Path 24" d="M124.272 23.141a.478.478 0 01.307-.073h.441a1.867 1.867 0 011.107.273 1.742 1.742 0 01.574.931.1.1 0 00.1.073.288.288 0 00.132-.024.083.083 0 00.048-.076q-.216-1.009-.282-1.619v-.012h-.012a19.868 19.868 0 01-2.982.131 19.229 19.229 0 01-2.921-.131h-.01v.01q-.235.9-.5 1.6a.1.1 0 00.045.086.23.23 0 00.125.028.109.109 0 00.113-.078 1.544 1.544 0 01.7-.865 2.223 2.223 0 011.2-.334h.366a.486.486 0 01.312.073.36.36 0 01.081.274v4.766a.669.669 0 01-.2.574 1.792 1.792 0 01-.768.209c-.057.007-.086.058-.085.137a.212.212 0 00.02.1.072.072 0 00.066.038q.315 0 .752-.028.418-.028.706-.028t.692.028q.437.028.752.028a.072.072 0 00.066-.038.215.215 0 00.02-.1c0-.08-.027-.131-.085-.137a2.749 2.749 0 01-.6-.124.538.538 0 01-.286-.207.916.916 0 01-.081-.452v-4.766a.359.359 0 01.087-.267z" fill="#fff"/><path data-name="Path 25" d="M138.449 22.716a4.839 4.839 0 01-.506.028q-.258 0-.647-.028t-.677-.028a.073.073 0 00-.066.038.207.207 0 00-.02.1.266.266 0 00.015.1.057.057 0 00.051.038 1.713 1.713 0 01.562.143.282.282 0 01.161.262.711.711 0 01-.148.381l-1.41 2.11-1.35-2.1a.972.972 0 01-.191-.482c0-.074.047-.137.147-.19a1.443 1.443 0 01.454-.122.072.072 0 00.064-.037.27.27 0 000-.2.073.073 0 00-.066-.038q-.329 0-.822.028-.422.028-.66.028t-.665-.028q-.38-.028-.6-.028a.073.073 0 00-.066.038.269.269 0 000 .2.072.072 0 00.064.037 1.805 1.805 0 01.677.188 2.066 2.066 0 01.583.611l1.623 2.547v1.866a.669.669 0 01-.2.574 1.8 1.8 0 01-.767.209c-.057.007-.086.058-.085.137a.214.214 0 00.02.1.072.072 0 00.066.038q.314 0 .752-.028.414-.028.7-.028t.668.028q.4.028.71.028a.072.072 0 00.066-.038.213.213 0 00.02-.1c0-.08-.027-.13-.085-.137a2.314 2.314 0 01-.591-.128.417.417 0 01-.243-.208 1.3 1.3 0 01-.053-.446v-1.884l1.747-2.524a2.122 2.122 0 01.558-.611 1.776 1.776 0 01.7-.192.1.1 0 00.077-.043.145.145 0 00.035-.1.207.207 0 00-.02-.1.072.072 0 00-.065-.038 5.111 5.111 0 00-.517.029z" fill="#fff"/><path data-name="Path 26" d="M99.527 37.035a.907.907 0 01-.343.064c-.021 0-.032.024-.032.074s.014.074.043.074q.179 0 .434-.016t.405-.016q.142 0 .343.016.233.016.418.016.043 0 .043-.075t-.054-.072a.853.853 0 01-.428-.155.822.822 0 01-.253-.383l-1.107-3.082q-.016-.04-.08-.04a.071.071 0 00-.075.043l-1.254 3.079a1.116 1.116 0 01-.269.415.665.665 0 01-.353.123c-.041 0-.062.03-.062.08s.013.067.04.067q.128 0 .31-.016c.116-.011.212-.016.289-.016q.145 0 .329.016t.356.016c.028 0 .043-.025.043-.074s-.011-.074-.032-.074q-.434-.022-.434-.259a.846.846 0 01.059-.259l.306-.831h1.1l.305.9a.783.783 0 01.054.224.172.172 0 01-.101.161zm-1.291-1.456l.507-1.366.471 1.366z" fill="#fff"/><path data-name="Path 27" d="M101.64 36.945a1.546 1.546 0 001.119.388 1.209 1.209 0 00.975-.406 1.677 1.677 0 00.346-1.122v-1.682a.386.386 0 01.115-.331 1.107 1.107 0 01.453-.125c.029 0 .043-.024.043-.074s-.014-.074-.043-.074q-.134 0-.333.016c-.128.011-.236.016-.321.016s-.2-.006-.334-.016-.241-.016-.323-.016q-.043 0-.043.074c0 .049.014.074.043.074a1.047 1.047 0 01.449.122.387.387 0 01.119.334v1.628q0 1.341-1.059 1.341a.984.984 0 01-.812-.308 1.533 1.533 0 01-.249-.968v-1.692a.537.537 0 01.047-.264.311.311 0 01.165-.121 1.565 1.565 0 01.346-.071c.029 0 .043-.024.043-.074s-.014-.074-.043-.074q-.18 0-.429.016t-.4.016q-.164 0-.4-.016t-.426-.016q-.043 0-.043.074c0 .049.014.074.043.074a1.508 1.508 0 01.346.072.305.305 0 01.162.122.556.556 0 01.044.261v1.767a1.4 1.4 0 00.4 1.055z" fill="#fff"/><path data-name="Path 28" d="M106.127 37.161a.909.909 0 01-.632-.2 1.5 1.5 0 01-.37-.7.064.064 0 00-.07-.043c-.054 0-.08.014-.08.043q.048.456.064.911a2.023 2.023 0 01.5.08 2.337 2.337 0 00.572.086 1.16 1.16 0 00.856-.315 1.143 1.143 0 00.317-.848.8.8 0 00-.183-.507 2.933 2.933 0 00-.771-.574 2.806 2.806 0 01-.647-.462.549.549 0 01-.149-.363.642.642 0 01.178-.477.649.649 0 01.479-.177.679.679 0 01.5.177 1.147 1.147 0 01.268.579c.005.029.033.043.083.043s.07-.014.07-.043q-.054-.359-.086-.831a2.055 2.055 0 01-.394-.046 2.148 2.148 0 00-.432-.051 1.155 1.155 0 00-.82.3.97.97 0 00-.323.738.827.827 0 00.179.517 2.746 2.746 0 00.761.568 2.717 2.717 0 01.662.481.617.617 0 01.155.4.733.733 0 01-.178.525.66.66 0 01-.509.189z" fill="#fff"/><path data-name="Path 29" d="M109.736 33.765a.277.277 0 01.18-.043h.252a1.07 1.07 0 01.635.157 1 1 0 01.33.535.05.05 0 00.054.038q.1 0 .1-.051-.123-.576-.161-.925a11.357 11.357 0 01-1.7.075 10.991 10.991 0 01-1.668-.075q-.134.512-.284.917 0 .059.091.059a.056.056 0 00.059-.04.888.888 0 01.4-.5 1.274 1.274 0 01.686-.192h.209a.282.282 0 01.182.043.211.211 0 01.048.161v2.72a.387.387 0 01-.117.332 1.026 1.026 0 01-.441.121q-.043.005-.043.072t.043.075q.18 0 .429-.016t.4-.016q.159 0 .4.016t.429.016q.043 0 .043-.075t-.043-.072a1.569 1.569 0 01-.342-.071.311.311 0 01-.166-.121.526.526 0 01-.047-.261v-2.72a.21.21 0 01.042-.159z" fill="#fff"/><path data-name="Path 30" d="M112.787 33.857a.308.308 0 01.163-.119 1.552 1.552 0 01.343-.071c.029 0 .043-.024.043-.074s-.014-.074-.043-.074q-.179 0-.426.016t-.4.016q-.164 0-.4-.016t-.431-.016c-.029 0-.043.024-.043.074s.014.074.043.074a1.561 1.561 0 01.346.071.314.314 0 01.165.121.539.539 0 01.047.264v2.524a.387.387 0 01-.116.333 1.028 1.028 0 01-.441.121c-.029 0-.043.028-.043.072s.014.075.043.075q.182 0 .431-.016t.4-.016q.164 0 .4.016t.426.016q.043 0 .043-.075t-.046-.072a1.534 1.534 0 01-.342-.071.3.3 0 01-.162-.121.544.544 0 01-.046-.261v-2.524a.551.551 0 01.046-.267z" fill="#fff"/><path data-name="Path 31" d="M114.643 34.168l2.763 3.122a.157.157 0 00.086.043c.043 0 .064-.018.064-.054l.059-3.159a.387.387 0 01.13-.33 1.089 1.089 0 01.46-.124c.028 0 .043-.028.043-.072s-.014-.075-.043-.075q-.121 0-.341.016t-.362.016q-.123 0-.348-.016a5.874 5.874 0 00-.386-.016c-.029 0-.043.025-.043.075s.015.069.043.072a1.112 1.112 0 01.481.133.368.368 0 01.13.321v2.285l-2.581-2.886a1.938 1.938 0 00-.23.016 1.931 1.931 0 01-.225.016c-.05 0-.125-.006-.225-.016s-.2-.016-.263-.016c-.029 0-.043.024-.043.074s.012.074.038.074a1.168 1.168 0 01.469.129.341.341 0 01.126.3v.024l-.094 2.524a.39.39 0 01-.131.329 1.107 1.107 0 01-.456.125c-.032 0-.048.028-.048.072s.014.075.043.075q.121 0 .34-.016t.362-.016q.123 0 .351.016.244.016.383.016c.029 0 .043-.025.043-.075s-.014-.069-.043-.072a1.165 1.165 0 01-.464-.125.319.319 0 01-.128-.288v-.04z" fill="#fff"/><path data-name="Path 32" d="M118.594 38.083l-.008.021a.115.115 0 00.024.064.07.07 0 00.059.035.7.7 0 00.26-.168 1.119 1.119 0 00.3-.375 1.047 1.047 0 00.1-.462.585.585 0 00-.116-.371.361.361 0 00-.3-.148.311.311 0 00-.311.311.319.319 0 00.085.224.272.272 0 00.21.093.144.144 0 00.054-.014l.032-.008c.029 0 .043.041.043.123a.8.8 0 01-.432.675z" fill="#fff"/><path data-name="Path 33" d="M122.922 33.765a.277.277 0 01.18-.043h.252a1.07 1.07 0 01.635.157 1 1 0 01.33.535.05.05 0 00.054.038c.064 0 .1-.017.1-.051q-.124-.576-.161-.925a11.357 11.357 0 01-1.7.075 10.994 10.994 0 01-1.668-.075q-.134.512-.284.917c0 .039.031.059.091.059a.056.056 0 00.059-.04.888.888 0 01.4-.5 1.274 1.274 0 01.686-.192h.209a.282.282 0 01.182.043.211.211 0 01.048.161v2.72a.387.387 0 01-.117.332 1.025 1.025 0 01-.441.121c-.028 0-.043.028-.043.072s.015.075.043.075q.179 0 .429-.016t.4-.016q.159 0 .4.016t.429.016c.028 0 .043-.025.043-.075s-.014-.069-.043-.072a1.569 1.569 0 01-.342-.071.312.312 0 01-.166-.121.527.527 0 01-.047-.261v-2.72a.211.211 0 01.042-.159z" fill="#fff"/><path data-name="Path 34" d="M125.172 36.909a.316.316 0 01-.165.119 1.553 1.553 0 01-.34.071c-.029 0-.043.028-.043.072s.014.075.043.075q1.013-.032 1.437-.032t1.439.032a7.764 7.764 0 01.354-.884.059.059 0 00-.029-.05.115.115 0 00-.067-.02.045.045 0 00-.046.024 1.269 1.269 0 01-.461.519 1.137 1.137 0 01-.632.208h-.584a.277.277 0 01-.311-.316v-1.319h.675a.425.425 0 01.357.132.984.984 0 01.141.458c0 .028.025.043.074.043s.074-.014.074-.043q0-.134-.016-.343t-.016-.322q0-.123.016-.319t.016-.338q0-.043-.074-.043c-.049 0-.074.014-.074.043a.926.926 0 01-.133.437.443.443 0 01-.365.123h-.675v-1.193a.28.28 0 01.311-.321h.541a.817.817 0 01.847.633.051.051 0 00.056.038q.094 0 .094-.054a6.092 6.092 0 01-.179-.82q-.673.032-1.386.032t-1.383-.032q-.043 0-.043.074c0 .049.014.074.043.074a1.521 1.521 0 01.346.072.306.306 0 01.162.122.559.559 0 01.044.261v2.524a.531.531 0 01-.048.263z" fill="#fff"/><path data-name="Path 35" d="M130.419 37.098q-.043.005-.043.072c0 .05.013.075.04.075q.182 0 .456-.016t.418-.016q.148 0 .389.016c.15.011.267.016.351.016q.043 0 .043-.075t-.043-.072a1.364 1.364 0 01-.432-.1 1.126 1.126 0 01-.331-.351l-.986-1.424.855-1.1a1.333 1.333 0 01.344-.336 1.145 1.145 0 01.443-.123l.041-.022a.079.079 0 00.018-.051c0-.049-.014-.074-.043-.074q-.188 0-.4.019a3.748 3.748 0 01-.662-.003 5.009 5.009 0 00-.394-.016c-.029 0-.043.024-.043.074s.011.074.032.074a1.138 1.138 0 01.35.088.167.167 0 01.106.15.493.493 0 01-.1.221l-.655.945-.659-.946a.614.614 0 01-.134-.285.116.116 0 01.078-.1 1.137 1.137 0 01.3-.067c.029 0 .043-.024.043-.074s-.014-.074-.043-.074q-.179 0-.448.016c-.168.011-.307.016-.416.016s-.228-.005-.395-.016-.273-.016-.357-.016c-.029 0-.043.024-.043.074s.014.074.043.074a1.242 1.242 0 01.429.105 1.067 1.067 0 01.332.353l.948 1.365-.9 1.154a1.362 1.362 0 01-.348.342 1.049 1.049 0 01-.415.114c-.039 0-.059.028-.059.072s.014.075.043.075q.161 0 .359-.016a3.175 3.175 0 01.643 0q.238.016.423.016c.029 0 .043-.025.043-.074s-.011-.07-.032-.074a1.1 1.1 0 01-.34-.085.165.165 0 01-.1-.152.37.37 0 01.086-.216l.7-1.008.7 1.008a.609.609 0 01.134.284q.003.115-.369.164z" fill="#fff"/><path data-name="Path 36" d="M134.808 37.035a.909.909 0 01-.343.064c-.022 0-.032.024-.032.074s.014.074.043.074q.179 0 .434-.016t.4-.016q.142 0 .343.016.233.016.418.016.043 0 .043-.075t-.053-.072a.853.853 0 01-.428-.155.821.821 0 01-.253-.383l-1.107-3.082q-.016-.04-.08-.04a.071.071 0 00-.075.043l-1.254 3.079a1.12 1.12 0 01-.269.415.666.666 0 01-.352.123c-.041 0-.062.03-.062.08s.013.067.04.067c.086 0 .189-.005.311-.016s.213-.016.289-.016c.1 0 .206.006.329.016s.249.016.356.016c.029 0 .043-.025.043-.074s-.011-.074-.032-.074q-.434-.022-.434-.259a.841.841 0 01.059-.259l.306-.831h1.1l.305.9a.788.788 0 01.053.224.172.172 0 01-.098.161zm-1.291-1.456l.507-1.366.47 1.366z" fill="#fff"/><path data-name="Path 37" d="M137.5 37.161a.91.91 0 01-.633-.2 1.508 1.508 0 01-.37-.7.064.064 0 00-.07-.043c-.053 0-.08.014-.08.043q.048.456.064.911a2.021 2.021 0 01.5.08 2.337 2.337 0 00.572.086 1.159 1.159 0 00.856-.315 1.142 1.142 0 00.317-.848.8.8 0 00-.183-.507 2.937 2.937 0 00-.772-.574 2.816 2.816 0 01-.647-.462.549.549 0 01-.149-.363.642.642 0 01.178-.477.649.649 0 01.479-.177.679.679 0 01.5.177 1.147 1.147 0 01.269.579c.005.029.033.043.083.043s.07-.014.07-.043q-.054-.359-.086-.831a2.058 2.058 0 01-.394-.046 2.143 2.143 0 00-.432-.051 1.154 1.154 0 00-.82.3.97.97 0 00-.323.738.828.828 0 00.18.517 2.744 2.744 0 00.761.568 2.72 2.72 0 01.662.481.617.617 0 01.155.4.733.733 0 01-.178.525.659.659 0 01-.509.189z" fill="#fff"/><path data-name="Rectangle 2" fill="#fff" d="M34.021 31.038h105.038v.447H34.021z"/><path data-name="Path 38" d="M34.784 17.446a1.849 1.849 0 01-.794.217q-.077.01-.077.13c0 .09.026.135.077.135q.323 0 .772-.029.429-.029.724-.029t.68.029q.405.029.728.029c.051 0 .077-.045.077-.135s-.026-.124-.077-.13a2.333 2.333 0 01-.608-.133.436.436 0 01-.253-.222 1.355 1.355 0 01-.055-.461v-2.151h3.681v2.151a1.355 1.355 0 01-.056.461.435.435 0 01-.253.222 2.32 2.32 0 01-.6.133q-.082.01-.082.13c0 .09.026.135.077.135q.323 0 .728-.029.386-.029.68-.029t.719.029q.449.029.777.029c.051 0 .077-.045.077-.135s-.026-.124-.077-.13a1.847 1.847 0 01-.794-.217.7.7 0 01-.21-.6v-4.542a.968.968 0 01.084-.475.563.563 0 01.3-.217 2.807 2.807 0 01.622-.128c.051 0 .077-.044.077-.133s-.026-.133-.077-.133q-.328 0-.777.029-.425.029-.719.029t-.68-.029q-.405-.029-.728-.029-.077 0-.077.133c0 .089.026.133.077.133a2.323 2.323 0 01.61.133.433.433 0 01.251.225 1.375 1.375 0 01.056.463v2.084h-3.681v-2.085a1.1 1.1 0 01.077-.509.521.521 0 01.27-.2 2.551 2.551 0 01.569-.116c.051 0 .077-.044.077-.133s-.026-.133-.077-.133q-.323 0-.728.029-.386.029-.68.029t-.724-.029q-.449-.029-.772-.029-.077 0-.077.133c0 .089.026.133.077.133a2.808 2.808 0 01.622.128.563.563 0 01.3.217.967.967 0 01.085.475v4.543a.7.7 0 01-.218.604z" fill="#fff"/><path data-name="Path 39" d="M42.329 11.483a2.7 2.7 0 01.622.13.549.549 0 01.292.22 1 1 0 01.079.471v3.181a2.516 2.516 0 00.723 1.9 2.781 2.781 0 002.015.7 2.177 2.177 0 001.754-.731 3.023 3.023 0 00.622-2.021v-3.029a.694.694 0 01.207-.6 1.987 1.987 0 01.815-.225q.077 0 .077-.133t-.077-.133q-.241 0-.6.029t-.578.029q-.231 0-.6-.029t-.582-.029q-.077 0-.077.133t.077.133a1.881 1.881 0 01.808.22.7.7 0 01.215.6v2.93q0 2.414-1.906 2.414a1.772 1.772 0 01-1.462-.555 2.759 2.759 0 01-.449-1.743v-3.041a.967.967 0 01.084-.475.563.563 0 01.3-.217 2.806 2.806 0 01.622-.128q.077 0 .077-.133t-.077-.133q-.323 0-.772.029-.429.029-.724.029t-.719-.029q-.444-.029-.767-.029-.077 0-.077.133t.078.132z" fill="#fff"/><path data-name="Path 40" d="M50.743 17.928a4.221 4.221 0 001.029.155 2.089 2.089 0 001.541-.567 2.057 2.057 0 00.57-1.527 1.434 1.434 0 00-.329-.912 5.3 5.3 0 00-1.389-1.032 5.051 5.051 0 01-1.164-.832.989.989 0 01-.269-.654 1.157 1.157 0 01.32-.859 1.17 1.17 0 01.863-.318 1.223 1.223 0 01.9.318 2.072 2.072 0 01.483 1.042q.014.077.15.077c.084 0 .125-.026.125-.077q-.1-.646-.155-1.5a3.685 3.685 0 01-.71-.082 3.866 3.866 0 00-.778-.092 2.08 2.08 0 00-1.476.543 1.748 1.748 0 00-.582 1.329 1.49 1.49 0 00.323.931 4.942 4.942 0 001.37 1.023 4.886 4.886 0 011.192.866 1.111 1.111 0 01.28.726 1.319 1.319 0 01-.321.946 1.187 1.187 0 01-.9.338 1.638 1.638 0 01-1.139-.367 2.712 2.712 0 01-.667-1.264.115.115 0 00-.125-.077q-.145 0-.145.077.087.82.116 1.64a3.646 3.646 0 01.887.149z" fill="#fff"/><path data-name="Path 41" d="M54.374 12.896a.1.1 0 00.106-.073 1.6 1.6 0 01.724-.895 2.293 2.293 0 011.235-.345h.376a.509.509 0 01.328.077.379.379 0 01.087.289v4.9a.7.7 0 01-.21.6 1.844 1.844 0 01-.793.217q-.077.01-.077.13c0 .09.026.135.077.135q.323 0 .772-.029.43-.029.726-.029t.712.029q.449.029.772.029c.051 0 .077-.045.077-.135s-.026-.124-.077-.13a2.81 2.81 0 01-.615-.128.564.564 0 01-.3-.217.954.954 0 01-.084-.47v-4.9a.379.379 0 01.087-.289.5.5 0 01.323-.077h.453a1.927 1.927 0 011.14.282 1.8 1.8 0 01.593.963.089.089 0 00.1.068q.174 0 .174-.092-.222-1.037-.289-1.664a20.474 20.474 0 01-3.066.135 19.814 19.814 0 01-3-.135q-.241.921-.511 1.65c-.001.068.051.104.16.104z" fill="#fff"/><path data-name="Path 42" d="M64.997 18.079a3.5 3.5 0 002.571-.972 3.363 3.363 0 00.984-2.5 3.554 3.554 0 10-7.106 0 3.367 3.367 0 00.982 2.5 3.493 3.493 0 002.569.972zm-1.807-5.8a2.26 2.26 0 013.613 0 3.73 3.73 0 01.688 2.325 3.618 3.618 0 01-.683 2.289 2.312 2.312 0 01-3.623 0 3.635 3.635 0 01-.678-2.289 3.749 3.749 0 01.683-2.325z" fill="#fff"/><path data-name="Path 43" d="M68.804 17.929q.217 0 .613-.029t.651-.029q.222 0 .632.029.439.029.69.029c.052 0 .077-.045.077-.135s-.026-.124-.077-.13a2.1 2.1 0 01-.835-.224.574.574 0 01-.232-.519.585.585 0 010-.072l.068-4.463 4.974 5.62a.282.282 0 00.154.077c.077 0 .116-.032.116-.1l.106-5.687a.7.7 0 01.234-.594 1.951 1.951 0 01.827-.222c.051-.007.077-.05.077-.13s-.026-.135-.077-.135q-.217 0-.613.029t-.651.029q-.222 0-.627-.029-.429-.03-.689-.03c-.051 0-.077.045-.077.135s.026.124.077.13a1.991 1.991 0 01.866.239.661.661 0 01.234.578v4.118l-4.646-5.2a3.6 3.6 0 00-.415.029 3.368 3.368 0 01-.405.029q-.135 0-.405-.029-.3-.029-.473-.029-.077 0-.077.133t.068.133a2.093 2.093 0 01.844.232.613.613 0 01.227.546v.043l-.169 4.543a.7.7 0 01-.236.592 1.991 1.991 0 01-.82.224q-.087.01-.087.13c-.001.093.025.139.076.139z" fill="#fff"/><path data-name="Path 44" d="M79.774 12.896a.1.1 0 00.106-.073 1.6 1.6 0 01.724-.895 2.294 2.294 0 011.235-.345h.376a.509.509 0 01.328.077.379.379 0 01.087.289v4.9a.7.7 0 01-.21.6 1.843 1.843 0 01-.793.217q-.077.01-.077.13c0 .09.026.135.077.135q.323 0 .772-.029.43-.029.726-.029t.711.029q.449.029.772.029c.051 0 .077-.045.077-.135s-.026-.124-.077-.13a2.812 2.812 0 01-.615-.128.565.565 0 01-.3-.217.955.955 0 01-.084-.47v-4.9a.38.38 0 01.087-.289.5.5 0 01.323-.077h.454a1.927 1.927 0 011.143.282 1.8 1.8 0 01.593.963.089.089 0 00.1.068q.174 0 .174-.092-.222-1.037-.289-1.664a20.473 20.473 0 01-3.066.135 19.818 19.818 0 01-3-.135q-.241.921-.511 1.65c-.007.068.048.104.157.104z" fill="#fff"/><path data-name="Path 45" d="M87.828 17.446a1.846 1.846 0 01-.793.217c-.051.006-.077.05-.077.13s.026.135.077.135q.328 0 .777-.029.424-.029.719-.029t.719.029q.444.029.767.029c.051 0 .077-.045.077-.135s-.027-.124-.082-.13a2.747 2.747 0 01-.615-.128.55.55 0 01-.292-.217.978.978 0 01-.082-.471v-4.543a.988.988 0 01.082-.478.556.556 0 01.294-.215 2.81 2.81 0 01.617-.128c.051 0 .077-.044.077-.133s-.026-.133-.077-.133q-.323 0-.767.029-.425.029-.719.029t-.719-.029q-.449-.029-.777-.029c-.051 0-.077.044-.077.133s.026.133.077.133a2.821 2.821 0 01.622.128.565.565 0 01.3.217.968.968 0 01.085.475v4.543a.7.7 0 01-.213.6z" fill="#fff"/><path data-name="Path 46" d="M92.081 17.446a1.845 1.845 0 01-.794.217q-.077.01-.077.13c0 .09.026.135.077.135q1.824-.058 2.6-.058t2.629.058a14.937 14.937 0 01.357-1.775.107.107 0 00-.056-.087.2.2 0 00-.118-.039c-.048 0-.079.013-.091.039a3.187 3.187 0 01-.811 1.179 1.6 1.6 0 01-1 .316h-.955a.5.5 0 01-.56-.57v-4.687a.991.991 0 01.082-.478.555.555 0 01.294-.215 2.8 2.8 0 01.617-.128c.051 0 .077-.044.077-.133s-.026-.133-.077-.133q-.323 0-.767.029-.425.029-.719.029t-.724-.029q-.449-.029-.772-.029-.077 0-.077.133t.077.133a2.819 2.819 0 01.622.128.563.563 0 01.3.217.965.965 0 01.085.475v4.543a.7.7 0 01-.219.6z" fill="#fff"/><path data-name="Path 47" d="M98.34 17.446a1.844 1.844 0 01-.793.217q-.077.01-.077.13c0 .09.026.135.077.135q1.823-.058 2.6-.058t2.629.058a14.864 14.864 0 01.357-1.775.107.107 0 00-.056-.087.2.2 0 00-.118-.039q-.072 0-.091.039a3.183 3.183 0 01-.811 1.179 1.6 1.6 0 01-1 .316h-.955a.5.5 0 01-.56-.57v-4.687a.988.988 0 01.082-.478.554.554 0 01.294-.215 2.8 2.8 0 01.617-.128q.077 0 .077-.133t-.077-.133q-.323 0-.767.029-.425.029-.719.029t-.724-.029q-.449-.029-.772-.029-.077 0-.077.133t.077.133a2.818 2.818 0 01.622.128.564.564 0 01.3.217.967.967 0 01.085.475v4.543a.7.7 0 01-.22.6z" fill="#fff"/><path data-name="Path 48" d="M107.234 18.079a3.5 3.5 0 002.572-.972 3.363 3.363 0 00.984-2.5 3.554 3.554 0 10-7.106 0 3.367 3.367 0 00.982 2.5 3.492 3.492 0 002.568.972zm-1.807-5.8a2.26 2.26 0 013.613 0 3.731 3.731 0 01.688 2.325 3.618 3.618 0 01-.683 2.289 2.312 2.312 0 01-3.623 0 3.635 3.635 0 01-.678-2.289 3.749 3.749 0 01.684-2.325z" fill="#fff"/><path data-name="Path 49" d="M111.311 12.896a.1.1 0 00.106-.073 1.6 1.6 0 01.724-.895 2.293 2.293 0 011.235-.345h.377a.509.509 0 01.328.077.379.379 0 01.087.289v4.9a.7.7 0 01-.21.6 1.844 1.844 0 01-.793.217c-.051.007-.077.05-.077.13s.026.135.077.135q.323 0 .772-.029c.287-.019.529-.029.726-.029s.428.009.711.029q.449.029.772.029c.052 0 .077-.045.077-.135s-.026-.124-.077-.13a2.812 2.812 0 01-.615-.128.564.564 0 01-.3-.217.954.954 0 01-.084-.47v-4.9a.379.379 0 01.087-.289.5.5 0 01.323-.077h.454a1.928 1.928 0 011.143.282 1.8 1.8 0 01.593.963.089.089 0 00.1.068q.174 0 .174-.092-.222-1.037-.289-1.664a20.475 20.475 0 01-3.066.135 19.813 19.813 0 01-3-.135q-.241.921-.511 1.65c-.008.068.047.104.156.104z" fill="#fff"/><path data-name="Path 50" d="M119.571 17.928a4.221 4.221 0 001.029.155 2.088 2.088 0 001.541-.567 2.056 2.056 0 00.57-1.527 1.434 1.434 0 00-.329-.912 5.294 5.294 0 00-1.389-1.032 5.052 5.052 0 01-1.164-.832.988.988 0 01-.268-.654 1.157 1.157 0 01.32-.859 1.17 1.17 0 01.863-.318 1.224 1.224 0 01.9.318 2.073 2.073 0 01.483 1.042q.014.077.15.077c.084 0 .125-.026.125-.077q-.1-.646-.155-1.5a3.687 3.687 0 01-.71-.082 3.863 3.863 0 00-.778-.092 2.08 2.08 0 00-1.476.543 1.747 1.747 0 00-.582 1.329 1.49 1.49 0 00.323.931 4.942 4.942 0 001.37 1.023 4.883 4.883 0 011.192.866 1.112 1.112 0 01.28.726 1.319 1.319 0 01-.321.946 1.186 1.186 0 01-.9.338 1.638 1.638 0 01-1.139-.367 2.712 2.712 0 01-.667-1.264.115.115 0 00-.125-.077q-.145 0-.145.077.087.82.116 1.64a3.645 3.645 0 01.886.149z" fill="#fff"/><path data-name="Path 51" d="M127.001 18.079a3.5 3.5 0 002.571-.972 3.363 3.363 0 00.984-2.5 3.554 3.554 0 10-7.106 0 3.367 3.367 0 00.982 2.5 3.493 3.493 0 002.569.972zm-1.807-5.8a2.26 2.26 0 013.613 0 3.73 3.73 0 01.688 2.325 3.617 3.617 0 01-.683 2.289 2.312 2.312 0 01-3.623 0 3.635 3.635 0 01-.678-2.289 3.748 3.748 0 01.683-2.325z" fill="#fff"/><path data-name="Path 52" d="M130.904 17.929q.217 0 .613-.029t.652-.029q.222 0 .632.029c.292.019.522.029.689.029.052 0 .078-.045.078-.135s-.026-.124-.078-.13a2.1 2.1 0 01-.834-.224.574.574 0 01-.232-.519.593.593 0 01.005-.072l.068-4.463 4.973 5.62a.284.284 0 00.155.077c.077 0 .115-.032.115-.1l.107-5.687a.694.694 0 01.234-.594 1.952 1.952 0 01.827-.222c.051-.007.077-.05.077-.13s-.026-.135-.077-.135q-.217 0-.613.029t-.651.029q-.222 0-.627-.029-.434-.029-.695-.029c-.051 0-.077.045-.077.135s.026.124.077.13a1.994 1.994 0 01.866.239.662.662 0 01.234.578v4.117l-4.646-5.2a3.594 3.594 0 00-.415.029 3.372 3.372 0 01-.406.029q-.135 0-.4-.029-.3-.029-.473-.029c-.051 0-.077.044-.077.133s.023.133.068.133a2.094 2.094 0 01.844.232.613.613 0 01.227.546v.043l-.169 4.543a.7.7 0 01-.236.592 1.991 1.991 0 01-.82.224q-.086.01-.087.13c-.005.093.02.139.072.139z" fill="#fff"/><path data-name="Path 53" d="M35.073 35.012a.252.252 0 01.109-.146.983.983 0 01.33-.074q.1-.009.1-.089c0-.057-.015-.086-.044-.086q-.131 0-.381.019-.271.019-.424.019t-.427-.019q-.244-.019-.372-.019c-.033 0-.05.029-.05.086a.087.087 0 00.019.066.151.151 0 00.081.023 1.2 1.2 0 01.3.063.24.24 0 01.128.138.836.836 0 01.041.3v1.448a.94.94 0 01-.031.276.256.256 0 01-.1.144.9.9 0 01-.317.078.219.219 0 00-.092.021c-.016.01-.023.033-.023.068q0 .086.05.086.128 0 .372-.019.271-.019.427-.019t.424.019q.25.019.381.019.044 0 .044-.086c0-.037-.008-.06-.023-.069a.24.24 0 00-.089-.02 1.148 1.148 0 01-.292-.063.234.234 0 01-.125-.136.862.862 0 01-.039-.3v-1.448a.929.929 0 01.023-.28z" fill="#fff"/><path data-name="Path 54" d="M36.505 35.864a1.061 1.061 0 00-.242.638.921.921 0 00.325.719 1.243 1.243 0 00.856.288 1.215 1.215 0 00.862-.314 1.016 1.016 0 00.337-.774 1.115 1.115 0 00-.17-.58 3.039 3.039 0 00-.609-.664 1.7 1.7 0 00.55-.492 1.041 1.041 0 00.223-.611.88.88 0 00-.3-.686 1.133 1.133 0 00-.784-.27 1.065 1.065 0 00-.787.321 1.088 1.088 0 00-.318.8 1.517 1.517 0 00.707 1.073 2.135 2.135 0 00-.65.552zm.439-1.854a.74.74 0 01.163-.516.6.6 0 01.469-.178.548.548 0 01.453.208.907.907 0 01.166.58 1.145 1.145 0 01-.144.527 1.2 1.2 0 01-.338.421q-.768-.648-.768-1.045zm.356 1.429a3.082 3.082 0 01.632.642.972.972 0 01.131.5.778.778 0 01-.169.538.675.675 0 01-.976-.044.944.944 0 01-.188-.613 1.15 1.15 0 01.571-1.026z" fill="#fff"/><path data-name="Path 55" d="M39.617 38.751c0 .052.046.078.138.078s.16-.027.181-.081l1.616-4.034.009-.031c0-.046-.017-.069-.05-.069a8.3 8.3 0 01-1.094.038 7.457 7.457 0 01-1.038-.038 6.137 6.137 0 01-.219.932c.008.038.038.056.088.056a.083.083 0 00.088-.05.533.533 0 01.194-.255.507.507 0 01.3-.1h1.307l-1.517 3.527z" fill="#fff"/><path data-name="Path 56" d="M42.632 35.155h.963a.387.387 0 00.247-.072.626.626 0 00.166-.253l.15-.353a.078.078 0 00-.031-.063.108.108 0 00-.069-.025.081.081 0 00-.075.044.409.409 0 01-.125.138.357.357 0 01-.175.034h-.957a.1.1 0 00-.106.075l-.544 1.338a.277.277 0 00-.025.106q0 .119.15.163a1.6 1.6 0 01.754.4.992.992 0 01.216.677 1.192 1.192 0 01-.355.891 1.261 1.261 0 01-.921.347c-.033 0-.05.029-.05.088s.017.088.05.088a1.882 1.882 0 001.284-.483 1.465 1.465 0 00.549-1.13 1.391 1.391 0 00-1.176-1.37q-.113-.034-.113-.109a.262.262 0 01.025-.1z" fill="#fff"/></g></svg>