<?xml version="1.0" encoding="UTF-8"?>
<svg width="1201px" height="658px" viewBox="0 0 1201 658" version="1.1" xmlns="http://www.w3.org/2000/svg" xmlns:xlink="http://www.w3.org/1999/xlink">
    <title>header-mask-bottom</title>
    <g id="Page-1" stroke="none" stroke-width="1" fill="none" fill-rule="evenodd">
        <g id="header-mask-bottom" fill="#000000" fill-rule="nonzero" stroke="#000000">
            <path d="M1176.609,654.714 C1173.977,654.37 1158.509,653.057 1156.609,653.039 C1150.035,652.878 1132.627,651.911 1132.389,651.753 C1131.90474,651.634361 1131.39309,651.716211 1130.97,651.98 C1130.23563,652.326764 1129.37248,652.25826 1128.702,651.8 C1127.98395,651.322928 1127.06169,651.279505 1126.302,651.687 C1125.38,652.087 1119.689,651.962 1103.153,651.112 C1085.863,650.299 1081.059,650.146 1080.77,650.573 C1080.481,651 1070.87,650.694 1031.635,648.701 C1004.882,647.37 979.264,646.093 974.723,645.878 L957.811,645.078 C948.969,644.735 914.394,643.036 913.011,642.97 C912.127,642.929 908.6,642.691 905.187,642.53 C901.774,642.369 893.205,641.895 886.277,641.42 C874.683,640.654 846.684,639.192 845.777,639.368 C845.48456,639.427927 845.181807,639.414181 844.896,639.328 C844.641,639.315 836.454,638.783 826.874,638.187 C817.164,637.587 808.99,636.909 808.385,636.587 C807.78,636.265 807.274,636.24 806.993,636.522 C806.400785,636.83381 805.726909,636.955667 805.063,636.871 C803.925,636.817 803.932,636.744 804.977,636.43 C805.89,636.105 805.516,636.015 803.748,636.005 C802.348,636.013 801.448,636.191 801.562,636.341 C801.793,636.568 800.268,636.648 798.373,636.559 C796.103,636.452 794.732,636.167 794.766,635.803 C794.804,635.365 794.674,635.36 794.259,635.779 C793.7,636.413 790.784,636.422 790.846,635.767 C790.878,635.401 789.239,635.323 783.774,635.505 C783.136,635.548 777.852,635.08 771.956,634.437 C766.183,633.797 760.262,633.372 758.993,633.387 C757.808153,633.482228 756.615731,633.376745 755.466,633.075 C754.24,632.65 730.818,630.96 721.091,630.575 C719.100224,630.420047 717.098711,630.473336 715.119,630.734 C713.537,631.394 703.584,632.173 701.852,631.725 C700.852,631.531 700.352,631.507 700.581,631.739 C701.035,632.275 687.162,633.014 682.11,632.778 C680.217,632.687 678.071,632.588 677.432,632.63 L668.601,632.215 C664.436,632.015 659.759,631.872 658.358,631.954 C655.235,632.054 653.595,632.09 652.79,632.054 C652.570361,632.06637 652.350582,632.032296 652.145,631.954 L652.151,631.949 C651.908,631.79 621.763,630.149 584.92,628.273 C521.08,624.973 510.862,624.421 468.128,621.825 C457.916,621.197 442.033,620.23 432.696,619.725 C423.359,619.22 408.362,618.286 399.291,617.714 C381.012,616.56 381.012,616.56 378.867,616.459 C376.336,616.414 268.081,610.882 266.823,610.752 L260.133,610.438 C257.097,610.367 249.657,609.944 243.611,609.513 C237.565,609.082 221.811,608.121 208.698,607.358 C185.743,606.058 174.143,605.365 131.659,602.781 C104.052,601.115 85.776,599.962 84.765,599.913 C84.259,599.889 84.034,599.587 84.316,599.231 C84.743,598.739 85.637,598.631 88.516,598.99 C92.288,599.39 122.185,600.939 127.131,600.953 C130.171,600.953 131.25,600.194 129.163,599.434 C128.425,599.18 120.113,598.568 110.908,598.062 C101.571,597.55 91.734,597.013 88.841,596.73 C86.077,596.53 73.851,595.73 61.741,595.088 C49.641,594.373 37.886,593.123 34.741,592.83 C31.47,592.53 23.432,591.575 13.341,590.955 C7.284,590.581 4.441,588.792 0.5,588.511 L0.5,587.994 L0.5,587.994 L0.5,0.5 L1200.5,0.5 L1200.5,656.969 C1195.153,656.534 1181.85,655.6 1176.609,654.714 Z M528.039,623.482 C663.79,630.526 689.297,631.582 694.757,630.075 C695.926,629.763 695.69,629.606 693.308,629.275 C690.558,628.853 648.38,627.163 629.777,626.801 C619.4,626.607 560.455,623.834 540.414,622.67 C526.814,621.854 517.804,621.339 511.676,621.049 C502.688,620.626 499.933,620.696 498.09,621.049 L498.09,621.049 C493.71,621.872 493.134,622.649 496.968,622.317 C497.217,622.289 497.702,622.274 498.393,622.274 C502.675,622.271 514.893,622.8 528.04,623.482 L528.039,623.482 Z M697.459,629.682 L697.459,629.682 C697.439,629.902 698.175,630.156 699.059,630.198 C699.943,630.24 700.466,630.044 700.232,629.813 C699.757691,629.494323 699.203144,629.315829 698.632,629.298 C698.587,629.298 698.542,629.298 698.498,629.298 C697.931,629.294 697.476,629.476 697.459,629.678 L697.459,629.682 Z M72.581,599.087 C69.817,598.957 66.104,598.717 61.321,598.37 L61.321,598.37 C56.157,597.98 52.391,597.584 52.921,597.388 C54.2198817,597.155386 55.5463146,597.118981 56.856,597.28 L69.101,597.856 C72.3449381,597.887262 75.5840836,598.113 78.801,598.532 C79.536,598.98 78.891,599.201 76.509,599.201 C75.506,599.2 74.208,599.159 72.581,599.083 L72.581,599.087 Z M42.669,596.344 C39.62,596.203 35.678,595.964 30.404,595.591 L30.404,595.591 C24.61,595.171 20.838,594.848 22.238,594.767 C26.931,594.694 47.885,595.68 48.865,596.093 C49.477,596.343 49.465,596.493 48.572,596.519 C47.039,596.511 45.15,596.457 42.669,596.34 L42.669,596.344 Z M9.21,593.531 C7.37978449,593.479421 5.55407669,593.322159 3.742,593.06 L3.742,593.06 C0.879,592.486 2.927,592.215 7.333,592.572 C9.471,592.745 12.627,592.964 14.256,593.117 C15.893,593.195 17.15,593.401 16.88,593.534 C16.0771053,593.668339 15.2618687,593.713947 14.449,593.67 C12.979,593.665 11.049,593.612 9.209,593.527 L9.21,593.531 Z" id="Union_22"></path>
        </g>
    </g>
</svg>