<svg xmlns="http://www.w3.org/2000/svg" viewBox="0 0 1201 324.406" preserveAspectRatio="none">
  <path d="M1176.051,322.484c-2.643-.154-18.141-.634-20.038-.6-6.56.04-23.965-.183-24.213-.274a2.793,2.793,0,0,0-1.4.169,3.579,3.579,0,0,1-2.271-.063,3.623,3.623,0,0,0-2.4-.019c-.892.263-6.57.311-23.1.138-17.28-.132-22.075-.124-22.336.144s-9.854.284-49.074-.11c-26.74-.25-52.348-.491-56.885-.526l-16.9-.129c-8.832-.023-43.39-.331-44.777-.344-.882-.006-4.412-.079-7.822-.1s-11.979-.135-18.913-.28c-11.6-.222-39.591-.528-40.487-.4a2.958,2.958,0,0,1-.882-.007c-.254,0-8.445-.156-18.029-.319-9.713-.164-17.9-.4-18.524-.591a1.792,1.792,0,0,0-1.392-.01,4.915,4.915,0,0,1-1.9.257c-1.137-.009-1.136-.056-.115-.269.889-.221.51-.267-1.253-.235-1.391.033-2.277.161-2.156.252.246.135-1.27.222-3.163.2-2.269-.016-3.653-.161-3.644-.388.01-.269-.119-.269-.506,0-.516.4-3.42.469-3.4.066.008-.22-1.63-.238-7.064-.01-.633.04-5.926-.135-11.844-.4-5.792-.27-11.718-.4-12.982-.369a17.074,17.074,0,0,1-3.535-.116c-1.249-.234-24.693-.775-34.408-.8a45.948,45.948,0,0,0-5.94.221,84.162,84.162,0,0,1-13.154.884c-1.009-.1-1.509-.1-1.265.034.488.319-13.287,1.066-18.336,1.03-1.892-.014-4.036-.032-4.669.01l-8.826-.068c-4.163-.032-8.831-.022-10.222.055-3.1.128-4.736.185-5.541.18a2.456,2.456,0,0,1-.649-.044h.012c-.251-.092-30.392-.456-67.221-.828-63.817-.663-74.034-.791-116.778-1.477-10.216-.168-26.1-.426-35.437-.539s-24.336-.366-33.412-.526c-18.285-.32-18.285-.32-20.429-.332-2.525.026-110.737-1.07-112-1.124l-6.684-.057c-3.028.023-10.47-.078-16.52-.22s-21.81-.392-34.924-.581c-22.954-.311-34.555-.491-77.05-1.174-27.615-.44-45.9-.755-46.907-.763-.506,0-.749-.185-.491-.41.4-.311,1.277-.394,4.172-.237,3.784.163,33.67.481,38.6.384,3.028-.066,4.054-.552,1.925-.974-.751-.14-9.072-.338-18.275-.456-9.335-.116-19.17-.236-22.071-.349-2.768-.065-15-.293-27.109-.432-12.106-.184-23.9-.7-27.041-.813-3.279-.111-11.349-.53-21.44-.7C6.894,307.939,3.94,306.9,0,306.813V0C5.354.319,18.67.923,23.949,1.814c2.644.321,18.142,1.309,20.038,1.246,6.56-.083,23.966.379,24.214.569s.881.014,1.4-.35a1.881,1.881,0,0,1,2.272.129,1.918,1.918,0,0,0,2.4.039c.892-.544,6.57-.641,23.1-.286,17.28.274,22.075.257,22.335-.3s9.856-.588,49.076.221c26.74.515,52.347,1.014,56.884,1.085l16.9.267c8.832.048,43.389.686,44.777.709.882.014,4.412.161,7.821.221s11.98.278,18.914.579c11.6.464,39.591,1.09,40.487.825a1.44,1.44,0,0,1,.882.014c.254,0,8.445.32,18.029.662,9.714.339,17.9.837,18.525,1.223s1.13.391,1.391.022a2.646,2.646,0,0,1,1.9-.527c1.138.018,1.137.11.115.557-.889.451-.51.553,1.253.485,1.391-.072,2.277-.331,2.156-.524-.245-.279,1.27-.441,3.163-.415,2.269.036,3.653.331,3.644.8-.01.558.119.558.506.009.517-.83,3.42-.969,3.4-.132-.008.464,1.63.492,7.064.02.633-.083,5.927.279,11.844.837,5.792.558,11.718.839,12.982.764a8.338,8.338,0,0,1,3.534.241c1.249.485,24.694,1.6,34.409,1.657A22.378,22.378,0,0,0,485.3,12c1.534-.905,11.4-2.332,13.154-1.838,1.009.2,1.51.21,1.266-.073-.489-.662,13.286-2.21,18.335-2.128,1.892.03,4.036.063,4.67-.02l8.825.14c4.163.066,8.832.046,10.222-.118,3.1-.265,4.736-.384,5.541-.373a1.279,1.279,0,0,1,.649.093h-.01c.251.191,30.392.944,67.221,1.713,63.817,1.383,74.033,1.636,116.778,3.056,10.215.348,26.1.878,35.438,1.117s24.336.756,33.412,1.085c18.286.662,18.286.662,20.429.7,2.524-.054,110.737,2.215,112,2.32l6.684.112c3.028-.047,10.47.163,16.521.44s21.81.81,34.923,1.2c22.954.644,34.555,1.012,77.051,2.43,27.614.9,45.9,1.563,46.906,1.582a.525.525,0,0,1,.491.844c-.394.643-1.277.818-4.172.491-3.783-.338-33.67-.995-38.6-.8-3.028.138-4.054,1.145-1.926,2.016.752.29,9.072.7,18.276.939,9.334.24,19.17.49,22.07.722,2.768.136,15,.608,27.109.894,12.106.378,23.9,1.447,27.042,1.681,3.278.239,11.349,1.1,21.439,1.436,6.061.2,9.015,2.349,12.954,2.533v7.779h0V323.361C1194.646,323.208,1181.33,322.92,1176.051,322.484Zm-648.2-5.407c135.7,1.442,161.187,1.545,166.528.509,1.146-.222.9-.31-1.494-.462-2.768-.2-44.9-.344-63.457-.171-10.351.1-69.257-.35-89.3-.637-13.6-.213-22.612-.337-28.737-.385-8.982-.069-11.723.031-13.536.285h0c-4.311.6-4.835,1.088-1.036.8.74-.069,3.606-.1,7.806-.1C510.489,316.92,518.956,316.98,527.85,317.077Zm169.191.211v0c-.005.134.746.275,1.633.281s1.391-.122,1.143-.26a4.591,4.591,0,0,0-1.629-.281h-.049C697.53,317.03,697.045,317.157,697.041,317.289ZM659.872,14.572c13.6.442,22.613.7,28.737.8,8.982.142,11.723-.068,13.536-.595h0c4.311-1.235,4.836-2.249,1.036-1.657-1.774.344-15.773.221-31.034-.12-135.7-2.982-161.186-3.2-166.53-1.051-1.144.448-.9.638,1.5.956,2.768.416,44.9.709,63.457.351,1.012-.021,2.486-.03,4.344-.03C592.068,13.222,641.789,14.033,659.872,14.572ZM500.183,12.5a2.62,2.62,0,0,0,1.629.584c.631.011,1.143-.258,1.147-.536v0c0-.28-.746-.57-1.633-.583h-.063C500.415,11.958,499.941,12.224,500.183,12.5ZM72.5,311.772c-2.763-.021-6.478-.089-11.266-.2h0c-5.171-.13-8.947-.292-8.436-.424A21.168,21.168,0,0,1,56.713,311l12.235.094c5.175-.006,9.459.116,9.706.208.958.327-.283.479-4.43.479Q73.433,311.779,72.5,311.772ZM42.52,310.727c-3.046-.022-6.989-.086-12.267-.2-5.8-.135-9.58-.252-8.19-.331,4.671-.143,25.612.015,26.616.249.625.138.623.229-.266.267-.964.019-2.07.03-3.378.03C44.269,310.738,43.435,310.734,42.52,310.727ZM9,309.71c-1.832.007-3.666-.051-5.478-.174h0c-2.891-.293-.868-.5,3.546-.374,2.14.06,5.3.125,6.933.186a7.683,7.683,0,0,1,2.641.2,58.461,58.461,0,0,1-6,.168C10.1,309.716,9.545,309.713,9,309.71ZM1192.93,29.363c-2.141-.126-5.3-.265-6.934-.388-1.635-.025-2.9-.232-2.641-.414.38-.274,4.17-.388,7.641-.33a37.6,37.6,0,0,1,5.479.356v0c2.3.481,1.49.852-1.158.852C1194.637,29.442,1193.834,29.417,1192.93,29.363Zm-41.608-2.647c-.626-.29-.624-.475.265-.553,1.528-.063,3.412-.076,5.893-.038,3.047.044,6.989.176,12.267.417h0c5.8.28,9.58.523,8.19.688-1.23.078-3.587.113-6.412.113C1163.623,27.344,1152.061,27.072,1151.322,26.717Zm-6.881-1.092a10.3,10.3,0,0,1-1.153-.064l-12.235-.193a63.978,63.978,0,0,1-9.707-.432c-1.079-.76.634-1.063,6.153-.976,2.763.043,6.477.186,11.265.415l0,0c5.17.268,8.947.607,8.436.878a10.352,10.352,0,0,1-2.752.374Z" transform="translate(0.5 0.531)" fill="#000" stroke="rgba(0,0,0,0)" stroke-miterlimit="10" stroke-width="1"/>
</svg>
