<svg xmlns="http://www.w3.org/2000/svg" viewBox="0 0 341 263" preserveAspectRatio="none">
  <path d="M216-2278.029a2.39,2.39,0,0,0-.613-.028c-.1,0-.186.007-.266.006-1.178-.018-2.356-.03-3.534-.043q-1.345-.016-2.689-.028c-.569,0-1.139.015-1.707.019-.392,0-1.053.155-1.386-.025-.225-.121-.525-.641-.212-.786a6.163,6.163,0,0,1,2.077.023l2.3.013q5.924.025,11.848.041,4.718.011,9.436.01,3.652,0,7.3-.02c1.816-.011,3.634-.025,5.45-.052,1.293-.019,2.587-.042,3.878-.08.86-.026,1.723-.057,2.581-.111.522-.031,1.044-.071,1.561-.139.976-.128.766-.179-1.271-.269-2.355-.117-38.205-.2-53.995-.1-8.808.06-58.931-.2-75.985-.373-11.571-.123-19.239-.2-24.451-.224-7.643-.041-9.976.018-11.517.166-1.251.119-2.116.23-2.6.319-1.418.1-2.805.55-4.219.535l-1.877-.019-3.888-.042q-6.39-.068-12.779-.14c-8.692-.1-22.208-.248-30.153-.315-1.285-.01-2.705-.023-4.2-.038q-6.325-.061-12.649-.134l-3.18-.035c-.221,0-.454,0-.69.007a7.8,7.8,0,0,1-1.833-.1c-1.3-.295-2.5-1.475-2.492-2.47.013-1.463.125-2.355.3-2.35.207.005.207-.077,0-.326-.31-.333-.361-2.2-.05-2.193.17.006.184-1.051.007-4.554-.013-.182.006-.962.049-2.106.055-1.425.147-3.415.262-5.531.208-3.735.311-7.557.284-8.37a9.166,9.166,0,0,1,.09-2.279c.181-.807.6-15.923.619-22.188a24.764,24.764,0,0,0-.17-3.829,45.6,45.6,0,0,1-.681-8.481c.076-.651.078-.974-.026-.816-.246.314-.822-8.567-.793-11.823.011-1.22.024-2.6-.007-3.011l.051-5.691c.024-2.684.018-5.694-.042-6.592-.1-2-.143-3.053-.139-3.573a1.337,1.337,0,0,1,.033-.418c.07-.154.351-19.589.637-43.336.511-41.15.609-47.737,1.138-75.3.13-6.587.328-16.829.417-22.85.007-.5.015-1.04.024-1.591q.088-5.57.2-11.142c.035-1.815.026-3.635.108-5.448a3.01,3.01,0,0,1,1.733-2.317c.579-.329,2.531-1.264,2.69-.314a1.02,1.02,0,0,0,.327-.24c.44-.484,2.911-.565,2.893-.077-.005.271,1.387.287,6.012.011.338-.031,2.252.042,4.878.182,1.545.081,3.335.186,5.2.307,4.928.325,9.97.49,11.047.446a10.229,10.229,0,0,1,3.006.142c1.063.282,21.012.933,29.278.967a27.442,27.442,0,0,0,5.055-.273c1.3-.528,9.7-1.36,11.192-1.073.858.119,1.285.123,1.077-.042-.416-.387,11.3-1.29,15.6-1.242,1.608.017,3.434.036,3.974-.012l7.509.082c3.541.039,7.514.027,8.7-.069,2.638-.155,4.03-.225,4.715-.217a1.539,1.539,0,0,1,.552.053c.206.112,25.852.552,57.191,1,54.3.807,62.993.954,99.365,1.783,8.691.2,22.207.512,30.153.652,1.283.022,2.7.049,4.2.08q6.129.122,12.257.266c.5.011,1.13-.012,1.814-.035,2.656-.091,6.169-.181,6.7,1.789.041.148.153,1.452-.17,1.45-.173-.006-.186,1.051-.01,4.554.031.409-.1,3.822-.311,7.637-.021.366-.04.734-.058,1.1-.168,3.356-.251,6.537-.227,7.272a9.212,9.212,0,0,1-.09,2.279c-.18.8-.6,15.922-.618,22.186a24.669,24.669,0,0,0,.17,3.83,45.6,45.6,0,0,1,.68,8.481c-.076.65-.078.974.026.816.247-.314.823,8.566.794,11.823-.012,1.219-.025,2.6.006,3.011l-.051,5.69c-.024,2.685-.017,5.694.043,6.592.1,2,.143,3.054.139,3.573a1.394,1.394,0,0,1-.034.418c-.07.154-.351,19.589-.637,43.336-.51,41.149-.609,47.738-1.138,75.3-.13,6.587-.328,16.829-.417,22.85-.033,2.336-.084,5.224-.139,8.222-.088,4.73-.189,9.741-.265,13.321a1.885,1.885,0,0,1-.18,1.183,7.571,7.571,0,0,1-.942,1.052c-.249.229-.312.24-.7.233-.28,0-.56-.011-.84-.021-.133,0-1.6-.014-1.588-.2.009-.157-.1-.157-.43,0-.438.235-2.91.273-2.893.038.007-.129-1.387-.14-6.01-.006-.34.015-2.254-.02-4.88-.087-1.544-.04-3.335-.091-5.2-.148-4.928-.157-9.971-.237-11.047-.215a21.2,21.2,0,0,1-3.007-.068c-1.063-.137-21.01-.451-29.277-.469-1.687-.032-3.375.011-5.054.128a104.073,104.073,0,0,1-11.193.516c-.858-.058-1.284-.06-1.076.02.415.186-11.3.623-15.6.6-1.61-.009-3.435-.018-3.974,0l-7.51-.039c-3.541-.019-7.514-.013-8.7.032-2.639.075-4.03.108-4.715.105l-.13,0A3.1,3.1,0,0,1,216-2278.029ZM254.3-2279.4h0a3.4,3.4,0,0,0,1.39.164c.754,0,1.184-.072.972-.152a5.507,5.507,0,0,0-1.386-.165h-.037C254.715-2279.554,254.3-2279.479,254.3-2279.4Zm87.727-190.631c-.155,1.784-.264,28.952-.131,40.917.079,6.674-.27,44.657-.491,57.581-.164,8.768-.26,14.58-.3,18.529-.052,5.791.025,7.559.22,8.728h0c.461,2.78.837,3.117.618.668-.128-1.144-.085-10.171.044-20.011,1.111-87.5,1.191-103.932.392-107.377-.064-.276-.113-.427-.156-.427C342.151-2471.424,342.1-2471,342.023-2470.033ZM5.632-2346.517c0,.571.1.9.2.738a2.562,2.562,0,0,0,.217-1.052c0-.407-.1-.736-.2-.739h0C5.745-2347.57,5.637-2347.087,5.632-2346.517ZM342.167-2474.5a2.553,2.553,0,0,0-.217,1.051c0,.407.1.737.2.739h0c.1,0,.212-.48.216-1.052,0-.474-.064-.778-.147-.778C342.2-2474.544,342.185-2474.531,342.167-2474.5ZM227.219-2535.92c11.573.258,19.24.408,24.452.465,7.643.083,9.976-.04,11.518-.347h0c3.667-.721,4.113-1.313.882-.968-1.51.2-13.423.129-26.408-.069-115.465-1.741-137.151-1.871-141.7-.614-.973.262-.765.373,1.273.559,2.355.241,38.205.413,53.995.2.862-.012,2.118-.018,3.7-.018C169.537-2536.708,211.834-2536.235,227.219-2535.92Zm-135.876-1.21a2.925,2.925,0,0,0,1.386.342c.536.006.973-.151.976-.314v0c0-.164-.634-.332-1.389-.339h-.063C91.537-2537.445,91.137-2537.291,91.343-2537.131Zm98.38,258.756c-.111-.158.033-.462.22-.558a2.283,2.283,0,0,1,1.075-.08c.159.012.309.024.434.024.626,0,1.252,0,1.877.007,1.205.011,2.41.032,3.613.038l3.182.018,1.544.007c.12,0,1.273.054,1.273.07-.054.679-.846.672-1.53.667h-.2l-1.814,0q-1.781,0-3.561.009c-1.066,0-2.132,0-3.2-.02-.23,0-.462,0-.692,0s-.461,0-.69,0c-.09,0-.212,0-.347.011s-.26.012-.394.012C190.174-2278.168,189.841-2278.205,189.723-2278.375Zm-4.474.056-1.169-.009-2.382-.018c-.507,0-1.013,0-1.52,0H179.2q-.624,0-1.248-.01a3.085,3.085,0,0,0-.31.016,1.566,1.566,0,0,1-.606-.023c-.273-.1-.254-.467-.167-.673a.061.061,0,0,1,.016-.026,2.158,2.158,0,0,1,.74-.047c.526,0,1.051.059,1.578.063l2.445.016,2.39.014c.556,0,1.089.17,1.644.161.249,0,.379-.087.513.106a.314.314,0,0,1-.078.421.636.636,0,0,1-.284.045C185.626-2278.285,185.373-2278.319,185.249-2278.319Z" transform="translate(-3.5 2540.5)" stroke="rgba(0,0,0,0)" stroke-miterlimit="10" stroke-width="1"/>
</svg>
