<svg xmlns="http://www.w3.org/2000/svg" width="69.8" height="77.9" viewBox="0 0 69.8 77.9">
  <g id="icon-step-3" transform="translate(-27.6 -23.5)">
    <path id="Path_2158" data-name="Path 2158" d="M72.8,79.6A19.872,19.872,0,0,1,66,95.1c-4.5,4.1-10.8,6.1-19,6.1-7.7,0-14.2-1.3-19.4-4V86.1a38.946,38.946,0,0,0,18.9,4.7c4.6,0,8.2-1.1,10.8-3.4a11.179,11.179,0,0,0,3.9-8.8A9.814,9.814,0,0,0,56.9,70Q52.55,67,44,67H39.3V57.2H44A17.951,17.951,0,0,0,54.8,54a10.37,10.37,0,0,0,4.4-8.8q0-5.55-3.6-8.4C53.2,34.9,50,34,45.9,34a28.907,28.907,0,0,0-15.7,4.9V27.7a31.447,31.447,0,0,1,16.1-4.2c7.8,0,13.8,1.9,18.2,5.8a18.411,18.411,0,0,1,6.6,14.5,19.185,19.185,0,0,1-3.1,11A20.11,20.11,0,0,1,58.9,62a18.641,18.641,0,0,1,10.4,6.2A18.217,18.217,0,0,1,72.8,79.6Z" fill="#600"/>
    <path id="Path_2159" data-name="Path 2159" d="M95.1,88a7.637,7.637,0,0,1,2.3,5.5,7.865,7.865,0,0,1-2.3,5.6,7.257,7.257,0,0,1-5.5,2.3A7.537,7.537,0,0,1,84,99.1a7.865,7.865,0,0,1-2.3-5.6A7.472,7.472,0,0,1,84,88a7.846,7.846,0,0,1,11.1,0Z" fill="#600"/>
  </g>
</svg>
