<?xml version="1.0" encoding="utf-8"?>
<!-- Generator: Adobe Illustrator 24.1.2, SVG Export Plug-In . SVG Version: 6.00 Build 0)  -->
<svg version="1.1" id="Layer_1" xmlns="http://www.w3.org/2000/svg" xmlns:xlink="http://www.w3.org/1999/xlink" x="0px" y="0px"
	 viewBox="0 0 200 200" style="enable-background:new 0 0 200 200;" xml:space="preserve">
<style type="text/css">
	.st0{fill:#002F65;}
	.st1{fill:#660000;}
	.st2{fill:#193161;}
	.st3{fill:#2D698A;}
	.st4{fill:#032749;}
	.st5{fill:#035B97;}
	.st6{fill:#002F60;}
</style>
<g id="Group_597_1_" transform="translate(-501.662 51.945)">
	<path id="Path_685_1_" class="st1" d="M665.02,46.7h-19l-0.08-13.58c-0.01-0.79-0.32-1.54-0.88-2.1l-4.77-4.77
		c1.63,0.44,3.31,0.66,5,0.67c10.82,0.03,19.61-8.72,19.64-19.54c0.03-10.82-8.72-19.61-19.54-19.64
		c-10.82-0.03-19.61,8.72-19.64,19.54c0,1.72,0.22,3.43,0.66,5.1L607-7.04c-1.78-1.77-4.18-2.76-6.68-2.77h-27.41
		c-1.85,0.01-3.67,0.49-5.29,1.38v-7.42c-0.01-4.83-3.92-8.75-8.76-8.76H535.8c-4.83,0-8.75,3.92-8.76,8.76v34.6
		c0,4.83,3.92,8.75,8.76,8.76h23.07c4.83-0.01,8.75-3.92,8.76-8.76v-7.42c1.62,0.89,3.44,1.36,5.29,1.38h22l6.37,6.37l-26.76,26.76
		c-0.93,0.93-1.65,2.04-2.11,3.27l-41.75,40.6c-5.01,5.08-4.96,13.26,0.12,18.27c5.03,4.97,13.12,4.97,18.15,0l37.19-37.19
		l12.99,12.99l-17.7,17.7c-4.4,4.4-4.4,11.53,0,15.93c4.4,4.4,11.53,4.4,15.93,0l0,0l25.66-25.66c4.4-4.39,4.4-11.52,0.01-15.91
		c0,0-0.01-0.01-0.01-0.01l-12-12.01l12.44-12.44v8.39c0,5.21,4.22,9.45,9.43,9.45c0.01,0,0.01,0,0.02,0h32.15
		c6.22,0.06,11.31-4.94,11.37-11.16c0.06-6.22-4.94-11.31-11.16-11.37C665.16,46.7,665.09,46.7,665.02,46.7L665.02,46.7z
		 M635.71-2.19c5.3-5.3,13.88-5.3,19.18,0s5.3,13.88,0,19.18c-5.3,5.3-13.88,5.3-19.18,0c-2.54-2.54-3.97-5.99-3.97-9.59
		C631.73,3.8,633.16,0.35,635.71-2.19L635.71-2.19z M561.65,18.76c0,1.53-1.24,2.78-2.78,2.78H535.8c-1.53,0-2.78-1.25-2.78-2.78
		v-34.6c0-1.53,1.25-2.78,2.78-2.78h23.07c1.53,0,2.78,1.25,2.78,2.78V18.76z M544.7,103.77c-2.75,2.61-7.06,2.61-9.82,0
		c-2.69-2.71-2.7-7.07-0.03-9.79l38.06-37.01c0.42,0.82,0.96,1.58,1.61,2.25l7.36,7.36L544.7,103.77z M665.02,63.25h-32.15
		c-1.92,0-3.47-1.55-3.47-3.46c0,0,0,0,0,0l0,0V44.17c0-1.65-1.34-2.99-2.99-2.99c-0.79,0-1.55,0.31-2.11,0.87l-19.65,19.65
		c-1.17,1.17-1.17,3.06,0,4.23l14.12,14.12c2.06,2.06,2.07,5.4,0.01,7.47c0,0-0.01,0.01-0.01,0.01l-25.66,25.66
		c-2.09,2-5.38,2-7.47,0c-2.06-2.07-2.06-5.41,0-7.48l19.81-19.81c1.17-1.16,1.17-3.05,0-4.22c0,0,0,0,0,0L588.5,64.75l-9.04-15.37
		l28.16-28.16c1.17-1.17,1.17-3.06,0-4.23l-9.36-9.36c-0.56-0.56-1.32-0.88-2.11-0.88h-23.23c-2.92,0-5.29-2.37-5.29-5.29
		c0-2.92,2.37-5.29,5.29-5.29l0,0h27.41c0.92,0,1.8,0.37,2.46,1.02l37.19,37.19l0.09,15.32c0.01,1.64,1.34,2.97,2.99,2.97h21.97
		c2.92,0,5.29,2.36,5.29,5.28s-2.36,5.29-5.28,5.29C665.03,63.25,665.02,63.25,665.02,63.25L665.02,63.25z"/>
	<path id="Path_686_1_" class="st1" d="M552.9,42.61c1.71-0.14,3.01-1.58,2.99-3.29c0-1.65-1.33-2.99-2.98-2.99c0,0,0,0-0.01,0
		h-11.12c-1.7,0.14-3.01,1.58-2.99,3.29c0,1.65,1.34,2.99,2.99,2.99c0,0,0,0,0,0H552.9z"/>
	<path id="Path_687_1_" class="st1" d="M532.82,51.57c0,1.65,1.34,2.99,2.99,2.99c0,0,0,0,0,0h5.14c1.71-0.14,3.01-1.58,2.99-3.29
		c0-1.65-1.33-2.99-2.98-2.99c0,0,0,0-0.01,0h-5.14C534.1,48.42,532.79,49.86,532.82,51.57z"/>
</g>
</svg>
