<?xml version="1.0" encoding="utf-8"?>
<!-- Generator: Adobe Illustrator 24.1.2, SVG Export Plug-In . SVG Version: 6.00 Build 0)  -->
<svg version="1.1" id="Layer_1" xmlns="http://www.w3.org/2000/svg" xmlns:xlink="http://www.w3.org/1999/xlink" x="0px" y="0px"
	 viewBox="0 0 200 200" style="enable-background:new 0 0 200 200;" xml:space="preserve">
<style type="text/css">
	.st0{fill:#002F65;}
	.st1{fill:#660000;}
	.st2{fill:#193161;}
	.st3{fill:#2D698A;}
	.st4{fill:#032749;}
	.st5{fill:#035B97;}
	.st6{fill:#002F60;}
</style>
<g id="Group_600_1_" transform="translate(-142 314.072)">
	<g id="Group_598_1_" transform="translate(142 474.928)">
		<path id="Path_688_1_" class="st1" d="M74.65-613.56c-4.23,0-8.23-1.93-10.86-5.25c-4.76,6-13.49,7.01-19.49,2.24
			c-3.32-2.63-5.25-6.64-5.25-10.87v-30.65c-8.63-2.89-14.45-10.95-14.48-20.05v-25.35c0.01-11.66,9.46-21.11,21.12-21.12h8.31
			c-10.33-5.41-14.32-18.18-8.91-28.51c5.41-10.33,18.18-14.32,28.51-8.91s14.32,18.18,8.91,28.51c-1.99,3.81-5.1,6.92-8.91,8.91
			h8.31c11.66,0.01,21.11,9.46,21.12,21.12v25.35c-0.03,9.1-5.86,17.16-14.48,20.05v30.65C88.53-619.77,82.32-613.57,74.65-613.56z
			 M66.81-627.44c0.05,4.33,3.6,7.81,7.93,7.76c4.26-0.05,7.71-3.49,7.76-7.76v-76.04c0.03-1.67,1.41-2.99,3.07-2.96
			c1.62,0.03,2.93,1.34,2.96,2.96v38.89c5.16-2.55,8.43-7.79,8.45-13.54v-25.35c-0.01-8.33-6.76-15.07-15.09-15.08H45.69
			c-8.33,0.01-15.08,6.76-15.09,15.09v25.35c0.02,5.75,3.29,11,8.45,13.54v-38.9c0.03-1.67,1.41-2.99,3.07-2.96
			c1.62,0.03,2.93,1.34,2.96,2.96v76.04c0.05,4.33,3.6,7.81,7.93,7.76c4.26-0.05,7.71-3.49,7.76-7.76v-32.59
			c-0.03-1.67,1.3-3.04,2.96-3.07s3.04,1.3,3.07,2.96c0,0.04,0,0.07,0,0.11L66.81-627.44z M63.79-758.4
			c-8.33,0-15.09,6.76-15.09,15.09c0,8.33,6.76,15.09,15.09,15.09s15.09-6.76,15.09-15.09C78.87-751.64,72.12-758.39,63.79-758.4
			L63.79-758.4z"/>
	</g>
	<g id="Group_599_1_" transform="translate(209.932 514.874)">
		<path id="Path_689_1_" class="st1" d="M30.45-653.5c-3.25-0.01-5.88-2.64-5.88-5.89c0-2.93,2.17-5.42,5.08-5.82
			c21.09-9.93,34.56-31.12,34.61-54.43v-6.04H59c-3.12,0-5.65-2.53-5.65-5.65c0-1.22,0.4-2.41,1.13-3.39l21.46-27.61
			c2.06-2.48,5.74-2.81,8.21-0.75c0.29,0.24,0.55,0.5,0.79,0.79l21.4,27.53l0.03,0.04c1.87,2.5,1.36,6.04-1.14,7.91
			c-0.98,0.73-2.16,1.13-3.38,1.13H96.6v6.04C96.55-683.13,66.96-653.54,30.45-653.5z M31.9-659.6c-0.43,0.23-0.9,0.36-1.38,0.37
			c33.17-0.32,59.93-27.23,60.05-60.41v-9.06c0-1.67,1.35-3.02,3.02-3.02l0,0h7.49l-20.64-26.55l-20.64,26.55h7.49l0,0
			c1.67,0,3.02,1.35,3.02,3.02v9.06C70.24-693.87,55.27-670.46,31.9-659.6L31.9-659.6z M30.45-662.26L30.45-662.26z M80.15-758.62
			L80.15-758.62z M80.74-758.67L80.74-758.67L80.74-758.67z"/>
	</g>
</g>
</svg>
