<svg id="Group_25" data-name="Group 25" xmlns="http://www.w3.org/2000/svg" width="99.954" height="103.018" viewBox="0 0 99.954 103.018">
  <g id="Group_21" data-name="Group 21" transform="translate(0 53.039)">
    <g id="Group_19" data-name="Group 19" transform="translate(12.507)">
      <path id="Path_63" data-name="Path 63" d="M374.273,663.093a2.187,2.187,0,0,1-1.482-.615l-19.943-19.945a2.168,2.168,0,0,1,0-2.964c3.687-3.693,11.377-9.886,21.425-9.886a26,26,0,0,1,11.982,2.678H410.2a8.113,8.113,0,0,1,7.094,4.128l8.522-8.521a8.087,8.087,0,0,1,5.756-2.381h0a8.142,8.142,0,0,1,5.754,13.9l-17.093,17.093a14.1,14.1,0,0,1-10.031,4.154H379.973a5.93,5.93,0,0,0-4.218,1.749A2.195,2.195,0,0,1,374.273,663.093Zm-16.933-22,17.085,17.089a10.109,10.109,0,0,1,5.548-1.646H410.2a9.936,9.936,0,0,0,7.066-2.926l17.1-17.1a3.966,3.966,0,0,0,0-5.584,3.959,3.959,0,0,0-5.582,0l-10.489,10.491a8.165,8.165,0,0,1-8.09,7.221H394.438a2.1,2.1,0,1,1,0-4.194H410.2a3.947,3.947,0,1,0,0-7.894h-24.43a2.195,2.195,0,0,1-.831-.172,21.909,21.909,0,0,0-10.67-2.506C366.91,633.878,360.907,637.928,357.34,641.1Z" transform="translate(-352.263 -625.588)" fill="#600"/>
    </g>
    <g id="Group_20" data-name="Group 20" transform="translate(0 12.287)">
      <path id="Path_64" data-name="Path 64" d="M371.972,669.433a6,6,0,0,1-4.262-1.763l-19.945-19.945a6.027,6.027,0,0,1,0-8.524l5.7-5.7a6.029,6.029,0,0,1,8.524,0l19.943,19.943a6.033,6.033,0,0,1,0,8.524l-5.7,5.7A6.014,6.014,0,0,1,371.972,669.433Zm-14.247-33.7a2.033,2.033,0,0,0-1.438.6l-5.7,5.7a2.03,2.03,0,0,0,0,2.872l19.945,19.947a2.036,2.036,0,0,0,2.876,0l5.7-5.7h0a2.036,2.036,0,0,0,0-2.876l-19.943-19.943A2.03,2.03,0,0,0,357.725,635.734Z" transform="translate(-346 -631.741)" fill="#600"/>
    </g>
  </g>
  <g id="Group_24" data-name="Group 24" transform="translate(30.254 0)">
    <g id="Group_22" data-name="Group 22">
      <path id="Path_65" data-name="Path 65" d="M387.111,650.954a25.962,25.962,0,1,1,25.962-25.962A25.992,25.992,0,0,1,387.111,650.954Zm0-47.93a21.968,21.968,0,1,0,21.968,21.968A21.994,21.994,0,0,0,387.111,603.024Z" transform="translate(-361.149 -599.03)" fill="#600"/>
    </g>
    <g id="Group_23" data-name="Group 23" transform="translate(16.933 9.488)">
      <path id="Path_66" data-name="Path 66" d="M378.655,636.731a2.169,2.169,0,0,1-2.095-2.1v-1.706c-4.014-.789-6.932-3.786-6.932-7.433a2.1,2.1,0,0,1,4.194,0c0,1.869,2.213,3.449,4.833,3.449s4.837-1.58,4.837-3.449c0-1.55-1.6-2.994-3.735-3.357l-2.886-.651c-3.788-.643-6.614-3.585-6.614-6.974,0-3.361,2.646-6.135,6.3-6.912v-1.724a2.1,2.1,0,1,1,4.192,0V607.6c3.659.779,6.3,3.553,6.3,6.914a2.1,2.1,0,1,1-4.192,0c0-1.6-1.927-2.944-4.208-2.944s-4.2,1.346-4.2,2.944c0,1.316,1.392,2.548,3.239,2.864l2.884.651c4.076.693,7.112,3.842,7.112,7.467,0,3.647-2.92,6.644-6.934,7.433v1.706A2.17,2.17,0,0,1,378.655,636.731Z" transform="translate(-369.628 -603.781)" fill="#600"/>
    </g>
  </g>
</svg>
