<svg xmlns="http://www.w3.org/2000/svg" width="119.702" height="120" viewBox="0 0 119.702 120">
  <g id="icon-financial-aid-scholarship" transform="translate(-2.7 -2.5)">
    <path id="Path_2148" data-name="Path 2148" d="M23.1,47.5h78.7a1.9,1.9,0,0,0,1.9-1.9V4.4a1.9,1.9,0,0,0-1.9-1.9H23.1a1.9,1.9,0,0,0-1.9,1.9V45.6A1.965,1.965,0,0,0,23.1,47.5ZM25,6.3h75V43.8H25Z" fill="#600"/>
    <path id="Path_2149" data-name="Path 2149" d="M34.4,10l-5.6,5.6V34.3l5.6,5.6H90.6l5.6-5.6V15.6L90.6,10ZM92.5,32.8l-3.4,3.4H35.9l-3.4-3.4V17.2l3.4-3.4H89l3.4,3.4V32.8Z" fill="#600"/>
    <path id="Path_2150" data-name="Path 2150" d="M62.5,13.8A11.2,11.2,0,1,0,73.7,25,11.267,11.267,0,0,0,62.5,13.8Zm0,18.7A7.5,7.5,0,1,1,70,25,7.555,7.555,0,0,1,62.5,32.5Z" fill="#600"/>
    <rect id="Rectangle_77" data-name="Rectangle 77" width="3.8" height="3.7" transform="translate(38.1 23.1)" fill="#600"/>
    <rect id="Rectangle_78" data-name="Rectangle 78" width="3.8" height="3.7" transform="translate(83.1 23.1)" fill="#600"/>
    <path id="Path_2151" data-name="Path 2151" d="M47.5,94.4c0-.3,0-6.5-4.3-10.7L23.9,64.4H21.2a7.141,7.141,0,0,0-4.9,1.9,7.441,7.441,0,0,0-2.6,5.6v2.7L27.4,88.3l2.7-2.7L17.5,73V71.9a3.8,3.8,0,0,1,3.8-3.8h1.1L40.6,86.3c3.1,3.1,3.2,8,3.2,8v13.1H26.9v-1.9c0-.2,0-4.6-4.3-8.8L9.5,83.7c-3.1-3.1-3.2-6.1-3.2-6.2v-30a3.8,3.8,0,0,1,7.6,0v15h3.8v-15A7.555,7.555,0,0,0,10.2,40a7.555,7.555,0,0,0-7.5,7.5v30c0,.2,0,4.6,4.3,8.8L20.1,99.4c3.1,3.1,3.2,6.1,3.2,6.2v1.9H19.5v15H51.4v-15H47.6V94.4Zm0,24.3H23.1v-7.5H47.5Z" fill="#600"/>
    <path id="Path_2152" data-name="Path 2152" d="M115,40a7.555,7.555,0,0,0-7.5,7.5v15h3.8v-15a3.8,3.8,0,0,1,7.6,0v30c0,.1-.1,3.1-3.2,6.2L102.6,96.8a13.633,13.633,0,0,0-4.3,8.8v1.9H81.2V94.4s.1-4.9,3.2-8.1l18.2-18.2h1.1a3.8,3.8,0,0,1,3.8,3.8V73L94.9,85.5l2.7,2.7,13.7-13.7V71.8a7.441,7.441,0,0,0-2.6-5.6,7.141,7.141,0,0,0-4.9-1.9h-2.7L81.8,83.7c-4.3,4.2-4.3,10.4-4.3,10.7v13.1H73.7v15h31.9v-15h-3.8v-1.9c0-.1.1-3.1,3.2-6.2l13.1-13.1c4.3-4.2,4.3-8.6,4.3-8.8v-30A7.4,7.4,0,0,0,115,40Zm-13.1,78.7H77.5v-7.5h24.4Z" fill="#600"/>
  </g>
</svg>
