<?xml version="1.0" encoding="utf-8"?>
<!-- Generator: Adobe Illustrator 25.0.1, SVG Export Plug-In . SVG Version: 6.00 Build 0)  -->
<svg version="1.1" id="Layer_1" xmlns="http://www.w3.org/2000/svg" xmlns:xlink="http://www.w3.org/1999/xlink" x="0px" y="0px"
	 viewBox="0 0 99.2 98.7" style="enable-background:new 0 0 99.2 98.7;" xml:space="preserve">
<style type="text/css">
	.st0{fill:#660000;}
</style>
<g>
	<path class="st0" d="M34.2,50.9c-7.6,0-13.8,6.2-13.8,13.8c0,7.6,6.2,13.8,13.8,13.8c7.6,0,13.8-6.2,13.8-13.8
		C48,57.1,41.8,50.9,34.2,50.9z M34.2,75c-5.7,0-10.3-4.6-10.3-10.3c0-5.7,4.6-10.3,10.3-10.3s10.3,4.6,10.3,10.3
		C44.5,70.4,39.8,75,34.2,75z"/>
	<path class="st0" d="M64.8,57.9l-5.9-0.8c-0.5-1.5-1.1-3-1.8-4.4l3.6-4.8c0.5-0.6,0.5-1.5,0-2.1c-2.1-2.9-4.6-5.4-7.5-7.5
		c-0.6-0.5-1.5-0.4-2.1,0l-4.8,3.6c-1.4-0.7-2.9-1.4-4.4-1.8L41,34.1c-0.1-0.8-0.7-1.4-1.5-1.5c-3.6-0.6-7.1-0.6-10.6,0
		c-0.8,0.1-1.4,0.7-1.5,1.5L26.5,40c-1.5,0.5-3,1.1-4.4,1.8l-4.8-3.6c-0.6-0.5-1.5-0.5-2.1,0c-2.9,2.1-5.4,4.6-7.5,7.5
		c-0.5,0.6-0.4,1.5,0,2.1l3.6,4.8c-0.7,1.4-1.4,2.9-1.8,4.4l-5.9,0.8C2.8,58,2.1,58.6,2,59.4c-0.3,1.8-0.4,3.6-0.4,5.3
		c0,1.8,0.1,3.6,0.4,5.3c0.1,0.8,0.7,1.4,1.5,1.5l5.9,0.8c0.5,1.5,1.1,3,1.8,4.4l-3.6,4.8c-0.5,0.6-0.5,1.5,0,2.1
		c2.1,2.9,4.6,5.4,7.5,7.5c0.6,0.5,1.5,0.4,2.1,0l4.8-3.6c1.4,0.7,2.9,1.4,4.4,1.8l0.8,5.9c0.1,0.8,0.7,1.4,1.5,1.5
		c1.8,0.3,3.6,0.4,5.3,0.4c1.8,0,3.6-0.1,5.3-0.4c0.8-0.1,1.4-0.7,1.5-1.5l0.8-5.9c1.5-0.5,3-1.1,4.4-1.8l4.8,3.6
		c0.6,0.5,1.5,0.5,2.1,0c2.9-2.1,5.4-4.6,7.5-7.5c0.5-0.6,0.4-1.5,0-2.1l-3.6-4.8c0.7-1.4,1.4-2.9,1.8-4.4l5.9-0.8
		c0.8-0.1,1.4-0.7,1.5-1.5c0.3-1.8,0.4-3.6,0.4-5.3c0-1.8-0.1-3.5-0.4-5.3C66.2,58.6,65.6,58,64.8,57.9z M63,68.2L57.2,69
		c-0.7,0.1-1.3,0.6-1.5,1.3c-0.5,2-1.3,3.9-2.4,5.7c-0.4,0.6-0.3,1.4,0.1,2l3.5,4.6c-1.4,1.8-3.1,3.5-4.9,4.9l-4.6-3.5
		c-0.6-0.4-1.4-0.5-2-0.1c-1.8,1-3.7,1.8-5.7,2.4c-0.7,0.2-1.2,0.8-1.3,1.5l-0.8,5.8c-2.3,0.3-4.6,0.3-6.9,0l-0.8-5.8
		c-0.1-0.7-0.6-1.3-1.3-1.5c-2-0.5-3.9-1.3-5.7-2.4c-0.6-0.4-1.4-0.3-2,0.1l-4.6,3.5c-1.8-1.4-3.5-3.1-4.9-4.9l3.5-4.6
		c0.4-0.6,0.5-1.4,0.1-2c-1-1.8-1.8-3.7-2.4-5.7c-0.2-0.7-0.8-1.2-1.5-1.3l-5.8-0.8c-0.1-1.2-0.2-2.3-0.2-3.5c0-1.1,0.1-2.3,0.2-3.5
		l5.8-0.8c0.7-0.1,1.3-0.6,1.5-1.3c0.5-2,1.3-3.9,2.4-5.7c0.4-0.6,0.3-1.4-0.1-2l-3.5-4.6c1.4-1.8,3.1-3.5,4.9-4.9l4.6,3.5
		c0.6,0.4,1.4,0.5,2,0.1c1.8-1,3.7-1.8,5.7-2.4c0.7-0.2,1.2-0.8,1.3-1.5l0.8-5.8c2.3-0.3,4.6-0.3,6.9,0l0.8,5.8
		c0.1,0.7,0.6,1.3,1.3,1.5c2,0.5,3.9,1.3,5.7,2.4c0.6,0.4,1.4,0.3,2-0.1l4.6-3.5c1.8,1.4,3.5,3.1,4.9,4.9l-3.5,4.6
		c-0.4,0.6-0.5,1.4-0.1,2c1,1.8,1.8,3.7,2.4,5.7c0.2,0.7,0.8,1.2,1.5,1.3l5.8,0.8c0.1,1.2,0.2,2.3,0.2,3.5
		C63.2,65.9,63.1,67,63,68.2z"/>
	<path class="st0" d="M93.6,26.3c0.1-0.9,0.2-1.8,0.2-2.6c0-0.9-0.1-1.8-0.2-2.6l3.3-2.6c0.6-0.5,0.8-1.3,0.6-2
		c-0.9-2.8-2.4-5.3-4.3-7.5c-0.5-0.6-1.3-0.8-2-0.5l-3.9,1.6c-1.4-1.1-2.9-2-4.6-2.7l-0.6-4.2c-0.1-0.7-0.7-1.3-1.4-1.5
		c-2.9-0.6-5.8-0.6-8.6,0c-0.7,0.1-1.3,0.7-1.4,1.5l-0.6,4.2c-1.6,0.6-3.2,1.5-4.6,2.7l-3.9-1.6c-0.7-0.3-1.5-0.1-2,0.5
		c-1.9,2.2-3.4,4.7-4.3,7.5c-0.2,0.7,0,1.5,0.6,2l3.3,2.6c-0.1,0.9-0.2,1.8-0.2,2.6c0,0.9,0.1,1.8,0.2,2.6l-3.3,2.6
		c-0.6,0.5-0.8,1.3-0.6,2c0.9,2.8,2.4,5.3,4.3,7.5c0.5,0.6,1.3,0.8,2,0.5l3.9-1.6c1.4,1.1,2.9,2,4.6,2.7l0.6,4.2
		c0.1,0.7,0.7,1.3,1.4,1.5c1.4,0.3,2.9,0.4,4.3,0.4c1.4,0,2.9-0.1,4.3-0.4c0.7-0.1,1.3-0.7,1.4-1.5l0.6-4.2c1.6-0.6,3.2-1.5,4.6-2.7
		l3.9,1.6c0.7,0.3,1.5,0.1,2-0.5c1.9-2.2,3.4-4.7,4.3-7.5c0.2-0.7,0-1.5-0.6-2L93.6,26.3z M91.3,35l-3.7-1.5
		c-0.6-0.3-1.4-0.1-1.9,0.3c-1.5,1.4-3.3,2.4-5.2,3c-0.7,0.2-1.1,0.8-1.2,1.4l-0.6,3.9c-1.6,0.2-3.2,0.2-4.8,0l-0.6-3.9
		c-0.1-0.7-0.6-1.2-1.2-1.4c-1.9-0.6-3.6-1.6-5.2-3c-0.5-0.5-1.2-0.6-1.9-0.3L61.5,35c-1-1.3-1.8-2.7-2.4-4.1l3-2.4
		c0.5-0.3,0.8-0.9,0.8-1.5c0-0.1,0-0.3,0-0.4c-0.2-1-0.3-2-0.3-3c0-1,0.1-2,0.3-3c0.1-0.7-0.1-1.4-0.6-1.8l-3.1-2.5
		c0.6-1.5,1.4-2.9,2.4-4.1l3.7,1.5c0.6,0.3,1.4,0.1,1.9-0.3c1.5-1.4,3.3-2.4,5.2-3c0.7-0.2,1.1-0.8,1.2-1.4L74,5
		c1.6-0.2,3.2-0.2,4.8,0L79.3,9c0.1,0.7,0.6,1.2,1.2,1.4c1.9,0.6,3.7,1.6,5.2,3c0.5,0.5,1.2,0.6,1.9,0.3l3.7-1.5
		c1,1.3,1.8,2.7,2.4,4.1l-3.1,2.4c-0.5,0.4-0.8,1.1-0.6,1.8c0.2,1,0.3,2,0.3,3c0,1-0.1,2-0.3,3c-0.1,0.7,0.1,1.4,0.6,1.8l3.1,2.4
		C93.1,32.4,92.3,33.7,91.3,35z"/>
	<path class="st0" d="M76.4,14c-5.3,0-9.6,4.3-9.6,9.6s4.3,9.6,9.6,9.6c5.3,0,9.6-4.3,9.6-9.6S81.7,14,76.4,14z M76.4,29.7
		c-3.3,0-6-2.7-6-6s2.7-6,6-6s6,2.7,6,6S79.7,29.7,76.4,29.7z"/>
</g>
</svg>
