<?xml version="1.0" encoding="utf-8"?>
<!-- Generator: Adobe Illustrator 25.0.0, SVG Export Plug-In . SVG Version: 6.00 Build 0)  -->
<svg version="1.1" id="Layer_1" xmlns="http://www.w3.org/2000/svg" xmlns:xlink="http://www.w3.org/1999/xlink" x="0px" y="0px"
	 viewBox="0 0 200 200" style="enable-background:new 0 0 200 200;" xml:space="preserve">
<style type="text/css">
	.st0{fill:#660000;}
</style>
<g>
	<g>
		<g>
			<path class="st0" d="M77.5,156.8c-0.8,0-1.7-0.4-2.2-0.9l-29-29c-1.1-1.1-1.1-3.2,0-4.3c5.4-5.4,16.6-14.4,31.2-14.4
				c8,0,13.1,1.8,17.4,3.9h34.9c4.4,0,8.3,2.4,10.3,6l12.4-12.4c2.2-2.2,5.2-3.5,8.4-3.5l0,0c3.2,0,6.1,1.2,8.4,3.5
				c2.2,2.2,3.5,5.2,3.5,8.4s-1.2,6.2-3.5,8.4l-24.9,24.9c-3.9,3.9-9.1,6-14.6,6h-44c-2.3,0-4.5,0.9-6.1,2.5
				C79.1,156.5,78.3,156.8,77.5,156.8z M52.8,124.8l24.9,24.9c2.4-1.6,5.2-2.4,8.1-2.4h44c3.9,0,7.5-1.5,10.3-4.3l24.9-24.9
				c1.1-1.1,1.7-2.5,1.7-4.1s-0.6-3-1.7-4.1c-2.2-2.2-5.9-2.2-8.1,0l-15.3,15.3c-0.7,5.9-5.7,10.5-11.8,10.5h-23
				c-1.6,0-3.1-1.4-3.1-3.1s1.4-3.1,3.1-3.1h23c3.2,0,5.7-2.6,5.7-5.7c0-3.2-2.6-5.8-5.7-5.8H94.2c-0.4,0-0.8-0.1-1.2-0.2
				c-4.7-2.3-8.8-3.6-15.5-3.6C66.8,114.3,58,120.2,52.8,124.8z"/>
		</g>
		<g>
			<path class="st0" d="M65,175c-2.2,0-4.5-0.9-6.2-2.6l-29-29c-3.4-3.4-3.4-9,0-12.4l8.3-8.3c3.4-3.4,9-3.4,12.4,0l29,29
				c1.7,1.7,2.6,3.9,2.6,6.2c0,2.3-0.9,4.5-2.6,6.2l-8.3,8.3C69.5,174.1,67.3,175,65,175z M44.3,125.9c-0.8,0-1.5,0.3-2.1,0.9
				l-8.3,8.3c-1.2,1.2-1.2,3,0,4.2l29,29c1.2,1.2,3,1.2,4.2,0l8.3-8.3l0,0c0.6-0.6,0.9-1.3,0.9-2.1c0-0.8-0.3-1.5-0.9-2.1l-29-29
				C45.8,126.2,45.1,125.9,44.3,125.9z"/>
		</g>
	</g>
	<g>
		<g>
			<path class="st0" d="M109.1,100.6c-20.8,0-37.8-17-37.8-37.8S88.2,25,109.1,25c20.8,0,37.8,17,37.8,37.8S129.9,100.6,109.1,100.6
				z M109.1,30.8c-17.6,0-32,14.3-32,32s14.4,32,32,32s32-14.3,32-32S126.7,30.8,109.1,30.8z"/>
		</g>
		<g>
			<path class="st0" d="M109.1,86.8c-1.6,0-3.1-1.4-3.1-3.1v-2.5c-5.8-1.1-10.1-5.5-10.1-10.8c0-1.6,1.4-3.1,3.1-3.1
				s3.1,1.4,3.1,3.1c0,2.7,3.2,5,7,5s7-2.3,7-5c0-2.3-2.3-4.4-5.4-4.9l-4.2-0.9c-5.5-0.9-9.6-5.2-9.6-10.2c0-4.9,3.9-8.9,9.2-10.1
				v-2.5c0-1.6,1.4-3.1,3.1-3.1s3.1,1.4,3.1,3.1v2.5c5.3,1.1,9.2,5.2,9.2,10.1c0,1.6-1.4,3.1-3.1,3.1s-3.1-1.4-3.1-3.1
				c0-2.3-2.8-4.3-6.1-4.3s-6.1,2-6.1,4.3c0,1.9,2,3.7,4.7,4.2l4.2,0.9c5.9,1,10.4,5.6,10.4,10.9c0,5.3-4.3,9.7-10.1,10.8v2.5
				C112.1,85.3,110.7,86.8,109.1,86.8z"/>
		</g>
	</g>
</g>
</svg>
