<?xml version="1.0" encoding="utf-8"?>
<!-- Generator: Adobe Illustrator 25.0.1, SVG Export Plug-In . SVG Version: 6.00 Build 0)  -->
<svg version="1.1" id="Layer_1" xmlns="http://www.w3.org/2000/svg" xmlns:xlink="http://www.w3.org/1999/xlink" x="0px" y="0px"
	 viewBox="0 0 99.2 98.7" style="enable-background:new 0 0 99.2 98.7;" xml:space="preserve">
<style type="text/css">
	.st0{display:none;}
	.st1{display:inline;fill:#660000;}
	.st2{fill:#660000;}
	.st3{fill:#FFFFFF;}
</style>
<g class="st0">
	<path class="st1" d="M96.2,15.3H36.8l-5.5-5.4c-0.3-0.3-0.8-0.5-1.2-0.5H3c-1,0-1.8,0.8-1.8,1.8v23.5v52.8c0,1,0.8,1.8,1.8,1.8
		h93.2c1,0,1.8-0.8,1.8-1.8V28.8V17.1C97.9,16.1,97.2,15.3,96.2,15.3z M29.3,12.9l5.5,5.4c0.3,0.3,0.8,0.5,1.2,0.5h58.4v8.2h-5.8
		H36.1c-0.5,0-0.9,0.2-1.2,0.5l-5.5,5.4H10.5H4.8v-20H29.3z M4.8,85.8v-5.6V36.4h25.3c0.5,0,0.9-0.2,1.2-0.5l5.5-5.4h57.7v49.6v5.6
		H4.8z"/>
	<path class="st1" d="M61.6,35.9c-1,0-1.8,0.8-1.8,1.8s0.8,1.8,1.8,1.8h27.1c1,0,1.8-0.8,1.8-1.8s-0.8-1.8-1.8-1.8H61.6z"/>
	<path class="st1" d="M88.7,41.7H61.6c-1,0-1.8,0.8-1.8,1.8s0.8,1.8,1.8,1.8h27.1c1,0,1.8-0.8,1.8-1.8S89.6,41.7,88.7,41.7z"/>
	<path class="st1" d="M13.5,41.7h-3c-1,0-1.8,0.8-1.8,1.8s0.8,1.8,1.8,1.8h3c1,0,1.8-0.8,1.8-1.8S14.5,41.7,13.5,41.7z"/>
	<path class="st1" d="M25.6,41.7h-3c-1,0-1.8,0.8-1.8,1.8s0.8,1.8,1.8,1.8h3c1,0,1.8-0.8,1.8-1.8S26.5,41.7,25.6,41.7z"/>
</g>
<g>
	<path class="st2" d="M9.4,41.2l10.5,7.3c0,0,0,0,0,0c0.1,0.1,0.3,0.2,0.4,0.2c0,0,0.1,0,0.1,0c0.1,0,0.3,0.1,0.5,0.1s0.3,0,0.5-0.1
		c0,0,0.1,0,0.1,0c0.2-0.1,0.3-0.1,0.4-0.2c0,0,0,0,0,0l10.5-7.3c0.8-0.6,1-1.6,0.4-2.4c-0.6-0.8-1.6-1-2.4-0.4l-7.8,5.4V29.5
		c0-4.7,3.9-8.5,8.8-8.5H60c1,0,1.8-0.8,1.8-1.8S61,17.5,60,17.5H31.5c-6.8,0-12.3,5.4-12.3,12v14.3l-7.8-5.4
		C10.6,37.8,9.5,38,9,38.8C8.4,39.6,8.6,40.7,9.4,41.2z"/>
	<path class="st2" d="M92.6,56l-10.5-7.3c0,0,0,0,0,0c-0.1-0.1-0.3-0.2-0.4-0.2c0,0-0.1,0-0.1,0c-0.1,0-0.3-0.1-0.5-0.1c0,0,0,0,0,0
		c-0.2,0-0.3,0-0.5,0.1c0,0-0.1,0-0.1,0c-0.2,0.1-0.3,0.1-0.4,0.2c0,0,0,0,0,0L69.5,56c-0.8,0.6-1,1.6-0.4,2.4
		c0.6,0.8,1.6,1,2.4,0.4l7.8-5.4v14.3c0,4.7-3.9,8.5-8.8,8.5H42c-1,0-1.8,0.8-1.8,1.8s0.8,1.8,1.8,1.8h28.6c6.8,0,12.3-5.4,12.3-12
		V53.4l7.8,5.4c0.3,0.2,0.7,0.3,1,0.3c0.6,0,1.1-0.3,1.4-0.7C93.6,57.6,93.4,56.5,92.6,56z"/>
	<path class="st2" d="M64.2,58.9v-2.9c0-0.6-0.3-1.2-0.9-1.5l-8.8-4.9c1.4-2,2.2-4.6,2.2-7.5c0-4.6-1.1-9.8-9.3-9.8
		c-8.2,0-9.3,5.2-9.3,9.8c0,2.9,0.8,5.5,2.2,7.5l-8.8,4.9c-0.6,0.3-0.9,0.9-0.9,1.5v2.9c0,3.3,2.2,6.2,4.8,6.2h24
		C62,65,64.2,62.2,64.2,58.9z M34.2,58.9V57l8.9-5c1.3,0.8,2.8,1.3,4.4,1.3c1.6,0,3.1-0.5,4.4-1.3l8.9,5v1.9c0,1.7-0.9,2.6-1.3,2.7
		h-24C35.1,61.5,34.2,60.6,34.2,58.9z M47.4,35.7c4.4,0,5.8,1.5,5.8,6.3c0,3.8-2,7.8-5.8,7.8s-5.8-4-5.8-7.8
		C41.7,37.2,43,35.7,47.4,35.7z"/>
	<path class="st2" d="M33.3,81.5l-8.8-4.9c1.4-2,2.2-4.6,2.2-7.5c0-4.6-1.1-9.8-9.3-9.8c-8.2,0-9.3,5.2-9.3,9.8
		c0,2.9,0.8,5.5,2.2,7.5l-8.8,4.9c-0.6,0.3-0.9,0.9-0.9,1.5v2.9c0,3.3,2.2,6.2,4.8,6.2h24c2.6,0,4.8-2.8,4.8-6.2V83
		C34.2,82.4,33.8,81.8,33.3,81.5z M30.7,85.9c0,1.7-0.9,2.6-1.3,2.7h-24c-0.3,0-1.3-1-1.3-2.7V84l8.9-5c1.3,0.8,2.8,1.3,4.4,1.3
		c1.6,0,3.1-0.5,4.4-1.3l8.9,5V85.9z M17.4,62.7c4.4,0,5.8,1.5,5.8,6.3c0,3.8-2,7.8-5.8,7.8s-5.8-4-5.8-7.8
		C11.6,64.2,13,62.7,17.4,62.7z"/>
	<path class="st3" d="M95.1,33.3v-1.9"/>
	<path class="st2" d="M97.7,28.8l-8.8-4.9c1.4-2,2.2-4.6,2.2-7.5c0-4.6-1.1-9.8-9.3-9.8s-9.3,5.2-9.3,9.8c0,2.9,0.8,5.5,2.2,7.5
		l-8.8,4.9c-0.6,0.3-0.9,0.9-0.9,1.5v2.9c0,3.3,2.2,6.2,4.8,6.2h24c2.6,0,4.8-2.8,4.8-6.2v-2.9C98.6,29.7,98.3,29.1,97.7,28.8z
		 M95.1,33.3c0,1.7-0.9,2.6-1.3,2.7h-24c-0.3,0-1.3-1-1.3-2.7v-1.9l8.9-5c1.3,0.8,2.8,1.3,4.4,1.3s3.1-0.5,4.4-1.3l8.9,5V33.3z
		 M87.6,16.4c0,3.8-2,7.8-5.8,7.8s-5.8-4-5.8-7.8c0-4.8,1.3-6.3,5.8-6.3S87.6,11.6,87.6,16.4z"/>
</g>
<g class="st0">
	<path class="st1" d="M95.7,18.2H3.5c-1,0-1.8,0.8-1.8,1.8v6.9c0,1,0.8,1.8,1.8,1.8h0v50.2c0,1,0.8,1.8,1.8,1.8h88.6
		c1,0,1.8-0.8,1.8-1.8V28.6h0c1,0,1.8-0.8,1.8-1.8v-6.9C97.4,19,96.6,18.2,95.7,18.2z M93.9,25.1L93.9,25.1H5.3l0-3.4h88.6V25.1z
		 M92.2,28.6V77H7V28.6H92.2z"/>
	<path class="st1" d="M31.9,70.1c7.8,0,14.2-6.2,14.2-13.9c0-1-0.8-1.8-1.8-1.8H33.6V44.2c0-1-0.8-1.8-1.8-1.8
		c-7.8,0-14.2,6.2-14.2,13.9C17.7,63.9,24.1,70.1,31.9,70.1z M30.1,46v10.2c0,1,0.8,1.8,1.8,1.8h10.5c-0.9,4.9-5.2,8.6-10.5,8.6
		c-5.9,0-10.7-4.6-10.7-10.4C21.2,51.1,25.1,46.9,30.1,46z"/>
	<path class="st1" d="M39,51.1h12.4c1,0,1.8-0.8,1.8-1.8c0-7.6-6.3-13.9-14.2-13.9c-1,0-1.8,0.8-1.8,1.8v12.1
		C37.2,50.3,38,51.1,39,51.1z M40.7,39.1c4.5,0.7,8,4.1,8.8,8.5h-8.8V39.1z"/>
	<path class="st1" d="M60.2,39H85c1,0,1.8-0.8,1.8-1.8S86,35.5,85,35.5H60.2c-1,0-1.8,0.8-1.8,1.8S59.3,39,60.2,39z"/>
	<path class="st1" d="M60.2,49.4H85c1,0,1.8-0.8,1.8-1.8S86,45.9,85,45.9H60.2c-1,0-1.8,0.8-1.8,1.8S59.3,49.4,60.2,49.4z"/>
	<path class="st1" d="M60.2,59.8H85c1,0,1.8-0.8,1.8-1.8S86,56.3,85,56.3H60.2c-1,0-1.8,0.8-1.8,1.8S59.3,59.8,60.2,59.8z"/>
	<path class="st1" d="M60.2,70.1H85c1,0,1.8-0.8,1.8-1.8S86,66.6,85,66.6H60.2c-1,0-1.8,0.8-1.8,1.8S59.3,70.1,60.2,70.1z"/>
</g>
</svg>
