<svg xmlns="http://www.w3.org/2000/svg" width="72.7" height="77.8" viewBox="0 0 72.7 77.8">
  <g id="icon-step-2" transform="translate(-26.2 -23.6)">
    <path id="Path_2156" data-name="Path 2156" d="M75,100.5H26.2V91.1A146.181,146.181,0,0,0,50.9,68.9C57.6,61.3,61,54.3,61,48c0-4.4-1.3-7.8-3.8-10.2-2.6-2.4-6.1-3.6-10.6-3.6-6.2,0-12.3,2.3-18.3,7V30a31.623,31.623,0,0,1,19.9-6.4q10.65,0,17.7,6c4.7,4,7,9.7,7,17.1,0,13.7-10.3,28.3-31,44H75Z" fill="#600"/>
    <path id="Path_2157" data-name="Path 2157" d="M96.6,88a7.637,7.637,0,0,1,2.3,5.5,7.865,7.865,0,0,1-2.3,5.6,7.257,7.257,0,0,1-5.5,2.3,7.537,7.537,0,0,1-5.6-2.3,7.865,7.865,0,0,1-2.3-5.6A7.472,7.472,0,0,1,85.5,88a7.7,7.7,0,0,1,5.6-2.3A7.807,7.807,0,0,1,96.6,88Z" fill="#600"/>
  </g>
</svg>
