<?xml version="1.0" encoding="utf-8"?>
<!-- Generator: Adobe Illustrator 25.0.1, SVG Export Plug-In . SVG Version: 6.00 Build 0)  -->
<svg version="1.1" id="Layer_1" xmlns="http://www.w3.org/2000/svg" xmlns:xlink="http://www.w3.org/1999/xlink" x="0px" y="0px"
	 viewBox="0 0 125 125" style="enable-background:new 0 0 125 125;" xml:space="preserve">
<style type="text/css">
	.st0{fill:#660000;}
</style>
<g id="Group_597_1_" transform="translate(-501.662 51.945)">
	<path id="Path_685_1_" class="st0" d="M615,9.5h-15.3l-0.1-10.9c0-0.6-0.3-1.2-0.7-1.7l-3.8-3.8c1.3,0.4,2.7,0.5,4,0.5
		c8.7,0,15.7-7,15.8-15.7s-7-15.7-15.7-15.8c-8.7,0-15.7,7-15.8,15.7c0,1.4,0.2,2.8,0.5,4.1l-15.6-15.6c-1.4-1.4-3.4-2.2-5.4-2.2
		h-22c-1.5,0-2.9,0.4-4.2,1.1v-6c0-3.9-3.1-7-7-7h-18.5c-3.9,0-7,3.1-7,7V-13c0,3.9,3.1,7,7,7h18.5c3.9,0,7-3.1,7-7v-6
		c1.3,0.7,2.8,1.1,4.2,1.1h17.7l5.1,5.1L542.4,8.8c-0.7,0.7-1.3,1.6-1.7,2.6L507.2,44c-4,4.1-4,10.6,0.1,14.7c4,4,10.5,4,14.6,0
		l29.9-29.9l10.4,10.4l-14.2,14.2c-3.5,3.5-3.5,9.3,0,12.8c3.5,3.5,9.3,3.5,12.8,0l0,0l20.6-20.6c3.5-3.5,3.5-9.2,0-12.8l0,0
		l-9.6-9.6l10-10V20c0,4.2,3.4,7.6,7.6,7.6c0,0,0,0,0,0H615c5,0,9.1-4,9.1-9s-4-9.1-9-9.1C615.1,9.5,615.1,9.5,615,9.5L615,9.5z
		 M591.5-29.8c4.3-4.3,11.1-4.3,15.4,0c4.3,4.3,4.3,11.1,0,15.4c-4.3,4.3-11.1,4.3-15.4,0c-2-2-3.2-4.8-3.2-7.7
		C588.3-25,589.4-27.7,591.5-29.8L591.5-29.8z M532-13c0,1.2-1,2.2-2.2,2.2h-18.5c-1.2,0-2.2-1-2.2-2.2v-27.8c0-1.2,1-2.2,2.2-2.2
		h18.5c1.2,0,2.2,1,2.2,2.2V-13z M518.4,55.3c-2.2,2.1-5.7,2.1-7.9,0c-2.2-2.2-2.2-5.7,0-7.9l30.6-29.7c0.3,0.7,0.8,1.3,1.3,1.8
		l5.9,5.9L518.4,55.3z M615,22.8h-25.8c-1.5,0-2.8-1.2-2.8-2.8l0,0l0,0V7.4c0-1.3-1.1-2.4-2.4-2.4c-0.6,0-1.2,0.2-1.7,0.7
		l-15.8,15.8c-0.9,0.9-0.9,2.5,0,3.4l11.3,11.3c1.7,1.7,1.7,4.3,0,6l0,0l-20.6,20.6c-1.7,1.6-4.3,1.6-6,0c-1.7-1.7-1.7-4.3,0-6
		l15.9-15.9c0.9-0.9,0.9-2.4,0-3.4l0,0L553.6,24l-7.3-12.3L568.9-11c0.9-0.9,0.9-2.5,0-3.4l-7.5-7.5c-0.4-0.4-1.1-0.7-1.7-0.7h-18.6
		c-2.3,0-4.2-1.9-4.2-4.2s1.9-4.2,4.2-4.2l0,0h22c0.7,0,1.4,0.3,2,0.8l29.9,29.9l0.1,12.3c0,1.3,1.1,2.4,2.4,2.4H615
		c2.3,0,4.2,1.9,4.2,4.2S617.4,22.7,615,22.8C615,22.8,615,22.8,615,22.8L615,22.8z"/>
	<path id="Path_686_1_" class="st0" d="M525,6.2c1.4-0.1,2.4-1.3,2.4-2.6c0-1.3-1.1-2.4-2.4-2.4c0,0,0,0,0,0h-8.9
		c-1.4,0.1-2.4,1.3-2.4,2.6c0,1.3,1.1,2.4,2.4,2.4l0,0H525z"/>
	<path id="Path_687_1_" class="st0" d="M508.9,13.4c0,1.3,1.1,2.4,2.4,2.4l0,0h4.1c1.4-0.1,2.4-1.3,2.4-2.6c0-1.3-1.1-2.4-2.4-2.4
		c0,0,0,0,0,0h-4.1C509.9,10.9,508.9,12,508.9,13.4z"/>
</g>
</svg>
