<?xml version="1.0" encoding="utf-8"?>
<!-- Generator: Adobe Illustrator 25.0.0, SVG Export Plug-In . SVG Version: 6.00 Build 0)  -->
<svg version="1.1" id="Layer_1" xmlns="http://www.w3.org/2000/svg" xmlns:xlink="http://www.w3.org/1999/xlink" x="0px" y="0px"
	 viewBox="0 0 200 200" style="enable-background:new 0 0 200 200;" xml:space="preserve">
<style type="text/css">
	.st0{fill:#660000;}
</style>
<g>
	<g>
		<g>
			<path class="st0" d="M28.9,175c-0.2,0-0.4,0-0.6-0.1c-9.2-1.9-15.8-10-15.8-19.3v-23.3c0-10.9,8.9-19.7,19.7-19.7h28.4l22.7-29.3
				c0.1-0.1,0.2-0.2,0.3-0.3c4.3-4.3,11.9-4.3,16.2,0c4.4,4.4,4.5,11.5,0.2,16l-28,38v35c0,1.7-1.4,3.1-3.1,3.1H29.1
				C29,175,29,175,28.9,175z M32,168.7h33.6v-32.9c0-0.9,0.3-1.7,0.9-2.3l28.5-38.6c0.1-0.1,0.2-0.2,0.3-0.4c2-2,2-5.3,0-7.3
				c-1.9-1.9-5.2-1.9-7.2-0.1l-23.5,30.4c-0.6,0.8-1.5,1.2-2.5,1.2H32.2c-7.4,0-13.5,6.1-13.5,13.5v23.3c0,5,2.8,9.5,7,11.8v-31.8
				c0-1.7,1.4-3.1,3.1-3.1c1.7,0,3.1,1.4,3.1,3.1V168.7z"/>
		</g>
		<g>
			<path class="st0" d="M48.9,115.5c-10.9,0-19.7-8.9-19.7-19.7C29.1,84.9,38,76,48.9,76s19.7,8.9,19.7,19.7
				C68.6,106.7,59.8,115.5,48.9,115.5z M48.9,82.3c-7.4,0-13.5,6.1-13.5,13.5s6.1,13.5,13.5,13.5s13.5-6.1,13.5-13.5
				S56.3,82.3,48.9,82.3z"/>
		</g>
	</g>
	<g>
		<g>
			<path class="st0" d="M171.1,175c0,0-0.1,0-0.1,0h-39.7c-1.7,0-3.1-1.4-3.1-3.1v-35l-28-38c-4.3-4.5-4.2-11.6,0.2-16
				c4.3-4.3,11.9-4.3,16.2,0c0.1,0.1,0.2,0.2,0.3,0.3l22.7,29.3h28.4c10.9,0,19.7,8.9,19.7,19.7v23.3c0,9.3-6.6,17.5-15.8,19.3
				C171.5,175,171.3,175,171.1,175z M134.3,168.7H168v-32.9c0-1.7,1.4-3.2,3.1-3.2c1.7,0,3.1,1.3,3.1,3v31.8c4.2-2.3,7-6.8,7-11.8
				v-23.3c0-7.4-6.1-13.5-13.5-13.5h-29.9c-1,0-1.9-0.4-2.5-1.2l-23.5-30.4c-2-1.8-5.3-1.8-7.2,0.1c-2,2-2,5.3,0,7.3
				c0.1,0.1,0.2,0.2,0.3,0.4l28.2,38.2c0.7,0.5,1.2,1.4,1.2,2.4V168.7z"/>
		</g>
		<g>
			<path class="st0" d="M151.1,115.5c-10.9,0-19.7-8.9-19.7-19.7c0-10.9,8.9-19.7,19.7-19.7c10.9,0,19.7,8.9,19.7,19.7
				C170.9,106.7,162,115.5,151.1,115.5z M151.1,82.3c-7.4,0-13.5,6.1-13.5,13.5s6.1,13.5,13.5,13.5s13.5-6.1,13.5-13.5
				S158.6,82.3,151.1,82.3z"/>
		</g>
	</g>
	<g>
		<g>
			<path class="st0" d="M100.2,47.9h-0.3c-1.7,0-3.1-1.4-3.1-3.1V28.1c0-1.7,1.4-3.1,3.1-3.1c1.7,0,3.4,1.4,3.4,3.1v16.7
				C103.3,46.5,101.9,47.9,100.2,47.9z M100.2,44.8L100.2,44.8L100.2,44.8z"/>
		</g>
		<g>
			<path class="st0" d="M84.6,56.8c-0.5,0-1.1-0.1-1.6-0.5L67.5,45.9c-0.7-0.5-1.2-1.2-1.3-2c-0.2-0.8,0-1.7,0.5-2.3
				c1-1.4,3.1-2.1,4.5-1.1l15.6,10.4c0.7,0.5,1.2,1.2,1.3,2c0.2,0.8,0,1.7-0.5,2.3C86.9,56.2,85.7,56.8,84.6,56.8z"/>
		</g>
		<g>
			<path class="st0" d="M115.2,56.9c-1,0-2-0.5-2.6-1.4l-0.2-0.3c-0.5-0.7-0.6-1.5-0.5-2.3c0.2-0.8,0.6-1.5,1.3-2l15.6-10.4
				c1.4-1,3.4-0.6,4.3,0.9c0.5,0.7,0.7,1.7,0.6,2.5c-0.2,0.8-0.6,1.7-1.2,2.1L117,56.3C116.4,56.7,115.8,56.9,115.2,56.9z"/>
		</g>
		<g>
			<path class="st0" d="M100,69c-3.7,0-6.6-3-6.6-6.6s3-6.6,6.6-6.6s6.6,3,6.6,6.6S103.7,69,100,69z M100,61.9
				c-0.2,0-0.4,0.2-0.4,0.4c0,0.4,0.8,0.4,0.8,0C100.4,62.1,100.2,61.9,100,61.9z"/>
		</g>
	</g>
</g>
</svg>
