<?xml version="1.0" encoding="utf-8"?>
<!-- Generator: Adobe Illustrator 25.0.1, SVG Export Plug-In . SVG Version: 6.00 Build 0)  -->
<svg version="1.1" id="Layer_1" xmlns="http://www.w3.org/2000/svg" xmlns:xlink="http://www.w3.org/1999/xlink" x="0px" y="0px"
	 viewBox="0 0 99.2 98.7" style="enable-background:new 0 0 99.2 98.7;" xml:space="preserve">
<style type="text/css">
	.st0{fill:#660000;}
</style>
<g>
	<path class="st0" d="M30.6,8.5C37,8.7,43.4,8.8,49.8,8.8c0,0,0,0.4,0,0.4c0,2.7,0,5.3,0,7.9c0,1.5,0,3,0,4.4c0,0.5,0,1,0,1.5
		c0.1,0.9,0.4,0.7,1.1,1.2c0.5,0.4,1,0.8,1.6,1c0.1,0,0.2,0.1,0.3,0.1c0.4,0,0.7-0.1,1.1-0.1c0.1,0,0.1,0,0.2,0
		c1.7,0.2,3.5,1.6,5.2,2.2c1.9,0.6,3.8,0.9,5.8,0.9c0.1,0,0.2,0,0.3,0c2.1,0,4.1-0.4,6.2-0.4c1,0,1.9,0.1,2.9,0.3
		c0.7,0.2,1.5,0.2,2.2,0.2c1.3,0,2.6-0.2,3.9-0.2c1,0,1.9,0.1,2.9,0.4c0.7,0.2,1.4,0.7,2.2,0.8c0.7,0.2,1.3,0.1,2.1,0.2
		c0.7,0.1,1.4,0.2,1.9,0.5c1.3,1,0.5,3.2,0.6,4.6c0.1,1.9,0.3,3.8,0.4,5.6c-0.1,2.1,1.3,1.9,1.9,3.7c0.2,0.6,0.2,1.2,0.5,1.8
		c0.4,1.2,1.5,2.1,1.8,3.3c0.2,1.3-0.5,2.6-0.5,3.9c-0.2,1.3-0.3,2-0.8,3.4c-0.2,0.7-0.2,1.4-0.5,2.1c-0.5,1.3-1.5,1.3-2.6,1.7
		c-0.7,0.3-1.3,1-1.9,1.5c-1.1,1-2.1,2.1-3.2,3c-1.9,1.4-4.3,2.1-6.2,3.6c-0.2,0.2-0.4,0.7-0.1,0.7c-5.5,1.3-8.9,6.3-11,11.2
		c-0.3,0.8-0.8,1.9-0.5,2.7c0.1,0.2,0.2,0.4,0.2,0.6c0.1,0.2,0.1,0.4,0.2,0.6c0.1,0.8,0.7,1.5,0.7,2.3c0.1,0,0.1,0,0.1,0
		c0.2,0,0.1,0.4,0.4,0.4c0,0,0,0,0.1,0c0.2,0,0.2,0.7,0.2,0.7c0.1,0,0.1-0.1,0.2-0.1c0.1,0.5,0.1,1-0.1,1.6
		c-0.2,0.6-0.5,0.8-0.8,0.8c-0.7,0-1.6-0.7-2.4-0.7c-1.5-0.2-3.2,0.1-4.6-0.5c-2.7-1.2-5.4-2.9-6.7-5.6c-1-2.2-1-4.9-3.3-6.3
		c-1.6-1-2.7-3.3-3.8-4.9c-0.2-0.2-0.3-0.4-0.4-0.7c-0.1-0.3-0.1-0.7-0.2-0.9c-0.1-0.2-0.2-0.3-0.4-0.5c-1.3-1.4-2-3.3-3.2-4.8
		c-1.2-1.5-2.4-2.8-3.9-3.9c-0.3-0.2-0.5-0.4-0.9-0.5c-0.1,0-0.1,0-0.1,0c-0.4,0-0.7,0.1-1,0.2h-0.1c-1,0-1.6-1-2.5-1
		c-0.1,0-0.1,0-0.2,0c-1,0-1.8,0.6-2.6,1.1c-0.4,0.2-0.9,0.5-1.3,0.8c-1.1,0.8-2.4,2.4-2.9,3.7c-0.2,0.6-0.7,0.8-1.4,0.8
		c-1.7,0-4.4-1.6-5.3-2.1c-2.2-1.2-4.2-2.9-4.9-5.3c0.1-1.3,0.1-2.6-0.6-3.8C12.7,51.3,8.8,47.3,5,43.9c-0.5-0.5-0.8-0.8-0.8-1.7
		c8.1,0.7,16.8,1.3,24.8,1.5c0.5-11.1,1.2-22.3,1.5-33.4C30.4,9.5,30.5,8.5,30.6,8.5 M30.6,5.3c-0.9,0-1.8,0.4-2.4,1
		c-0.8,0.8-1.1,2.2-1,4c-0.3,8.9-0.7,18-1.2,26.8c-0.1,1.1-0.1,2.1-0.2,3.2c-6.8-0.3-14.2-0.7-21.4-1.4c-0.1,0-0.2,0-0.3,0
		c-0.8,0-1.7,0.3-2.3,0.9c-0.7,0.7-1,1.6-1,2.5c0.1,1.9,0.9,2.9,1.8,3.8c0,0,0.1,0.1,0.1,0.1C6.3,49.3,10,53,13.5,57
		c0.1,0.3,0.1,0.8,0.1,1.6c0,0.4,0,0.8,0.1,1.2c0.9,2.9,3,5.3,6.4,7.2l0.2,0.1c2.2,1.3,4.6,2.4,6.7,2.4c2,0,3.7-1.1,4.4-2.9
		c0,0,0,0,0,0c0.3-0.7,1.1-1.8,1.7-2.2c0.1-0.1,0.4-0.2,0.7-0.4c0.1-0.1,0.3-0.1,0.4-0.2c0,0,0.1,0,0.1-0.1l0.3-0.2
		c0.1-0.1,0.3-0.2,0.5-0.3c0.6,0.4,1.6,0.9,2.9,0.9H38c0.2,0,0.3,0,0.5,0c1,0.8,2,1.8,2.9,3c0.4,0.5,0.7,1.1,1,1.7
		c0.6,1,1.2,2.1,2.1,3.1c0,0.2,0.1,0.4,0.2,0.6c0.2,0.6,0.5,1,0.8,1.4c0.2,0.3,0.4,0.7,0.7,1.1c1,1.5,2.2,3.5,4,4.6
		c0.5,0.3,0.7,0.9,1.2,2.4c0.2,0.8,0.5,1.7,0.9,2.6c1.8,4,5.6,6,8.3,7.2c1.6,0.7,3.1,0.7,4.3,0.8c0.4,0,0.8,0,1.2,0
		c0.1,0,0.3,0.1,0.4,0.2c0.6,0.3,1.4,0.6,2.4,0.6c1.4,0,3.2-0.8,3.9-3.1c0.4-1.2,0.3-2.2,0.2-2.9c-0.1-0.5-0.2-0.9-0.4-1.3
		c-0.2-0.6-0.5-1-0.8-1.3c-0.1-0.3-0.2-0.5-0.3-0.7c0-0.1-0.1-0.2-0.1-0.3c0-0.1,0-0.1,0-0.2c-0.1-0.4-0.2-0.6-0.3-0.8
		c0-0.1-0.1-0.2-0.1-0.3c0.1-0.2,0.1-0.4,0.2-0.5c0-0.1,0.1-0.2,0.1-0.3c2.3-5.3,5.3-8.5,8.7-9.3c1-0.2,1.9-1,2.3-1.9
		c0.6-0.3,1.2-0.6,1.8-1c1-0.5,2.2-1.1,3.3-1.9c0.9-0.7,1.7-1.5,2.4-2.1c0.4-0.4,0.7-0.7,1.1-1c0.1-0.1,0.2-0.2,0.3-0.3
		c0.2-0.2,0.6-0.5,0.7-0.6c0.1,0,0.2-0.1,0.3-0.1c1-0.3,3-0.9,4-3.4c0,0,0-0.1,0-0.1c0.2-0.6,0.3-1.1,0.4-1.5c0-0.2,0.1-0.4,0.1-0.5
		c0.5-1.4,0.6-2.2,0.8-3.2c0-0.2,0.1-0.5,0.1-0.7c0-0.2,0.1-0.4,0.1-0.6c0-0.2,0.1-0.6,0.2-0.9c0.2-0.9,0.6-2.2,0.3-3.6
		c0,0,0,0,0-0.1c-0.3-1.3-0.9-2.3-1.4-3c-0.2-0.2-0.4-0.6-0.5-0.7c0-0.1-0.1-0.1-0.1-0.2c0-0.1-0.1-0.3-0.1-0.5
		c-0.1-0.3-0.1-0.6-0.2-0.9c0,0,0-0.1,0-0.1c-0.5-1.4-1.3-2.2-1.8-2.7c0,0,0-0.1,0-0.1c-0.1-1-0.1-1.9-0.2-2.9
		c-0.1-0.9-0.1-1.8-0.2-2.8c0,0,0,0,0-0.1c0-0.1,0-0.6,0.1-0.9c0.2-1.5,0.4-4.3-2-6.1c0,0-0.1-0.1-0.1-0.1c-1.2-0.8-2.5-1-3.4-1.1
		c-0.3,0-0.6,0-0.9,0c-0.2,0-0.5,0-0.6,0c0,0-0.1,0-0.1,0c-0.2,0-0.4-0.2-0.7-0.3c-0.3-0.2-0.7-0.3-1.2-0.5c0,0,0,0-0.1,0
		c-1.2-0.4-2.5-0.6-3.9-0.6c-0.8,0-1.5,0.1-2.2,0.1c-0.6,0-1.2,0.1-1.7,0.1c-0.6,0-1,0-1.4-0.1c-1.1-0.3-2.2-0.4-3.7-0.4
		c-1.2,0-2.3,0.1-3.4,0.2c-1,0.1-1.9,0.2-2.8,0.2h-0.3c-1.7,0-3.3-0.3-4.8-0.8c-0.5-0.1-1-0.5-1.7-0.8c-1.2-0.6-2.5-1.3-4-1.5
		c-0.2,0-0.3,0-0.5,0H54c-0.2,0-0.5,0-0.7,0c-0.1-0.1-0.2-0.1-0.2-0.2v-0.3v-4.4V9.3V8.8c0-1.8-1.4-3.2-3.2-3.2
		c-6.4,0-12.7-0.1-19.2-0.4C30.6,5.3,30.6,5.3,30.6,5.3L30.6,5.3z"/>
</g>
</svg>
