<?xml version="1.0" encoding="utf-8"?>
<!-- Generator: Adobe Illustrator 25.0.1, SVG Export Plug-In . SVG Version: 6.00 Build 0)  -->
<svg version="1.1" id="Layer_1" xmlns="http://www.w3.org/2000/svg" xmlns:xlink="http://www.w3.org/1999/xlink" x="0px" y="0px"
	 viewBox="0 0 99.2 98.7" style="enable-background:new 0 0 99.2 98.7;" xml:space="preserve">
<style type="text/css">
	.st0{fill:#660000;}
</style>
<g>
	<g>
		<g>
			<path class="st0" d="M36.1,84.4l-0.5-0.5h-0.2l-0.6-0.5L16.9,65.5c-0.2-0.2-0.3-0.4-0.4-0.7l-0.6-0.6l0.6-0.6
				c0.1-0.2,0.2-0.5,0.4-0.7c3.3-3.3,10.2-8.8,19.2-8.8c4.7,0,7.7,1,10.7,2.4h21.5c2.7,0,5.1,1.5,6.3,3.8l7.7-7.7
				c1.4-1.4,3.2-2.1,5.1-2.1h0c1.9,0,3.7,0.7,5.1,2.1c1.4,1.4,2.1,3.2,2.1,5.1s-0.7,3.7-2.1,5.1L77.2,78.1c-2.4,2.4-5.6,3.7-8.9,3.7
				H41.2c-1.5,0-2.8,0.6-3.9,1.6l-0.5,0.5l-0.3,0L36.1,84.4z M20.7,64.3l15.5,15.5c1.5-1,3.2-1.5,5-1.5h27.1c2.4,0,4.7-0.9,6.4-2.7
				l15.3-15.3c0.7-0.7,1.1-1.6,1.1-2.6c0-1-0.4-1.9-1.1-2.6c-1.4-1.4-3.7-1.4-5.2,0l-9.4,9.4C75.1,68.1,72,71,68.3,71H54.2
				c-1,0-1.8-0.8-1.8-1.8c0-1,0.8-1.8,1.8-1.8h14.2c2,0,3.6-1.6,3.6-3.6c0-2-1.6-3.6-3.6-3.6H46.1l-0.5-0.2
				c-2.8-1.4-5.4-2.2-9.5-2.2C29.4,57.7,23.9,61.4,20.7,64.3z"/>
		</g>
		<g>
			<path class="st0" d="M28.4,95.8c-0.9,0-1.9-0.4-2.6-1.1L5.6,74.5c-1.4-1.4-1.4-3.7,0-5.1l7.5-7.5c1.4-1.4,3.8-1.4,5.1,0
				l20.3,20.3c0.7,0.7,1.1,1.6,1.1,2.6s-0.4,1.9-1.1,2.6L31,94.7C30.3,95.5,29.3,95.8,28.4,95.8z M15.6,64.2c-0.1,0-0.1,0-0.2,0.1
				L8,71.7c-0.1,0.1-0.1,0.3,0,0.4l20.3,20.3c0.1,0.1,0.3,0.1,0.4,0l7.5-7.5c0.1-0.1,0.1-0.1,0.1-0.2c0,0,0-0.1-0.1-0.2L15.8,64.3
				C15.8,64.2,15.7,64.2,15.6,64.2z"/>
		</g>
	</g>
	<g>
		<g>
			<path class="st0" d="M55.5,49.3c-12.8,0-23.2-10.4-23.2-23.2S42.8,2.9,55.5,2.9s23.2,10.4,23.2,23.2S68.3,49.3,55.5,49.3z
				 M55.5,6.3c-10.9,0-19.8,8.9-19.8,19.8c0,10.9,8.9,19.8,19.8,19.8S75.4,37,75.4,26.1C75.4,15.2,66.5,6.3,55.5,6.3z"/>
		</g>
		<g>
			<path class="st0" d="M55.5,40.8c-1,0-1.8-0.8-1.8-1.8v-1.6c-3.6-0.7-6.2-3.4-6.2-6.6c0-1,0.8-1.8,1.8-1.8c1,0,1.8,0.8,1.8,1.8
				c0,1.7,2,3.2,4.4,3.2c2.4,0,4.4-1.5,4.4-3.2c0-1.4-1.5-2.8-3.4-3.1L54,27.1c-3.4-0.6-5.9-3.2-5.9-6.2s2.4-5.5,5.7-6.1v-1.6
				c0-1,0.8-1.8,1.8-1.8c1,0,1.8,0.8,1.8,1.8v1.6c3.3,0.7,5.7,3.1,5.7,6.1c0,1-0.8,1.8-1.8,1.8c-1,0-1.8-0.8-1.8-1.8
				c0-1.5-1.8-2.7-3.9-2.7c-2.1,0-3.9,1.3-3.9,2.7c0,1.2,1.3,2.4,3,2.7l2.6,0.6c3.6,0.6,6.3,3.4,6.3,6.6c0,3.2-2.7,5.9-6.2,6.6V39
				C57.3,40,56.5,40.8,55.5,40.8z"/>
		</g>
	</g>
</g>
</svg>
