<svg height="32" version="1.0" width="32" xmlns="http://www.w3.org/2000/svg"><path d="M31.67 9.18s-.31-2.35-1.27-3.39c-1.22-1.36-2.58-1.37-3.2-1.44C22.71 4 16 4 16 4H16s-6.72 0-11.2.35c-.62.07-1.98.08-3.2 1.44C.63 6.83.32 9.18.32 9.18S0 11.94 0 14.7v2.59c0 2.76.32 5.52.32 5.52s.31 2.35 1.27 3.39c1.22 1.36 2.82 1.32 3.53 1.46C7.68 27.92 16 28 16 28s6.72-.01 11.2-.35c.62-.08 1.98-.1 3.2-1.45.96-1.04 1.27-3.39 1.27-3.39s.32-2.76.32-5.52V14.7c0-2.76-.32-5.52-.32-5.52z" fill="#E02F2F"/><path fill="#FFF" d="M12 10v12l10-6z"/></svg>