<?xml version="1.0" encoding="utf-8"?>
<!-- Generator: Adobe Illustrator 25.0.1, SVG Export Plug-In . SVG Version: 6.00 Build 0)  -->
<svg version="1.1" id="Layer_1" xmlns="http://www.w3.org/2000/svg" xmlns:xlink="http://www.w3.org/1999/xlink" x="0px" y="0px"
	 viewBox="0 0 99.2 98.7" style="enable-background:new 0 0 99.2 98.7;" xml:space="preserve">
<style type="text/css">
	.st0{fill:none;}
	.st1{fill:#660000;}
</style>
<g>
	<g>
		<path class="st0" d="M84.4,13.6H14.8c-2,0-3.6,1.6-3.6,3.6v48.5c0,2,1.6,3.6,3.6,3.6h44.6l1-4.4c-1.6-2.2-2.6-4.9-2.6-7.9
			c0-0.3,0-0.6,0-0.9h-25c-1,0-1.8-0.8-1.8-1.8c0-1,0.8-1.8,1.8-1.8h25.8c1.8-5.2,6.8-8.9,12.6-8.9c7.4,0,13.4,6,13.4,13.4
			c0,3-1,5.7-2.6,7.9l1,4.4h1.5c2,0,3.6-1.6,3.6-3.6V17.1C87.9,15.2,86.4,13.6,84.4,13.6z M72.2,41.7H27c-1,0-1.8-0.8-1.8-1.8
			s0.8-1.8,1.8-1.8h45.2c1,0,1.8,0.8,1.8,1.8S73.2,41.7,72.2,41.7z M78.5,27.4H20.6c-1,0-1.8-0.8-1.8-1.8s0.8-1.8,1.8-1.8h57.9
			c1,0,1.8,0.8,1.8,1.8S79.5,27.4,78.5,27.4z"/>
	</g>
	<g>
		<path class="st1" d="M84.4,10H14.8c-3.9,0-7.1,3.2-7.1,7.1v48.5c0,3.9,3.2,7.1,7.1,7.1h43.7L55.9,84c-0.2,0.7,0.1,1.4,0.7,1.8
			c0.6,0.4,1.4,0.4,2,0.1l5.4-3.4l3.3,5.3c0.3,0.5,0.9,0.8,1.5,0.8c0.1,0,0.2,0,0.3,0c0.7-0.1,1.3-0.7,1.4-1.4l0.6-2.5l0.6,2.5
			c0.2,0.7,0.7,1.2,1.4,1.4c0.1,0,0.2,0,0.3,0c0.6,0,1.2-0.3,1.5-0.8l3.3-5.3l5.4,3.4c0.6,0.4,1.4,0.4,2-0.1
			c0.6-0.4,0.9-1.1,0.7-1.8l-2.6-11.2h0.7c3.9,0,7.1-3.2,7.1-7.1V17.1C91.5,13.2,88.3,10,84.4,10z M81.9,80.6l-3.3-2
			c-0.4-0.3-0.9-0.3-1.3-0.2c-0.5,0.1-0.9,0.4-1.1,0.8l-2,3.2l-2.8-12.1c2.8-0.1,5.4-1,7.5-2.5L81.9,80.6z M66.1,79.1
			c-0.2-0.4-0.6-0.7-1.1-0.8c-0.5-0.1-0.9,0-1.3,0.2l-3.3,2l3-12.9c1.3,0.9,2.8,1.6,4.4,2.1l1.6,7L68,82.3L66.1,79.1z M61.3,56.9
			c0-5.4,4.4-9.8,9.8-9.8s9.8,4.4,9.8,9.8s-4.4,9.8-9.8,9.8S61.3,62.3,61.3,56.9z M87.9,65.6c0,2-1.6,3.6-3.6,3.6h-1.5l-1-4.4
			c1.6-2.2,2.6-4.9,2.6-7.9c0-7.4-6-13.4-13.4-13.4c-5.8,0-10.8,3.7-12.6,8.9H32.8c-1,0-1.8,0.8-1.8,1.8c0,1,0.8,1.8,1.8,1.8h25
			c0,0.3,0,0.6,0,0.9c0,3,1,5.7,2.6,7.9l-1,4.4H14.8c-2,0-3.6-1.6-3.6-3.6V17.1c0-2,1.6-3.6,3.6-3.6h69.6c2,0,3.6,1.6,3.6,3.6V65.6z
			"/>
	</g>
	<g>
		<path class="st1" d="M78.5,23.9H20.6c-1,0-1.8,0.8-1.8,1.8s0.8,1.8,1.8,1.8h57.9c1,0,1.8-0.8,1.8-1.8S79.5,23.9,78.5,23.9z"/>
	</g>
	<g>
		<path class="st1" d="M72.2,38.1H27c-1,0-1.8,0.8-1.8,1.8s0.8,1.8,1.8,1.8h45.2c1,0,1.8-0.8,1.8-1.8S73.2,38.1,72.2,38.1z"/>
	</g>
</g>
</svg>
