<?xml version="1.0" encoding="utf-8"?>
<!-- Generator: Adobe Illustrator 25.0.1, SVG Export Plug-In . SVG Version: 6.00 Build 0)  -->
<svg version="1.1" id="Layer_1" xmlns="http://www.w3.org/2000/svg" xmlns:xlink="http://www.w3.org/1999/xlink" x="0px" y="0px"
	 viewBox="0 0 72.7 125" style="enable-background:new 0 0 72.7 125;" xml:space="preserve">
<style type="text/css">
	.st0{fill:#660000;}
</style>
<g>
	<path class="st0" d="M48.8,100.5H0v-9.4C9.8,84,18,76.6,24.7,68.9c6.7-7.6,10.1-14.6,10.1-20.9c0-4.4-1.3-7.8-3.8-10.2
		c-2.6-2.4-6.1-3.6-10.6-3.6c-6.2,0-12.3,2.3-18.3,7V30c5.6-4.3,12.2-6.4,19.9-6.4c7.1,0,13,2,17.7,6s7,9.7,7,17.1
		c0,13.7-10.3,28.3-31,44h33.1V100.5z"/>
	<path class="st0" d="M70.4,88c1.5,1.5,2.3,3.4,2.3,5.5c0,2.2-0.8,4-2.3,5.6s-3.4,2.3-5.5,2.3c-2.3,0-4.1-0.8-5.6-2.3
		c-1.5-1.6-2.3-3.4-2.3-5.6s0.8-4,2.3-5.5s3.4-2.3,5.6-2.3C67,85.7,68.8,86.5,70.4,88z"/>
</g>
</svg>
