<?xml version="1.0" encoding="utf-8"?>
<!-- Generator: Adobe Illustrator 25.0.1, SVG Export Plug-In . SVG Version: 6.00 Build 0)  -->
<svg version="1.1" id="Layer_1" xmlns="http://www.w3.org/2000/svg" xmlns:xlink="http://www.w3.org/1999/xlink" x="0px" y="0px"
	 viewBox="0 0 125 125" style="enable-background:new 0 0 125 125;" xml:space="preserve">
<style type="text/css">
	.st0{fill:#660000;}
</style>
<g id="Group_600_1_" transform="translate(-142 314.072)">
	<g id="Group_598_1_" transform="translate(142 474.928)">
		<path id="Path_688_1_" class="st0" d="M42.3-666.5c-3.4,0-6.5-1.5-8.6-4.2c-3.8,4.8-10.7,5.6-15.5,1.8c-2.6-2.1-4.2-5.3-4.2-8.6
			v-24.4c-6.9-2.3-11.5-8.7-11.5-15.9V-738c0-9.3,7.5-16.8,16.8-16.8h6.6c-8.2-4.3-11.4-14.5-7.1-22.7c4.3-8.2,14.5-11.4,22.7-7.1
			c8.2,4.3,11.4,14.5,7.1,22.7c-1.6,3-4.1,5.5-7.1,7.1h6.6c9.3,0,16.8,7.5,16.8,16.8v20.2c0,7.2-4.7,13.6-11.5,15.9v24.4
			C53.4-671.4,48.4-666.5,42.3-666.5z M36.1-677.5c0,3.4,2.9,6.2,6.3,6.2c3.4,0,6.1-2.8,6.2-6.2V-738c0-1.3,1.1-2.4,2.4-2.4
			c1.3,0,2.3,1.1,2.4,2.4v30.9c4.1-2,6.7-6.2,6.7-10.8V-738c0-6.6-5.4-12-12-12H19.3c-6.6,0-12,5.4-12,12v20.2
			c0,4.6,2.6,8.7,6.7,10.8V-738c0-1.3,1.1-2.4,2.4-2.4c1.3,0,2.3,1.1,2.4,2.4v60.5c0,3.4,2.9,6.2,6.3,6.2c3.4,0,6.1-2.8,6.2-6.2
			v-25.9c0-1.3,1-2.4,2.4-2.4c1.3,0,2.4,1,2.4,2.4c0,0,0,0.1,0,0.1L36.1-677.5z M33.7-781.7c-6.6,0-12,5.4-12,12s5.4,12,12,12
			s12-5.4,12-12C45.7-776.3,40.3-781.7,33.7-781.7L33.7-781.7z"/>
	</g>
	<g id="Group_599_1_" transform="translate(209.932 514.874)">
		<path id="Path_689_1_" class="st0" d="M-6.7-706.4c-2.6,0-4.7-2.1-4.7-4.7c0-2.3,1.7-4.3,4-4.6c16.8-7.9,27.5-24.8,27.5-43.3v-4.8
			H16c-2.5,0-4.5-2-4.5-4.5c0-1,0.3-1.9,0.9-2.7l17.1-22c1.6-2,4.6-2.2,6.5-0.6c0.2,0.2,0.4,0.4,0.6,0.6l17,21.9l0,0
			c1.5,2,1.1,4.8-0.9,6.3c-0.8,0.6-1.7,0.9-2.7,0.9h-4.2v4.8C45.9-730,22.3-706.5-6.7-706.4z M-5.6-711.3c-0.3,0.2-0.7,0.3-1.1,0.3
			c26.4-0.3,47.7-21.7,47.8-48.1v-7.2c0-1.3,1.1-2.4,2.4-2.4l0,0h6L33-789.8l-16.4,21.1h6l0,0c1.3,0,2.4,1.1,2.4,2.4v7.2
			C24.9-738.5,13-719.9-5.6-711.3L-5.6-711.3z M-6.7-713.4L-6.7-713.4z M32.8-790.1L32.8-790.1z M33.3-790.1L33.3-790.1L33.3-790.1z
			"/>
	</g>
</g>
</svg>
