<svg id="Group_654" data-name="Group 654" xmlns="http://www.w3.org/2000/svg" width="111.837" height="93.863" viewBox="0 0 111.837 93.863">
  <g id="_Group_" data-name="&lt;Group&gt;" transform="translate(0)">
    <g id="Group_14" data-name="Group 14" transform="translate(0 17.974)">
      <path id="Path_58" data-name="Path 58" d="M290.363,686.211a7.367,7.367,0,0,1-5.392-2.343,7.385,7.385,0,0,1-12.781-5.047v-14.86a11.028,11.028,0,0,1-7.19-10.3V641.077a11,11,0,0,1,10.984-10.984h2.4a10.984,10.984,0,1,1,13.165,0h2.4a11,11,0,0,1,10.984,10.984v12.582a11.028,11.028,0,0,1-7.19,10.3v14.86A7.4,7.4,0,0,1,290.363,686.211Zm-3.4-7.389a3.4,3.4,0,1,0,6.79,0V641.077a2,2,0,1,1,3.994,0v18.445a7.016,7.016,0,0,0,3.2-5.864V641.077a7,7,0,0,0-6.99-6.99H275.984a7,7,0,0,0-6.99,6.99v12.582a7.016,7.016,0,0,0,3.2,5.864V641.077a2,2,0,1,1,3.994,0v37.745a3.4,3.4,0,1,0,6.79,0V662.646a2,2,0,0,1,3.994,0Zm-2-64.506a6.99,6.99,0,1,0,6.99,6.99A7,7,0,0,0,284.971,614.316Z" transform="translate(-265 -610.322)" fill="#600"/>
    </g>
    <g id="Group_15" data-name="Group 15" transform="translate(26.961)">
      <path id="Path_59" data-name="Path 59" d="M289.484,623.29a10.984,10.984,0,1,1,10.984-10.984A11,11,0,0,1,289.484,623.29Zm0-17.974a6.99,6.99,0,1,0,6.99,6.99A7,7,0,0,0,289.484,605.316Z" transform="translate(-278.5 -601.322)" fill="#600"/>
    </g>
    <g id="Group_16" data-name="Group 16" transform="translate(62.908)">
      <path id="Path_60" data-name="Path 60" d="M307.484,623.29a10.984,10.984,0,1,1,10.984-10.984A11,11,0,0,1,307.484,623.29Zm0-17.974a6.99,6.99,0,1,0,6.99,6.99A7,7,0,0,0,307.484,605.316Z" transform="translate(-296.5 -601.322)" fill="#600"/>
    </g>
    <g id="Group_17" data-name="Group 17" transform="translate(35.948 17.974)">
      <path id="Path_61" data-name="Path 61" d="M308.363,686.211a7.367,7.367,0,0,1-5.392-2.343,7.386,7.386,0,0,1-12.781-5.047v-14.86a11.028,11.028,0,0,1-7.19-10.3V641.077a11,11,0,0,1,10.984-10.984h2.4a10.984,10.984,0,1,1,13.165,0h2.4a11,11,0,0,1,10.984,10.984v12.582a11.032,11.032,0,0,1-7.192,10.3v14.86A7.4,7.4,0,0,1,308.363,686.211Zm-3.4-7.389a3.4,3.4,0,1,0,6.79,0V641.077a2,2,0,1,1,3.992,0v18.445a7.018,7.018,0,0,0,3.2-5.864V641.077a7,7,0,0,0-6.99-6.99H293.984a7,7,0,0,0-6.99,6.99v12.582a7.017,7.017,0,0,0,3.2,5.864V641.077a2,2,0,1,1,3.994,0v37.745a3.4,3.4,0,1,0,6.79,0V662.646a2,2,0,0,1,3.994,0Zm-2-64.506a6.99,6.99,0,1,0,6.99,6.99A7,7,0,0,0,302.971,614.316Z" transform="translate(-283 -610.322)" fill="#600"/>
    </g>
    <g id="Group_18" data-name="Group 18" transform="translate(71.895 17.974)">
      <path id="Path_62" data-name="Path 62" d="M326.363,686.211a7.367,7.367,0,0,1-5.392-2.343,7.386,7.386,0,0,1-12.781-5.047v-14.86a11.033,11.033,0,0,1-7.19-10.3V641.077a11,11,0,0,1,10.984-10.984h2.4a10.984,10.984,0,1,1,13.165,0h2.4a11,11,0,0,1,10.984,10.984v12.582a11.033,11.033,0,0,1-7.19,10.3v14.86A7.4,7.4,0,0,1,326.363,686.211Zm-3.4-7.389a3.4,3.4,0,1,0,6.79,0V641.077a2,2,0,1,1,3.994,0v18.445a7.021,7.021,0,0,0,3.2-5.864V641.077a7,7,0,0,0-6.99-6.99H311.984a7,7,0,0,0-6.99,6.99v12.582a7.021,7.021,0,0,0,3.2,5.864V641.077a2,2,0,1,1,3.994,0v37.745a3.4,3.4,0,1,0,6.79,0V662.646a2,2,0,0,1,3.994,0Zm-2-64.506a6.99,6.99,0,1,0,6.99,6.99A7,7,0,0,0,320.971,614.316Z" transform="translate(-301 -610.322)" fill="#600"/>
    </g>
  </g>
</svg>
