<svg id="Group_655" data-name="Group 655" xmlns="http://www.w3.org/2000/svg" width="85.881" height="99.852" viewBox="0 0 85.881 99.852">
  <g id="Group_32" data-name="Group 32" transform="translate(0 0)">
    <g id="Group_30" data-name="Group 30" transform="translate(29.937 13.978)">
      <g id="Group_26" data-name="Group 26">
        <path id="Path_67" data-name="Path 67" d="M236,646.82H222.669a2,2,0,0,1-2-2c0-2.157-1.178-3.577-3.261-5.9-2.706-3.016-6.073-6.768-6.073-14.1a18,18,0,0,1,36,0c0,7.335-3.365,11.088-6.071,14.1-2.083,2.323-3.263,3.743-3.263,5.9A2,2,0,0,1,236,646.82Zm-11.551-3.994h9.77c.6-2.7,2.359-4.661,4.068-6.568,2.484-2.77,5.051-5.63,5.051-11.437a14,14,0,0,0-28.009,0c0,5.808,2.568,8.667,5.051,11.437C222.094,638.164,223.852,640.121,224.453,642.825Z" transform="translate(-211.338 -606.822)" fill="#600"/>
      </g>
      <g id="Group_27" data-name="Group 27" transform="translate(9.334 35.916)">
        <path id="Path_68" data-name="Path 68" d="M224.677,640.815a8.677,8.677,0,0,1-8.665-8.663h0V626.8a2,2,0,0,1,2-2h13.335a2,2,0,0,1,2,2v5.348A8.674,8.674,0,0,1,224.677,640.815Zm-4.671-8.663a4.67,4.67,0,0,0,9.34,0V628.8h-9.34Z" transform="translate(-216.012 -624.806)" fill="#600"/>
      </g>
      <g id="Group_28" data-name="Group 28" transform="translate(15.903 23.334)">
        <path id="Path_69" data-name="Path 69" d="M221.5,635.17h-.2a2,2,0,0,1-2-2V620.5a2,2,0,0,1,2-2,2.175,2.175,0,0,1,2.2,2v12.67A2,2,0,0,1,221.5,635.17Zm0-2h0Z" transform="translate(-219.301 -618.506)" fill="#600"/>
      </g>
      <g id="Group_29" data-name="Group 29" transform="translate(9.777 21.1)">
        <path id="Path_70" data-name="Path 70" d="M224.457,623.729a2,2,0,0,1-.923-.226l-2.786-1.432-1.031,1.029a2,2,0,0,1-2.824,0,2.173,2.173,0,0,1-.14-2.964l2.163-2.163a1.992,1.992,0,0,1,2.325-.366l3.215,1.654,3.213-1.654a2,2,0,0,1,2.353.394l2.135,2.135a2,2,0,0,1,0,2.824,2.175,2.175,0,0,1-2.964.14l-1.032-1.029-2.792,1.436A2,2,0,0,1,224.457,623.729Z" transform="translate(-216.233 -617.387)" fill="#600"/>
      </g>
    </g>
    <g id="Group_31" data-name="Group 31" transform="translate(0 0)">
      <path id="Path_71" data-name="Path 71" d="M268.02,699.675H228.557a2,2,0,0,1-2-2V686.2a2,2,0,0,0-2-2h-8.238a10,10,0,0,1-9.985-9.985V663.171l-5.893-1.965a5.994,5.994,0,0,1-3.243-8.767l9.141-15.232A37.944,37.944,0,1,1,270.017,665.6v32.077A2,2,0,0,1,268.02,699.675Zm-37.465-3.994h35.468V664.714a1.99,1.99,0,0,1,.677-1.5,33.935,33.935,0,1,0-56.366-25.449,1.979,1.979,0,0,1-.286,1.026l-9.42,15.7a1.995,1.995,0,0,0,1.08,2.92l7.259,2.423a2,2,0,0,1,1.366,1.9v12.482a6,6,0,0,0,5.991,5.991h8.238a6,6,0,0,1,5.991,5.991Z" transform="translate(-196.348 -599.823)" fill="#600"/>
    </g>
  </g>
</svg>
