<?xml version="1.0" encoding="utf-8"?>
<!-- Generator: Adobe Illustrator 25.0.1, SVG Export Plug-In . SVG Version: 6.00 Build 0)  -->
<svg version="1.1" id="Layer_1" xmlns="http://www.w3.org/2000/svg" xmlns:xlink="http://www.w3.org/1999/xlink" x="0px" y="0px"
	 viewBox="0 0 99.2 98.7" style="enable-background:new 0 0 99.2 98.7;" xml:space="preserve">
<style type="text/css">
	.st0{fill:#660000;}
</style>
<g>
	<path class="st0" d="M70.9,79.7v-5.5c2.9,0,5.3-2.4,5.3-5.3c0-2.9-2.4-5.3-5.3-5.3c0.3-6.4,2.4-11.2,4.3-15.4
		c1.7-3.9,3.4-7.6,3.4-11.9c0-9.8-6.5-19.3-17.1-24.7C52.9,6.9,46,3.3,46,3.3c-0.5-0.3-1.1-0.3-1.6,0c-1.9,1-3.2,2.4-3.9,4.3
		c-0.9,2.8-0.1,5.9,0.5,7.6L27.4,31.6c-0.3,0.4-0.5,0.9-0.4,1.3c0.3,2.9,2,7.8,6.5,7.8c3.9,0,4.9-2.1,5.5-3.5c0.2-0.4,0.4-0.8,0.6-1
		c0.3-0.3,1.7-0.1,2.8,0.1c1.2,0.2,2.6,0.4,4.1,0.4c2.1,0,3.6-1.1,4.8-2.6c0,0.3,0,0.6,0,0.9c0,3.4-5.3,8.2-10.4,12.9
		C35.3,53,29.6,58.2,28.5,63.6h-0.2c-2.9,0-5.3,2.4-5.3,5.3c0,2.9,2.4,5.3,5.3,5.3v5.5c-6,0.9-10.7,6-10.7,12.3v1.8
		c0,1,0.8,1.8,1.8,1.8h60.4c1,0,1.8-0.8,1.8-1.8V92C81.6,85.7,76.9,80.6,70.9,79.7z M43.3,50.5c5.9-5.4,11.6-10.5,11.6-15.5
		c0-3.7-1.5-6.6-1.6-6.7c-0.3-0.6-0.9-0.9-1.6-0.9c-0.1,0-0.2,0-0.2,0c-0.7,0.1-1.3,0.6-1.5,1.4c-0.2,1-1.5,4.5-3.5,4.5
		c-1.3,0-2.5-0.2-3.6-0.4c-2.1-0.3-4.3-0.7-5.8,0.9c-0.7,0.7-1,1.4-1.3,2.1c-0.5,1.1-0.7,1.4-2.3,1.4c-1.7,0-2.5-2.7-2.8-4
		l13.7-16.6c0.5-0.5,0.5-1.3,0.2-1.9c0,0-1.6-3.4-0.8-5.9c0.2-0.7,0.7-1.4,1.3-1.8C47.3,8,53.1,11,60,14.6
		c9.4,4.9,15.2,13.1,15.2,21.6c0,3.6-1.4,6.8-3.1,10.5c-2,4.6-4.3,9.7-4.7,16.9l-35.3,0C33.4,59.5,38.6,54.8,43.3,50.5z M26.5,68.9
		c0-1,0.8-1.8,1.8-1.8h42.7c1,0,1.8,0.8,1.8,1.8c0,1-0.8,1.8-1.8,1.8h-1.8c0,0,0,0,0,0H30c0,0,0,0,0,0h-1.8
		C27.3,70.7,26.5,69.9,26.5,68.9z M67.4,74.2v5.3H31.8v-5.3H67.4z M21.1,92c0-4.9,4-8.9,8.9-8.9h39.1c4.9,0,8.9,4,8.9,8.9H21.1z"/>
</g>
</svg>
