<svg xmlns="http://www.w3.org/2000/svg" width="56.8" height="77" viewBox="0 0 56.8 77">
  <g id="icon-step-1" transform="translate(-34.1 -24)">
    <path id="Path_2154" data-name="Path 2154" d="M63.4,100.1H52.1V36.4l-18,11.1V35.3L53.1,24H63.5v76.1Z" fill="#600"/>
    <path id="Path_2155" data-name="Path 2155" d="M88.6,87.6a7.637,7.637,0,0,1,2.3,5.5,7.865,7.865,0,0,1-2.3,5.6,7.257,7.257,0,0,1-5.5,2.3,7.537,7.537,0,0,1-5.6-2.3,7.865,7.865,0,0,1-2.3-5.6,7.472,7.472,0,0,1,2.3-5.5,7.7,7.7,0,0,1,5.6-2.3A7.472,7.472,0,0,1,88.6,87.6Z" fill="#600"/>
  </g>
</svg>
