<?xml version="1.0" encoding="utf-8"?>
<!-- Generator: Adobe Illustrator 25.0.1, SVG Export Plug-In . SVG Version: 6.00 Build 0)  -->
<svg version="1.1" id="Layer_1" xmlns="http://www.w3.org/2000/svg" xmlns:xlink="http://www.w3.org/1999/xlink" x="0px" y="0px"
	 viewBox="0 0 99.2 98.7" style="enable-background:new 0 0 99.2 98.7;" xml:space="preserve">
<style type="text/css">
	.st0{fill:#FFFFFF;}
	.st1{fill:#660000;}
</style>
<g>
	<path class="st0" d="M31.5,35.6v-1.7c0-2.3,0.7-4.5,1.8-6.3L14.3,8.7c-0.3-0.3-0.5-0.8-0.5-1.2s0.2-0.9,0.5-1.2l1.4-1.4H5.4v10.2
		l1.5-1.5c0.7-0.7,1.8-0.7,2.5,0L31.5,35.6z"/>
	<path class="st0" d="M89.9,83.6L65.2,59.2h-3.5v6.3l23.2,23c0.3,0.3,0.5,0.8,0.5,1.2s-0.2,0.9-0.5,1.2l-1.4,1.4h10.3V82.2l-1.5,1.5
		C91.7,84.3,90.6,84.3,89.9,83.6z"/>
	<path class="st0" d="M9.3,83.6c-0.7,0.7-1.8,0.7-2.5,0l-1.5-1.5v10.2h10.3L14.3,91c-0.3-0.3-0.5-0.8-0.5-1.2s0.2-0.9,0.5-1.2
		l23.2-23v-6.3H34L9.3,83.6z"/>
	<path class="st0" d="M85.5,7.5c0,0.5-0.2,0.9-0.5,1.2L65.9,27.6c1.1,1.8,1.8,4,1.8,6.3v1.7l22.2-22c0.7-0.7,1.8-0.7,2.5,0l1.5,1.5
		V4.9H83.5l1.4,1.4C85.3,6.6,85.5,7,85.5,7.5z"/>
	<path class="st1" d="M91.1,17.3l3.2,3.2c0.5,0.5,1.3,0.6,1.9,0.4c0.7-0.3,1.1-0.9,1.1-1.6V3.1c0-1-0.8-1.8-1.8-1.8H79.3
		c-0.7,0-1.3,0.4-1.6,1.1c-0.3,0.7-0.1,1.4,0.4,1.9l3.2,3.2L63.6,25c-2.1-1.9-5-3.1-8.1-3.1H43.7c-3.1,0-5.9,1.2-8.1,3.1L18,7.5
		l3.2-3.2c0.5-0.5,0.7-1.3,0.4-1.9c-0.3-0.7-0.9-1.1-1.6-1.1H3.6c-1,0-1.8,0.8-1.8,1.8v16.2c0,0.7,0.4,1.3,1.1,1.6
		c0.7,0.3,1.4,0.1,1.9-0.4l3.2-3.2l23.5,23.2v16.2L8.1,79.9l-3.2-3.2c-0.5-0.5-1.3-0.6-1.9-0.4c-0.7,0.3-1.1,0.9-1.1,1.6v16.2
		c0,1,0.8,1.8,1.8,1.8h16.3c0.7,0,1.3-0.4,1.6-1.1c0.3-0.7,0.1-1.4-0.4-1.9L18,89.7l19.5-19.3v25.2c0,1,0.8,1.8,1.8,1.8
		c1,0,1.7-0.8,1.7-1.7c0,0,0,0,0,0V59.2h17.3v36.4c0,0,0,0,0,0c0,1,0.8,1.7,1.7,1.7c1,0,1.8-0.8,1.8-1.8V70.4l19.5,19.3L78,92.9
		c-0.5,0.5-0.7,1.3-0.4,1.9c0.3,0.7,0.9,1.1,1.6,1.1h16.3c1,0,1.8-0.8,1.8-1.8V78c0-0.7-0.4-1.3-1.1-1.6s-1.4-0.1-1.9,0.4l-3.2,3.2
		L67.7,56.7V40.5L91.1,17.3z M93.8,82.2v10.2H83.5l1.4-1.4c0.3-0.3,0.5-0.8,0.5-1.2s-0.2-0.9-0.5-1.2l-23.2-23v-6.3h3.5l24.7,24.5
		c0.7,0.7,1.8,0.7,2.5,0L93.8,82.2z M64.2,55.7H60H39.2H35V33.9c0-4.7,3.9-8.5,8.6-8.5h11.9c4.8,0,8.6,3.8,8.6,8.5V55.7z M37.5,65.5
		l-23.2,23c-0.3,0.3-0.5,0.8-0.5,1.2s0.2,0.9,0.5,1.2l1.4,1.4H5.4V82.2l1.5,1.5c0.7,0.7,1.8,0.7,2.5,0L34,59.2h3.5V65.5z M6.8,13.6
		l-1.5,1.5V4.9h10.3l-1.4,1.4c-0.3,0.3-0.5,0.8-0.5,1.2s0.2,0.9,0.5,1.2l19.1,18.9c-1.1,1.8-1.8,4-1.8,6.3v1.7l-22.2-22
		C8.6,12.9,7.5,12.9,6.8,13.6z M93.8,4.9v10.2l-1.5-1.5c-0.7-0.7-1.8-0.7-2.5,0l-22.2,22v-1.7c0-2.3-0.7-4.5-1.8-6.3L84.9,8.7
		c0.3-0.3,0.5-0.8,0.5-1.2s-0.2-0.9-0.5-1.2l-1.4-1.4H93.8z"/>
	<path class="st0" d="M43.9,10.4c0,3.1,2.5,5.6,5.7,5.6s5.7-2.5,5.7-5.6s-2.5-5.6-5.7-5.6S43.9,7.4,43.9,10.4z"/>
	<path class="st0" d="M58.2,59.2H41v36.4c0,0,0,0,0,0h6.9c0,0,0,0,0,0V61.8c0-1,0.8-1.8,1.8-1.8s1.7,0.8,1.7,1.8v33.8c0,0,0,0,0,0
		h6.9c0,0,0,0,0,0V59.2z"/>
	<path class="st1" d="M51.3,61.8c0-1-0.8-1.8-1.7-1.8s-1.8,0.8-1.8,1.8v33.8c0,0,0,0,0,0c0,1,0.8,1.7,1.7,1.7s1.7-0.8,1.7-1.7
		c0,0,0,0,0,0V61.8z"/>
	<path class="st1" d="M49.6,19.5c5.1,0,9.2-4.1,9.2-9.1s-4.1-9.1-9.2-9.1c-5.1,0-9.2,4.1-9.2,9.1S44.5,19.5,49.6,19.5z M55.3,10.4
		c0,3.1-2.5,5.6-5.7,5.6s-5.7-2.5-5.7-5.6s2.5-5.6,5.7-5.6S55.3,7.4,55.3,10.4z"/>
	<path class="st1" d="M48.1,31.3h3c1,0,1.8-0.8,1.8-1.8s-0.8-1.8-1.8-1.8h-3c-1,0-1.8,0.8-1.8,1.8S47.2,31.3,48.1,31.3z"/>
	<path class="st1" d="M48.1,37.2h3c1,0,1.8-0.8,1.8-1.8s-0.8-1.8-1.8-1.8h-3c-1,0-1.8,0.8-1.8,1.8S47.2,37.2,48.1,37.2z"/>
</g>
</svg>
