<?xml version="1.0" encoding="utf-8"?>
<!-- Generator: Adobe Illustrator 25.0.1, SVG Export Plug-In . SVG Version: 6.00 Build 0)  -->
<svg version="1.1" id="Layer_1" xmlns="http://www.w3.org/2000/svg" xmlns:xlink="http://www.w3.org/1999/xlink" x="0px" y="0px"
	 viewBox="0 0 99.2 98.7" style="enable-background:new 0 0 99.2 98.7;" xml:space="preserve">
<style type="text/css">
	.st0{fill:#FFFFFF;}
	.st1{fill:#660000;}
	.st2{display:none;}
	.st3{display:inline;}
	.st4{fill:none;stroke:#660000;stroke-width:3.5;stroke-linecap:round;stroke-linejoin:round;stroke-miterlimit:10;}
	.st5{fill:#76E1E5;stroke:#660000;stroke-width:3.5;stroke-miterlimit:10;}
</style>
<g>
	<path class="st0" d="M93.8,14.1V8l-8.6,8.5v35.7H73.3v-24l-3,2.9v21H58.5V25.4l-5.9-5.9L40.7,31.3v21H28.8V37.1L15.5,23.9l-10.1,10
		v22.8h0.9c0-1,0.8-1.7,1.8-1.7h83c1,0,1.7,0.8,1.8,1.7h0.9V20c0-1,0.8-1.7,1.7-1.8v-2.4C94.6,15.9,93.8,15.1,93.8,14.1z M25.9,52.3
		H14V39.1h11.9V52.3z M55.5,52.3H43.7v-22h11.9V52.3z"/>
	<path class="st0" d="M16.7,20.2l12.1,12V18.5h11.9v7.8l10.6-10.5c0.7-0.7,1.8-0.7,2.5,0l5.7,5.6h10.9v4.9l3-2.9V9.7h11.9v1.9
		l6.1-6.1h-6.1c-1,0-1.7-0.8-1.8-1.7H81c0,1-0.8,1.7-1.8,1.7H5.4v18.8c0,1-0.8,1.8-1.8,1.8h0v4.6l10.6-10.5
		C14.9,19.5,16,19.5,16.7,20.2z"/>
	<path class="st1" d="M96.4,86l-8.7-4.9c1.4-2,2.2-4.6,2.2-7.5c0-4.6-1-9.8-9.2-9.8s-9.2,5.3-9.2,9.8c0,2.9,0.8,5.5,2.2,7.5
		l-7.9,4.5L56.6,81c1.3-2,2.1-4.5,2.1-7.4c0-4.6-1-9.8-9.2-9.8c-8.1,0-9.2,5.3-9.2,9.8c0,2.9,0.8,5.4,2.1,7.4l-9.2,4.6l-7.9-4.5
		c1.4-2,2.2-4.6,2.2-7.5c0-4.6-1-9.8-9.2-9.8S9.3,69,9.3,73.6c0,2.9,0.8,5.5,2.2,7.5L2.8,86c-0.5,0.3-0.9,0.9-0.9,1.5v2.9
		c0,3.3,2.2,6.2,4.7,6.2h86c2.6,0,4.7-2.8,4.7-6.2v-2.9C97.3,86.9,97,86.3,96.4,86z M93.8,90.5c0,1.7-0.9,2.6-1.2,2.7H67.2
		c0.3-0.3,0.5-0.7,0.5-1.2v-3.4l8.7-4.9c1.3,0.8,2.8,1.3,4.3,1.3c1.6,0,3.1-0.5,4.3-1.3l8.7,4.9V90.5z M5.4,90.5v-1.9l8.7-4.9
		c1.3,0.8,2.8,1.3,4.3,1.3s3.1-0.5,4.3-1.3l8.7,4.9v3.4c0,0.5,0.2,0.9,0.5,1.2H6.6h0h0C6.3,93.1,5.4,92.1,5.4,90.5z M18.5,67.3
		c4.3,0,5.7,1.5,5.7,6.3c0,3.8-2,7.8-5.7,7.8s-5.7-4-5.7-7.8C12.8,68.7,14.1,67.3,18.5,67.3z M55.3,73.6c0,3.8-2,7.8-5.7,7.8
		c-3.7,0-5.7-4-5.7-7.8c0-4.8,1.3-6.3,5.7-6.3S55.3,68.7,55.3,73.6z M80.7,67.3c4.3,0,5.7,1.5,5.7,6.3c0,3.8-2,7.8-5.7,7.8
		s-5.7-4-5.7-7.8C75.1,68.7,76.4,67.3,80.7,67.3z M35,91.9v-3.3l10.2-5c1.3,0.8,2.8,1.3,4.4,1.3s3.1-0.5,4.4-1.3l10.2,5v3.3
		c0,0.5,0.2,0.9,0.5,1.2H34.6C34.9,92.8,35,92.4,35,91.9z"/>
	<path class="st1" d="M93.8,20v36.7V64c0,1,0.8,1.8,1.8,1.8s1.8-0.8,1.8-1.8V20c0-1-0.8-1.8-1.8-1.8c0,0,0,0,0,0
		C94.6,18.2,93.8,19,93.8,20z"/>
	<path class="st1" d="M97.3,3.8c0-0.1,0-0.2,0-0.3c0-0.1,0-0.1,0-0.2c0-0.1,0-0.1-0.1-0.2c0-0.1-0.1-0.1-0.1-0.2c0,0,0-0.1-0.1-0.1
		c-0.1-0.1-0.1-0.1-0.2-0.2c0,0,0,0,0,0c0,0,0,0,0,0c-0.1-0.1-0.2-0.2-0.3-0.2c0,0-0.1,0-0.1-0.1c-0.1,0-0.1-0.1-0.2-0.1
		c0,0-0.1,0-0.2,0c-0.1,0-0.1,0-0.2-0.1c-0.1,0-0.2,0-0.3,0c0,0,0,0,0,0H85.2c-1,0-1.8,0.8-1.8,1.8c0,0,0,0,0,0c0,1,0.8,1.7,1.8,1.7
		h6.1l-6.1,6.1V9.7H73.3v13.7l-3,2.9v-4.9H59.5l-5.7-5.6c-0.7-0.7-1.8-0.7-2.5,0L40.7,26.3v-7.8H28.8v13.7l-12.1-12
		c-0.7-0.7-1.8-0.7-2.5,0L3.6,30.7L2.4,32c-0.3,0.3-0.5,0.8-0.5,1.2V64c0,1,0.8,1.8,1.8,1.8S5.4,65,5.4,64v-7.3V33.9l10.1-10
		l13.3,13.2v15.2h11.9v-21l11.9-11.7l5.9,5.9v26.9h11.9v-21l3-2.9v24h11.9V16.6L93.8,8v6.1c0,1,0.8,1.7,1.7,1.8c0,0,0,0,0,0
		c1,0,1.8-0.8,1.8-1.8L97.3,3.8C97.3,3.8,97.3,3.8,97.3,3.8z M32.3,48.8V22h4.9v26.8H32.3z M62,25h4.9v23.8H62V25z M76.8,48.8V13.2
		h4.9v35.6H76.8z"/>
	<path class="st1" d="M5.4,24.4V5.6h73.9c1,0,1.7-0.8,1.8-1.7c0,0,0,0,0,0c0-1-0.8-1.8-1.8-1.8H3.6c-1,0-1.8,0.8-1.8,1.8v20.6
		c0,1,0.8,1.8,1.7,1.8h0C4.6,26.1,5.4,25.4,5.4,24.4z"/>
	<path class="st1" d="M91.1,54.9h-83c-1,0-1.7,0.8-1.8,1.7c0,0,0,0,0,0c0,1,0.8,1.8,1.8,1.8h83c1,0,1.8-0.8,1.8-1.8c0,0,0,0,0,0
		C92.9,55.7,92.1,54.9,91.1,54.9z"/>
	<rect x="17.5" y="42.6" class="st0" width="4.9" height="6.2"/>
	<path class="st1" d="M14,52.3h11.9V39.1H14V52.3z M17.5,42.6h4.9v6.2h-4.9V42.6z"/>
	<rect x="32.3" y="22" class="st0" width="4.9" height="26.8"/>
	<rect x="47.2" y="33.8" class="st0" width="4.9" height="15"/>
	<path class="st1" d="M43.7,52.3h11.9v-22H43.7V52.3z M47.2,33.8H52v15h-4.9V33.8z"/>
	<rect x="62" y="25" class="st0" width="4.9" height="23.8"/>
	<rect x="76.8" y="13.2" class="st0" width="4.9" height="35.6"/>
</g>
<g class="st2">
	<g class="st3">
		<g>
			<g>
				<g>
					<polygon class="st0" points="83.7,89.7 79.3,94.1 95.6,94.1 95.6,78 91.1,82.4 15.5,7.5 19.9,3.1 3.6,3.1 3.6,19.3 8.1,14.8 
											"/>
					<polygon class="st4" points="83.7,89.7 79.3,94.1 95.6,94.1 95.6,78 91.1,82.4 15.5,7.5 19.9,3.1 3.6,3.1 3.6,19.3 8.1,14.8 
											"/>
				</g>
			</g>
			<g>
				<g>
					<polygon class="st0" points="83.7,7.5 79.3,3.1 95.6,3.1 95.6,19.3 91.1,14.8 15.5,89.7 19.9,94.1 3.6,94.1 3.6,78 8.1,82.4 
											"/>
					<polygon class="st4" points="83.7,7.5 79.3,3.1 95.6,3.1 95.6,19.3 91.1,14.8 15.5,89.7 19.9,94.1 3.6,94.1 3.6,78 8.1,82.4 
											"/>
				</g>
			</g>
		</g>
		<g>
			<ellipse class="st0" cx="49.6" cy="10.4" rx="7.4" ry="7.3"/>
			<g>
				<rect x="39.2" y="57.4" class="st0" width="20.8" height="38.2"/>
				<path class="st5" d="M55.5,23.7H43.7c-5.7,0-10.4,4.6-10.4,10.3v23.5h5.9H60h5.9V33.9C65.9,28.3,61.3,23.7,55.5,23.7z"/>
			</g>
			<line class="st4" x1="49.6" y1="95.6" x2="49.6" y2="61.8"/>
			<ellipse class="st4" cx="49.6" cy="10.4" rx="7.4" ry="7.3"/>
			<path class="st4" d="M39.2,95.6V57.4h-5.9V33.9c0-5.7,4.6-10.3,10.4-10.3h11.9c5.7,0,10.4,4.6,10.4,10.3v23.5H60v38.2"/>
		</g>
		<line class="st4" x1="48.1" y1="29.5" x2="51.1" y2="29.5"/>
		<line class="st4" x1="48.1" y1="35.4" x2="51.1" y2="35.4"/>
	</g>
</g>
</svg>
