<?xml version="1.0" encoding="utf-8"?>
<!-- Generator: Adobe Illustrator 25.0.0, SVG Export Plug-In . SVG Version: 6.00 Build 0)  -->
<svg version="1.1" id="Layer_1" xmlns="http://www.w3.org/2000/svg" xmlns:xlink="http://www.w3.org/1999/xlink" x="0px" y="0px"
	 viewBox="0 0 200 200" style="enable-background:new 0 0 200 200;" xml:space="preserve">
<style type="text/css">
	.st0{fill:#660000;}
</style>
<g>
	<path class="st0" d="M174.5,145.2h-7.4v-9.7c0-2.8-2.2-5-5-5h-1.9V99.4c0.2-0.6,0.8-2,1.3-3.1c1.6-3.3,3.5-7.5,3.5-11.7
		c0-0.9-0.3-1.7-0.7-2.4c0.2-0.3,0.3-0.6,0.4-1c0.6-2.1-0.2-4.4-2-5.6l-60.5-40.6c-0.8-0.6-1.8-0.8-2.8-0.8c-1,0-1.9,0.3-2.8,0.8
		L36.2,75.5c-1.8,1.2-2.6,3.5-2,5.6c0.1,0.4,0.3,0.7,0.4,1c-0.4,0.7-0.7,1.6-0.7,2.4c0,4.2,1.9,8.4,3.5,11.7c0.5,1,1.2,2.5,1.3,3.1
		v31.2h-1.9c-2.8,0-5,2.2-5,5v9.7h-7.4c-2.8,0-5,2.2-5,5v9.7c0,2.8,2.2,5,5,5h150c2.8,0,5-2.2,5-5v-9.7
		C179.5,147.5,177.3,145.2,174.5,145.2z M56.1,79.6l43.4-28.4l43.4,28.4H56.1z M99.5,39.1l60.4,40.5H148c0-1.6-0.8-3.2-2.3-4.1
		L102.2,47c-0.8-0.5-1.8-0.8-2.7-0.8s-1.9,0.3-2.7,0.8L53.2,75.5C51.8,76.4,51,78,51,79.6H39.1L99.5,39.1z M39,84.7H56H143H160
		c-0.1,5.3-4.8,11.8-4.8,14.4v31.5h-14.4V104c0-6.4-5.5-11.6-12.3-11.6c-3.9,0-7.4,1.8-9.7,4.5c-2.2-2.7-5.7-4.5-9.7-4.5
		s-7.4,1.8-9.7,4.5c-2.2-2.7-5.7-4.5-9.7-4.5s-7.4,1.8-9.7,4.5c-2.2-2.7-5.7-4.5-9.7-4.5c-6.8,0-12.3,5.2-12.3,11.6v26.5H43.9V99.1
		C43.9,96.5,39.1,90,39,84.7z M77.6,104v26.5H63.2V104c0-3.7,3.3-6.6,7.3-6.6c3.6,0,6.6,2.4,7.2,5.6C77.6,103.3,77.6,103.7,77.6,104
		z M82.7,103c0.6-3.1,3.5-5.6,7.2-5.6c3.6,0,6.6,2.4,7.2,5.6c0,0.4-0.1,0.7-0.1,1.1v26.5H82.7V104C82.7,103.7,82.7,103.3,82.7,103z
		 M102,103c0.6-3.1,3.5-5.6,7.2-5.6c3.6,0,6.6,2.4,7.2,5.6c0,0.4-0.1,0.7-0.1,1.1v26.5h-14.2V104C102.1,103.7,102.1,103.3,102,103z
		 M121.4,103c0.6-3.1,3.5-5.6,7.2-5.6c4,0,7.3,3,7.3,6.6v26.5h-14.4V104C121.4,103.7,121.4,103.3,121.4,103z M36.9,135.6h6.9h19.4
		h14.5h4.8h14.5h4.8h14.5h4.8h14.5h19.4h6.9v9.7H36.9V135.6z M174.5,159.9h-150v-9.7h12.4h125.2h12.4V159.9z"/>
</g>
</svg>
