<?xml version="1.0" encoding="utf-8"?>
<!-- Generator: Adobe Illustrator 25.0.1, SVG Export Plug-In . SVG Version: 6.00 Build 0)  -->
<svg version="1.1" id="Layer_1" xmlns="http://www.w3.org/2000/svg" xmlns:xlink="http://www.w3.org/1999/xlink" x="0px" y="0px"
	 viewBox="0 0 99.2 98.7" style="enable-background:new 0 0 99.2 98.7;" xml:space="preserve">
<style type="text/css">
	.st0{fill:none;}
	.st1{fill:#660000;}
	.st2{display:none;}
	.st3{display:inline;}
	.st4{fill:#FFFFFF;}
	.st5{fill:#76E1E5;}
	.st6{fill:none;stroke:#660000;stroke-width:3.5;stroke-linecap:round;stroke-linejoin:round;stroke-miterlimit:10;}
	.st7{fill:#FFC269;}
	.st8{fill:#76E1E5;stroke:#660000;stroke-width:3.5;stroke-miterlimit:10;}
</style>
<g>
	<path class="st0" d="M22.6,61.1c0-3.4,2.8-6.2,6.2-6.2h41.5c3.4,0,6.2,2.8,6.2,6.2v5.6H82v-1.2c0-9.4-5.2-11.2-12.3-13.7
		c-2.6-0.9-5.2-1.9-7.8-3.2l-5,5C56.4,53.9,56,54,55.5,54c-0.3,0-0.5-0.1-0.8-0.2l-5.2-2.6l-5.2,2.6c-0.7,0.3-1.5,0.2-2-0.3l-5-5
		c-2.6,1.4-5.3,2.3-7.8,3.2c-7.2,2.5-12.3,4.4-12.3,13.7v1.2h5.4V61.1z"/>
	<path class="st1" d="M95.6,66.7H85.5v-1.2c0-11.8-7.1-14.4-14.7-17c-2.7-1-5.5-1.9-8.1-3.4l-2.7-4c-0.3-0.4-0.7-0.7-1.2-0.7
		c0,0,0-3.3,0-3.3c0-0.2,0.7-0.7,0.8-0.9c0.4-0.4,0.7-0.9,1-1.3c0.9-1.3,1.6-2.7,2.2-4.2c0.8-2.1,1.5-4.3,1.8-6.5
		c0.3-2.3,0.2-4.6,0.2-7c0,0,0,0,0-0.1c0,0,0-0.1,0-0.1c0-9.9-5.1-14.9-15.1-14.9c-3.2,0-6.6,0.5-9.4,2.3c-2.5,1.6-4.1,4-4.9,6.8
		c-0.7,2.2-0.8,4.6-0.8,6.9c0,2.3-0.1,4.6,0.3,6.9c0.4,2.1,0.9,4.1,1.7,6c0.9,2.2,2.1,4.3,3.9,6c0,0,0,0,0,0c0,0,0,3.3,0,3.3
		c-0.5,0.1-0.9,0.3-1.2,0.7l-2.7,4c-2.7,1.5-5.4,2.5-8.1,3.4c-7.5,2.7-14.7,5.2-14.7,17v1.2H3.6c-1,0-1.8,0.8-1.8,1.8v26.4
		c0,1,0.8,1.8,1.8,1.8h14.8c1,0,1.8-0.8,1.7-1.8c0-1-0.8-1.7-1.7-1.7H5.4V70.2h17.3v2.4h-2.7c-1,0-1.8,0.8-1.8,1.8v11.7
		c0,0.3,0.1,0.5,0.2,0.8l4.1,8l0.4,0.8c0,0,0,0,0,0.1c0.1,0.1,0.1,0.2,0.2,0.3c0,0,0,0,0.1,0.1c0.1,0.1,0.2,0.2,0.3,0.3
		c0,0,0.1,0,0.1,0c0.1,0.1,0.2,0.1,0.3,0.1c0,0,0.1,0,0.1,0c0.1,0,0.3,0.1,0.4,0.1h50.4c0.1,0,0.3,0,0.4-0.1c0,0,0.1,0,0.1,0
		c0.1,0,0.2-0.1,0.3-0.1c0,0,0.1,0,0.1,0c0.1-0.1,0.2-0.2,0.3-0.3c0,0,0,0,0.1-0.1c0.1-0.1,0.2-0.2,0.2-0.3c0,0,0,0,0-0.1l0.4-0.8
		l4.1-8c0.1-0.2,0.2-0.5,0.2-0.8V74.3c0-1-0.8-1.8-1.8-1.8h-2.7v-2.4h17.3v22.9H80.7c-1,0-1.7,0.8-1.8,1.8c0,1,0.8,1.8,1.8,1.8h14.8
		c1,0,1.8-0.8,1.8-1.8V68.4C97.3,67.5,96.5,66.7,95.6,66.7z M22.6,87.5l-0.9-1.9v-9.6h0.9V87.5z M38.1,22.8c0-0.1,0-0.1,0-0.2
		c-0.2-2.3-0.2-4.8,0-7.1c0.2-2,0.6-4,1.7-5.7c1.8-2.8,5.1-3.9,8.3-4.1c0.5,0,1.1-0.1,1.6-0.1c3.1,0,6.5,0.5,8.8,2.8
		c1.8,1.8,2.4,4.3,2.6,6.7c0.2,2.4,0.5,5.3,0.2,7.7c-1.2,8.5-4.6,11.4-5.1,11.8c-2.6,1.2-6.5,1.2-6.5,1.2c-1.1,0-4.4-0.2-6.5-1.2
		c-0.5-0.2-0.9-0.9-1.2-1.3c-0.8-1.1-1.5-2.3-2-3.5C38.9,27.6,38.3,25.2,38.1,22.8z M55.3,38.6v2.2l-5.7,0.9l-5.7-0.9v-2.2
		c2.8,0.7,5.5,0.7,5.7,0.7S52.5,39.3,55.3,38.6z M41.5,43.9l7.8,1.3c0.2,0,0.4,0,0.6,0l7.8-1.3l1.5,2.3l-4,4l-4.8-2.4
		c-0.2-0.1-0.5-0.2-0.8-0.2s-0.5,0.1-0.8,0.2L44,50.2l-4-4L41.5,43.9z M73.1,93.1H26.1v-32c0-1.5,1.2-2.7,2.7-2.7h41.5
		c1.5,0,2.7,1.2,2.7,2.7V93.1z M77.5,76.1v9.6l-0.9,1.9V76.1H77.5z M82,66.7h-5.4v-5.6c0-3.4-2.8-6.2-6.2-6.2H28.8
		c-3.4,0-6.2,2.8-6.2,6.2v5.6h-5.4v-1.2c0-9.4,5.2-11.2,12.3-13.7c2.6-0.9,5.2-1.9,7.8-3.2l5,5c0.5,0.5,1.3,0.7,2,0.3l5.2-2.6
		l5.2,2.6C55,54,55.3,54,55.5,54c0.5,0,0.9-0.2,1.2-0.5l5-5c2.6,1.4,5.3,2.3,7.8,3.2C76.8,54.3,82,56.1,82,65.5V66.7z"/>
</g>
<g class="st2">
	<g class="st3">
		<rect x="3.6" y="3.8" class="st4" width="91.9" height="52.9"/>
		<g>
			<g>
				<path class="st5" d="M6.6,94.9c-1.5,0-3-2-3-4.4c0-2.4,0-2.9,0-2.9L14,81.7h8.9l10.4,5.9l0,0l11.9-5.9H54l11.9,5.9l0,0l10.4-5.9
					h8.9l10.4,5.9c0,0,0,0.5,0,2.9c0,2.4-1.5,4.4-3,4.4H6.6z"/>
				<path class="st6" d="M6.6,94.9c-1.5,0-3-2-3-4.4c0-2.4,0-2.9,0-2.9L14,81.7h8.9l10.4,5.9l0,0l11.9-5.9H54l11.9,5.9l0,0l10.4-5.9
					h8.9l10.4,5.9c0,0,0,0.5,0,2.9c0,2.4-1.5,4.4-3,4.4H6.6z"/>
				<path class="st7" d="M25.9,73.6c0,5.1-2.9,9.5-7.4,9.5S11,78.7,11,73.6c0-5.1,1.5-8.1,7.4-8.1S25.9,68.4,25.9,73.6z"/>
				<path class="st6" d="M25.9,73.6c0,5.1-2.9,9.5-7.4,9.5S11,78.7,11,73.6c0-5.1,1.5-8.1,7.4-8.1S25.9,68.4,25.9,73.6z"/>
				<path class="st7" d="M57,73.6c0,5.1-2.9,9.5-7.4,9.5s-7.4-4.4-7.4-9.5c0-5.1,1.5-8.1,7.4-8.1S57,68.4,57,73.6z"/>
				<path class="st6" d="M57,73.6c0,5.1-2.9,9.5-7.4,9.5s-7.4-4.4-7.4-9.5c0-5.1,1.5-8.1,7.4-8.1S57,68.4,57,73.6z"/>
				<path class="st7" d="M88.2,73.6c0,5.1-2.9,9.5-7.4,9.5s-7.4-4.4-7.4-9.5c0-5.1,1.5-8.1,7.4-8.1S88.2,68.4,88.2,73.6z"/>
				<path class="st6" d="M88.2,73.6c0,5.1-2.9,9.5-7.4,9.5s-7.4-4.4-7.4-9.5c0-5.1,1.5-8.1,7.4-8.1S88.2,68.4,88.2,73.6z"/>
				<line class="st6" x1="33.3" y1="87.5" x2="33.3" y2="91.9"/>
				<line class="st6" x1="65.9" y1="87.5" x2="65.9" y2="91.9"/>
			</g>
		</g>
		<line class="st6" x1="95.6" y1="20" x2="95.6" y2="64"/>
		<polyline class="st6" points="85.2,3.8 95.6,3.8 95.6,14.1 		"/>
		<polyline class="st6" points="3.6,24.4 3.6,3.8 79.3,3.8 		"/>
		<line class="st6" x1="8.1" y1="56.7" x2="91.1" y2="56.7"/>
		<polyline class="st6" points="3.6,64 3.6,33.2 15.5,21.5 31.8,37.6 52.6,17 67.4,31.7 95.6,3.8 		"/>
		<g>
			<rect x="15.8" y="40.8" class="st4" width="8.4" height="9.7"/>
			<path class="st1" d="M22.4,42.6v6.2h-4.9v-6.2H22.4 M25.9,39.1H14v13.2h11.9V39.1L25.9,39.1z"/>
		</g>
		<g>
			<rect x="30.6" y="20.3" class="st4" width="8.4" height="30.3"/>
			<path class="st1" d="M37.2,22v26.8h-4.9V22H37.2 M40.7,18.5H28.8v33.8h11.9V18.5L40.7,18.5z"/>
		</g>
		<g>
			<rect x="45.4" y="32" class="st4" width="8.4" height="18.5"/>
			<path class="st1" d="M52,33.8v15h-4.9v-15H52 M55.5,30.3H43.7v22h11.9V30.3L55.5,30.3z"/>
		</g>
		<g>
			<rect x="60.2" y="23.2" class="st4" width="8.4" height="27.3"/>
			<path class="st1" d="M66.9,25v23.8H62V25H66.9 M70.4,21.5H58.5v30.8h11.9V21.5L70.4,21.5z"/>
		</g>
		<g>
			<rect x="75.1" y="11.5" class="st4" width="8.4" height="39.1"/>
			<path class="st1" d="M81.7,13.2v35.6h-4.9V13.2H81.7 M85.2,9.7H73.3v42.6h11.9V9.7L85.2,9.7z"/>
		</g>
	</g>
</g>
<g class="st2">
	<g class="st3">
		<g>
			<g>
				<g>
					<polygon class="st4" points="83.7,89.7 79.3,94.1 95.6,94.1 95.6,78 91.1,82.4 15.5,7.5 19.9,3.1 3.6,3.1 3.6,19.3 8.1,14.8 
											"/>
					<polygon class="st6" points="83.7,89.7 79.3,94.1 95.6,94.1 95.6,78 91.1,82.4 15.5,7.5 19.9,3.1 3.6,3.1 3.6,19.3 8.1,14.8 
											"/>
				</g>
			</g>
			<g>
				<g>
					<polygon class="st4" points="83.7,7.5 79.3,3.1 95.6,3.1 95.6,19.3 91.1,14.8 15.5,89.7 19.9,94.1 3.6,94.1 3.6,78 8.1,82.4 
											"/>
					<polygon class="st6" points="83.7,7.5 79.3,3.1 95.6,3.1 95.6,19.3 91.1,14.8 15.5,89.7 19.9,94.1 3.6,94.1 3.6,78 8.1,82.4 
											"/>
				</g>
			</g>
		</g>
		<g>
			<ellipse class="st4" cx="49.6" cy="10.4" rx="7.4" ry="7.3"/>
			<g>
				<rect x="39.2" y="57.4" class="st4" width="20.8" height="38.2"/>
				<path class="st8" d="M55.5,23.7H43.7c-5.7,0-10.4,4.6-10.4,10.3v23.5h5.9H60h5.9V33.9C65.9,28.3,61.3,23.7,55.5,23.7z"/>
			</g>
			<line class="st6" x1="49.6" y1="95.6" x2="49.6" y2="61.8"/>
			<ellipse class="st6" cx="49.6" cy="10.4" rx="7.4" ry="7.3"/>
			<path class="st6" d="M39.2,95.6V57.4h-5.9V33.9c0-5.7,4.6-10.3,10.4-10.3h11.9c5.7,0,10.4,4.6,10.4,10.3v23.5H60v38.2"/>
		</g>
		<line class="st6" x1="48.1" y1="29.5" x2="51.1" y2="29.5"/>
		<line class="st6" x1="48.1" y1="35.4" x2="51.1" y2="35.4"/>
	</g>
</g>
</svg>
