<?xml version="1.0" encoding="utf-8"?>
<!-- Generator: Adobe Illustrator 25.0.1, SVG Export Plug-In . SVG Version: 6.00 Build 0)  -->
<svg version="1.1" id="Layer_1" xmlns="http://www.w3.org/2000/svg" xmlns:xlink="http://www.w3.org/1999/xlink" x="0px" y="0px"
	 viewBox="0 0 99.2 98.7" style="enable-background:new 0 0 99.2 98.7;" xml:space="preserve">
<style type="text/css">
	.st0{fill:#660000;}
</style>
<g>
	<g>
		<g>
			<g>
				<path class="st0" d="M89.7,97.3c-0.9,0-1.7-0.8-1.7-1.7V81.8c0-7.9-6.2-10.6-15.8-13.8l-6.1-1.5c-0.9-0.2-1.5-1.1-1.2-2
					c0.2-0.9,1.1-1.5,2-1.2l6.2,1.5c0,0,0.1,0,0.1,0c8.5,2.8,18.1,6,18.1,17v13.9C91.4,96.6,90.7,97.3,89.7,97.3z"/>
			</g>
			<g>
				<path class="st0" d="M9.5,97.3c-0.9,0-1.7-0.8-1.7-1.7V81.8c0-11,9.6-14.2,18.1-17c0,0,0.1,0,0.1,0l6.2-1.5
					c0.9-0.2,1.8,0.3,2,1.2s-0.3,1.8-1.2,2L26.9,68c-9.5,3.2-15.8,5.9-15.8,13.8v13.9C11.2,96.6,10.4,97.3,9.5,97.3z"/>
			</g>
			<g>
				<path class="st0" d="M24.9,97.3c-0.9,0-1.7-0.8-1.7-1.7v-6.2c0-0.9,0.8-1.7,1.7-1.7c0.9,0,1.7,0.8,1.7,1.7v6.2
					C26.6,96.6,25.8,97.3,24.9,97.3z"/>
			</g>
			<g>
				<path class="st0" d="M74.3,97.3c-0.9,0-1.7-0.8-1.7-1.7v-6.2c0-0.9,0.8-1.7,1.7-1.7s1.7,0.8,1.7,1.7v6.2
					C76,96.6,75.2,97.3,74.3,97.3z"/>
			</g>
			<g>
				<path class="st0" d="M40.3,60.3c-0.9,0-1.7-0.8-1.7-1.7v-7.7c0-0.9,0.8-1.7,1.7-1.7S42,50,42,50.9v7.7
					C42,59.5,41.3,60.3,40.3,60.3z"/>
			</g>
			<g>
				<path class="st0" d="M58.9,60.3c-0.9,0-1.7-0.8-1.7-1.7v-7.7c0-0.9,0.8-1.7,1.7-1.7s1.7,0.8,1.7,1.7v7.7
					C60.6,59.5,59.8,60.3,58.9,60.3z"/>
			</g>
			<g>
				<path class="st0" d="M55.8,74.2c-0.4,0-0.9-0.2-1.2-0.5l-5-5l-5,5c-0.5,0.5-1.4,0.6-2,0.3l-13.9-7.7c-0.5-0.3-0.8-0.8-0.9-1.3
					s0.2-1.1,0.6-1.5l7.7-6.2c0.4-0.3,1-0.4,1.5-0.3l11.9,3l11.9-3c0.5-0.1,1.1,0,1.5,0.3l7.7,6.2c0.4,0.4,0.7,0.9,0.6,1.5
					S71,66,70.5,66.3L56.6,74C56.3,74.1,56.1,74.2,55.8,74.2z M49.6,64.6c0.4,0,0.9,0.2,1.2,0.5l5.3,5.3l10.6-5.9l-5.1-4.1L50,63.3
					c-0.3,0.1-0.6,0.1-0.8,0l-11.5-2.9l-5.1,4.1l10.6,5.9l5.3-5.3C48.7,64.8,49.2,64.6,49.6,64.6z"/>
			</g>
			<g>
				<path class="st0" d="M49.6,97.3c-0.9,0-1.7-0.8-1.7-1.7v-17c0-0.9,0.8-1.7,1.7-1.7s1.7,0.8,1.7,1.7v17
					C51.3,96.6,50.5,97.3,49.6,97.3z"/>
			</g>
			<g>
				<path class="st0" d="M49.6,23.3c-0.2,0-0.4,0-0.5-0.1l-27.8-9.3c-0.7-0.2-1.2-0.9-1.2-1.6c0-0.7,0.5-1.4,1.2-1.6l27.8-9.3
					c0.3-0.1,0.7-0.1,1.1,0l27.8,9.3c0.7,0.2,1.2,0.9,1.2,1.6c0,0.7-0.5,1.4-1.2,1.6l-27.8,9.3C50,23.2,49.8,23.3,49.6,23.3z
					 M27.2,12.3l22.4,7.5L72,12.3L49.6,4.8L27.2,12.3z"/>
			</g>
			<g>
				<path class="st0" d="M49.6,55.7c-12.1,0-16.8-11.7-17.1-19.5l-1.1-1.1c-0.3-0.3-0.5-0.7-0.5-1.2V21.6c0-0.9,0.8-1.7,1.7-1.7
					s1.7,0.8,1.7,1.7c0,1.5,5.4,4.5,15.3,4.5s15.3-3,15.3-4.5c0-0.9,0.8-1.7,1.7-1.7s1.7,0.8,1.7,1.7v12.4c0,0.4-0.2,0.9-0.5,1.2
					l-1.1,1.1C66.4,44,61.7,55.7,49.6,55.7z M34.3,33.2l1,1c0.3,0.3,0.5,0.7,0.5,1.2c0,6.5,3.7,16.8,13.7,16.8S63.3,42,63.3,35.5
					c0-0.4,0.2-0.9,0.5-1.2l1-1v-6.9c-7.1,4.2-23.5,4.2-30.6,0V33.2z"/>
			</g>
			<g>
				<path class="st0" d="M77.4,31c-0.9,0-1.7-0.8-1.7-1.7v-17c0-0.9,0.8-1.7,1.7-1.7s1.7,0.8,1.7,1.7v17C79.1,30.2,78.3,31,77.4,31z
					"/>
			</g>
			<g>
				<path class="st0" d="M77.4,37.1c-0.9,0-1.7-0.8-1.7-1.7v-3.1c0-0.9,0.8-1.7,1.7-1.7s1.7,0.8,1.7,1.7v3.1
					C79.1,36.4,78.3,37.1,77.4,37.1z"/>
			</g>
			<g>
				<path class="st0" d="M49.6,77.3c-0.9,0-1.7-0.8-1.7-1.7v-3.1c0-0.9,0.8-1.7,1.7-1.7s1.7,0.8,1.7,1.7v3.1
					C51.3,76.5,50.5,77.3,49.6,77.3z"/>
			</g>
		</g>
	</g>
</g>
</svg>
