<?xml version="1.0" encoding="utf-8"?>
<!-- Generator: Adobe Illustrator 25.0.1, SVG Export Plug-In . SVG Version: 6.00 Build 0)  -->
<svg version="1.1" id="Layer_1" xmlns="http://www.w3.org/2000/svg" xmlns:xlink="http://www.w3.org/1999/xlink" x="0px" y="0px"
	 viewBox="0 0 125 125" style="enable-background:new 0 0 125 125;" xml:space="preserve">
<style type="text/css">
	.st0{fill:#660000;}
</style>
<g id="Group_593_1_" transform="translate(-118 -1053)">
	<g id="Group_592_1_" transform="translate(118.345 1053)">
		<path id="Path_682_1_" class="st0" d="M119.3,105.2l-14.6-14.6c17.6-25.6,11.2-60.6-14.4-78.2S29.7,1.3,12.1,26.8
			S0.9,87.4,26.5,105c19.2,13.2,44.6,13.2,63.8,0l14.6,14.6c4,3.9,10.4,3.8,14.4-0.2C123.1,115.5,123.1,109.2,119.3,105.2
			L119.3,105.2z M7.3,58.8c0-28.2,22.8-51.2,51.1-51.2c28.2,0,51.2,22.8,51.2,51.1c0,11.8-4.1,23.3-11.6,32.5
			c-0.1,0.1-0.1,0.1-0.2,0.2c-2.1,2.5-4.3,4.7-6.8,6.8c-0.1,0.1-0.1,0.1-0.2,0.2c-21.8,17.9-54,14.7-71.9-7.1
			C11.4,82.1,7.3,70.6,7.3,58.8L7.3,58.8z M115.7,116.1c-2,1.9-5.3,1.9-7.3,0L94.3,102c0.3-0.3,0.6-0.5,0.9-0.8
			c0.7-0.6,1.4-1.2,2.1-1.9c0.6-0.6,1.1-1.1,1.7-1.7c0.6-0.7,1.3-1.4,1.9-2.1c0.3-0.3,0.5-0.6,0.8-0.9l14.1,14.1
			C117.7,110.8,117.7,114.1,115.7,116.1z"/>
		<path id="Path_683_1_" class="st0" d="M102.6,58.8c0-24.4-19.8-44.2-44.2-44.2S14.3,34.4,14.3,58.8s19.8,44.2,44.2,44.2l0,0
			C82.8,102.9,102.6,83.2,102.6,58.8z M58.4,97.9c-21.6,0-39.2-17.5-39.2-39.2c0-21.6,17.5-39.2,39.2-39.2
			c21.6,0,39.2,17.5,39.2,39.2l0,0C97.6,80.4,80.1,97.9,58.4,97.9L58.4,97.9z"/>
		<path id="Path_684_1_" class="st0" d="M78.5,41.8H73v-2.9c0-4.1-3.4-7.5-7.5-7.5H51.4c-4.1,0-7.5,3.4-7.5,7.5v2.9h-5.5
			c-4.1,0-7.5,3.4-7.5,7.5v26.6c0,4.1,3.4,7.5,7.5,7.5h40.1c4.1,0,7.5-3.4,7.5-7.5V49.3C86,45.2,82.6,41.8,78.5,41.8z M81,75.9
			c0,1.4-1.1,2.5-2.5,2.5H38.4c-1.4,0-2.5-1.1-2.5-2.5V49.3c0-1.4,1.1-2.5,2.5-2.5h40.1c1.4,0,2.5,1.1,2.5,2.5L81,75.9L81,75.9z
			 M48.9,38.9c0-1.4,1.1-2.5,2.5-2.5h14.1c1.4,0,2.5,1.1,2.5,2.5v2.9H48.9V38.9z"/>
	</g>
</g>
</svg>
