<svg xmlns="http://www.w3.org/2000/svg" width="120.05" height="78.641" viewBox="0 0 120.05 78.641">
  <g id="icon-financial-aid-transfer" transform="translate(-2.475 -23.159)">
    <path id="Path_2153" data-name="Path 2153" d="M122,51.8,93.8,23.7a1.838,1.838,0,0,0-2-.4A1.948,1.948,0,0,0,90.6,25V43.7h3.8V29.5L118,53.1,94.4,76.7V62.5a1.9,1.9,0,0,0-1.9-1.9H34.4V43.7h0a1.889,1.889,0,0,0-3.2-1.3L3,70.5a2,2,0,0,0,0,2.7l28.1,28.1a1.656,1.656,0,0,0,1.3.5,1.7,1.7,0,0,0,.7-.1,1.948,1.948,0,0,0,1.2-1.7V81.2H30.5V95.4L7,71.9,30.6,48.3V62.5a1.9,1.9,0,0,0,1.9,1.9H90.6V81.3h0a1.889,1.889,0,0,0,3.2,1.3L122,54.5A2,2,0,0,0,122,51.8Z" fill="#600"/>
    <rect id="Rectangle_79" data-name="Rectangle 79" width="3.8" height="3.7" transform="translate(41.9 51.2)" fill="#600"/>
    <rect id="Rectangle_80" data-name="Rectangle 80" width="3.8" height="3.7" transform="translate(49.4 51.2)" fill="#600"/>
    <rect id="Rectangle_81" data-name="Rectangle 81" width="3.8" height="3.7" transform="translate(56.9 51.2)" fill="#600"/>
    <rect id="Rectangle_82" data-name="Rectangle 82" width="3.8" height="3.8" transform="translate(64.4 70)" fill="#600"/>
    <rect id="Rectangle_83" data-name="Rectangle 83" width="3.8" height="3.8" transform="translate(71.9 70)" fill="#600"/>
    <rect id="Rectangle_84" data-name="Rectangle 84" width="3.8" height="3.8" transform="translate(79.4 70)" fill="#600"/>
    <rect id="Rectangle_85" data-name="Rectangle 85" width="30" height="3.7" transform="translate(64.4 51.2)" fill="#600"/>
    <rect id="Rectangle_86" data-name="Rectangle 86" width="30" height="3.8" transform="translate(30.6 70)" fill="#600"/>
  </g>
</svg>
