<?xml version="1.0" encoding="utf-8"?>
<!-- Generator: Adobe Illustrator 25.0.1, SVG Export Plug-In . SVG Version: 6.00 Build 0)  -->
<svg version="1.1" id="Layer_1" xmlns="http://www.w3.org/2000/svg" xmlns:xlink="http://www.w3.org/1999/xlink" x="0px" y="0px"
	 viewBox="0 0 100 100" style="enable-background:new 0 0 100 100;" xml:space="preserve">
<style type="text/css">
	.st0{fill:#660000;}
</style>
<g>
	<g>
		<path class="st0" d="M63,81.8H37c-3,0-5.5-2.4-5.5-5.4v-4.7C18.8,65,11,52.3,11,38.2C11,17.1,28.5,0,50,0s39,17.1,39,38.2
			c0,14.1-7.8,26.9-20.5,33.6v4.7C68.5,79.4,66,81.8,63,81.8z M50,3.5c-19.6,0-35.5,15.6-35.5,34.7c0,13.1,7.5,25,19.5,30.9
			c0.6,0.3,1,0.9,1,1.6v5.7c0,1,0.9,1.9,2,1.9H63c1.1,0,2-0.8,2-1.9v-5.7c0-0.7,0.4-1.3,1-1.6c12-5.9,19.5-17.8,19.5-30.9
			C85.5,19.1,69.6,3.5,50,3.5z"/>
	</g>
	<g>
		<path class="st0" d="M59.3,90.9H40.7c-3,0-5.5-2.4-5.5-5.4V80c0-1,0.8-1.8,1.8-1.8H63c1,0,1.8,0.8,1.8,1.8v5.5
			C64.8,88.5,62.3,90.9,59.3,90.9z M38.7,81.8v3.7c0,1,0.9,1.9,2,1.9h18.6c1.1,0,2-0.8,2-1.9v-3.7H38.7z"/>
	</g>
	<g>
		<path class="st0" d="M50,100c-6.1,0-11.1-4.9-11.1-10.9c0-1,0.8-1.8,1.8-1.8h18.6c1,0,1.8,0.8,1.8,1.8C61.1,95.1,56.1,100,50,100z
			 M42.7,90.9c0.8,3.2,3.8,5.6,7.3,5.6c3.5,0,6.5-2.4,7.3-5.6H42.7z"/>
	</g>
	<g>
		<g>
			<g>
				<path class="st0" d="M44.5,60.9c-0.8,0-1.5-0.1-2.3-0.4c-9.7-3.3-16.3-12.2-16.3-22.3c0-10.1,6.5-19.1,16.3-22.3
					c2.2-0.7,4.6-0.4,6.5,1c1.9,1.4,3,3.6,3,5.9v30.9c0,2.3-1.1,4.5-3,5.9C47.4,60.4,46,60.9,44.5,60.9z M44.5,19
					c-0.4,0-0.8,0.1-1.2,0.2c-8.3,2.8-13.9,10.4-13.9,19c0,8.6,5.6,16.2,13.9,19c1.1,0.4,2.4,0.2,3.4-0.5c1-0.7,1.6-1.8,1.6-3V22.7
					c0-1.2-0.6-2.3-1.6-3C46,19.2,45.3,19,44.5,19z"/>
			</g>
			<g>
				<path class="st0" d="M50,50c-1,0-1.8-0.8-1.8-1.8c0-3-2.5-5.4-5.6-5.4c-1,0-1.8-0.8-1.8-1.8s0.8-1.8,1.8-1.8
					c5.1,0,9.3,4.1,9.3,9.1C51.8,49.2,51,50,50,50z M51.7,48.2L51.7,48.2L51.7,48.2z"/>
			</g>
			<g>
				<path class="st0" d="M50,38.9c-1,0-1.8-0.8-1.8-1.8c0-3-2.5-5.4-5.6-5.4c-1,0-1.8-0.8-1.8-1.8s0.8-1.8,1.8-1.8
					c5.1,0,9.3,4.1,9.3,9.1C51.8,38,51,38.9,50,38.9z M51.7,37L51.7,37L51.7,37z"/>
			</g>
			<g>
				<path class="st0" d="M34.2,41.6c-1,0-1.8-0.8-1.8-1.8c0-4,3.3-7.3,7.4-7.3c1,0,1.8,0.8,1.8,1.8s-0.8,1.8-1.8,1.8
					c-2.1,0-3.7,1.6-3.7,3.6C36,40.8,35.2,41.6,34.2,41.6z"/>
			</g>
			<g>
				<path class="st0" d="M40.3,52.8c-0.5,0-1-0.2-1.3-0.5c-1.1-1.1-1.7-2.5-1.7-4c0-1.5,0.6-3,1.7-4c0.7-0.7,1.8-0.7,2.6,0
					c0.3,0.3,0.6,0.9,0.6,1.3c0,0.5-0.2,1-0.6,1.3c-0.4,0.4-0.6,0.9-0.6,1.4s0.2,1,0.6,1.4c0.3,0.3,0.6,0.8,0.6,1.3
					c0,0.5-0.2,1-0.6,1.3C41.3,52.5,40.8,52.8,40.3,52.8z"/>
			</g>
		</g>
		<g>
			<g>
				<path class="st0" d="M55.5,60.9c-1.5,0-3-0.5-4.2-1.4c-1.9-1.4-3-3.6-3-5.9V22.7c0-2.3,1.1-4.5,3-5.9c1.9-1.4,4.3-1.7,6.5-1
					c9.7,3.3,16.3,12.2,16.3,22.3c0,10.1-6.5,19.1-16.3,22.3C57,60.8,56.3,60.9,55.5,60.9z M55.5,19c-0.8,0-1.5,0.2-2.2,0.7
					c-1,0.7-1.6,1.8-1.6,3v30.9c0,1.2,0.6,2.3,1.6,3c1,0.7,2.2,0.9,3.4,0.5c8.3-2.8,13.9-10.4,13.9-19c0-8.6-5.6-16.2-13.9-19
					C56.3,19,55.9,19,55.5,19z"/>
			</g>
			<g>
				<path class="st0" d="M50,46.4c-1,0-1.8-0.8-1.8-1.8c0-5,4.2-9.1,9.3-9.1c1,0,1.8,0.8,1.8,1.8s-0.8,1.8-1.8,1.8
					c-3.1,0-5.6,2.4-5.6,5.4C51.8,45.6,51,46.4,50,46.4z"/>
			</g>
			<g>
				<path class="st0" d="M50,35.2c-1,0-1.8-0.8-1.8-1.8c0-5,4.2-9.1,9.3-9.1c1,0,1.8,0.8,1.8,1.8s-0.8,1.8-1.8,1.8
					c-3.1,0-5.6,2.4-5.6,5.4C51.8,34.4,51,35.2,50,35.2z"/>
			</g>
			<g>
				<path class="st0" d="M65.8,38c-1,0-1.8-0.8-1.8-1.8c0-2-1.7-3.6-3.7-3.6c-1,0-1.8-0.8-1.8-1.8c0-1,0.8-1.8,1.8-1.8
					c4.1,0,7.4,3.3,7.4,7.3C67.7,37.1,66.8,38,65.8,38z M67.5,36.1L67.5,36.1L67.5,36.1z"/>
			</g>
			<g>
				<path class="st0" d="M57.9,51.8c-0.2,0-0.4,0-0.6,0c-0.5,0-0.9-0.3-1.2-0.7c-0.3-0.4-0.5-0.9-0.4-1.4c0.1-1,1-1.7,1.9-1.7
					c0.1,0,0.2,0,0.3,0c1.1,0,2-0.8,2.1-1.8c0.1-1,1-1.7,2-1.7c1,0.1,1.7,1,1.6,2C63.4,49.6,60.9,51.8,57.9,51.8z M57.7,48.3
					C57.7,48.3,57.7,48.3,57.7,48.3C57.7,48.3,57.7,48.3,57.7,48.3z"/>
			</g>
		</g>
	</g>
</g>
</svg>
