<?xml version="1.0" encoding="utf-8"?>
<!-- Generator: Adobe Illustrator 25.0.1, SVG Export Plug-In . SVG Version: 6.00 Build 0)  -->
<svg version="1.1" id="Layer_1" xmlns="http://www.w3.org/2000/svg" xmlns:xlink="http://www.w3.org/1999/xlink" x="0px" y="0px"
	 viewBox="0 0 72.7 125" style="enable-background:new 0 0 72.7 125;" xml:space="preserve">
<style type="text/css">
	.st0{fill:#660000;}
</style>
<g>
	<path class="st0" d="M48.2,79.6c0,6.3-2.3,11.5-6.8,15.5c-4.5,4.1-10.8,6.1-19,6.1c-7.7,0-14.2-1.3-19.4-4V86.1
		c5.7,3.1,12,4.7,18.9,4.7c4.6,0,8.2-1.1,10.8-3.4s3.9-5.2,3.9-8.8c0-3.7-1.4-6.6-4.3-8.6c-2.9-2-7.2-3-12.9-3h-4.7v-9.8h4.7
		c4.3,0,7.9-1.1,10.8-3.2c2.9-2.1,4.4-5.1,4.4-8.8s-1.2-6.5-3.6-8.4c-2.4-1.9-5.6-2.8-9.7-2.8c-5.3,0-10.5,1.6-15.7,4.9V27.7
		c4.8-2.8,10.2-4.2,16.1-4.2c7.8,0,13.8,1.9,18.2,5.8c4.4,3.8,6.6,8.7,6.6,14.5c0,4.2-1,7.9-3.1,11s-5.1,5.5-9.1,7.2
		c4.4,1.1,7.9,3.1,10.4,6.2C47,71.2,48.2,75,48.2,79.6z"/>
	<path class="st0" d="M70.5,88c1.5,1.5,2.3,3.4,2.3,5.5c0,2.2-0.8,4-2.3,5.6s-3.4,2.3-5.5,2.3c-2.3,0-4.1-0.8-5.6-2.3
		c-1.5-1.6-2.3-3.4-2.3-5.6s0.8-4,2.3-5.5s3.4-2.3,5.6-2.3C67.1,85.7,69,86.5,70.5,88z"/>
</g>
</svg>
