<?xml version="1.0" encoding="utf-8"?>
<!-- Generator: Adobe Illustrator 25.0.1, SVG Export Plug-In . SVG Version: 6.00 Build 0)  -->
<svg version="1.1" id="Layer_1" xmlns="http://www.w3.org/2000/svg" xmlns:xlink="http://www.w3.org/1999/xlink" x="0px" y="0px"
	 viewBox="0 0 100 100" style="enable-background:new 0 0 100 100;" xml:space="preserve">
<style type="text/css">
	.st0{fill:#660000;}
</style>
<g>
	<g>
		<path class="st0" d="M50,100H32.8c-1,0-1.8-0.8-1.8-1.8V86.7c0-1.3-1-2.3-2.1-2.3h-8c-5.2,0-9.5-4.4-9.5-9.8V63.3l-5.9-2
			c-1.6-0.6-2.9-1.8-3.5-3.4c-0.6-1.7-0.5-3.5,0.4-5l8.9-15.4C11.7,16.8,28,0,48.1,0H50c1,0,1.7,0.8,1.7,1.8v24.2
			c0,0.8-0.5,1.4-1.2,1.7c-0.7,0.2-1.5,0-2-0.6c-1.5-2.1-3.8-3.3-6.3-3.3c-4.4,0-7.9,3.7-7.9,8.3s3.6,8.3,7.9,8.3
			c2.5,0,4.8-1.2,6.3-3.3c0.4-0.6,1.2-0.9,2-0.6c0.7,0.2,1.2,0.9,1.2,1.7V52c1.8-1.1,3.8-1.8,6-1.8c6.3,0,11.4,5.3,11.4,11.8
			s-5.1,11.8-11.4,11.8c-2.2,0-4.2-0.6-6-1.8v26.2C51.7,99.2,51,100,50,100z M34.6,96.5h13.7V68c0-0.8,0.5-1.4,1.2-1.7
			c0.7-0.2,1.5,0,2,0.6c1.5,2.1,3.8,3.3,6.3,3.3c4.4,0,7.9-3.7,7.9-8.3c0-4.6-3.6-8.3-7.9-8.3c-2.5,0-4.8,1.2-6.3,3.3
			c-0.4,0.6-1.2,0.9-2,0.6c-0.7-0.2-1.2-0.9-1.2-1.7V41.9c-1.8,1.1-3.8,1.8-6,1.8c-6.3,0-11.4-5.3-11.4-11.8s5.1-11.8,11.4-11.8
			c2.2,0,4.2,0.6,6,1.8V3.5h-0.2c-18.3,0-33.1,15.4-33.1,34.4c0,0.3-0.1,0.6-0.2,0.9L5.6,54.6c-0.4,0.6-0.4,1.4-0.2,2
			c0.2,0.6,0.7,1.1,1.3,1.3l7,2.4c0.7,0.2,1.2,0.9,1.2,1.7v12.6c0,3.5,2.7,6.3,6,6.3h8c3.1,0,5.6,2.6,5.6,5.8V96.5z"/>
	</g>
	<g>
		<path class="st0" d="M67.2,100H50c-1,0-1.8-0.8-1.8-1.8V68c0-0.8,0.5-1.4,1.2-1.7c0.7-0.2,1.5,0,2,0.6c1.5,2.1,3.8,3.3,6.3,3.3
			c4.4,0,7.9-3.7,7.9-8.3c0-4.6-3.6-8.3-7.9-8.3c-2.5,0-4.8,1.2-6.3,3.3c-0.4,0.6-1.2,0.9-2,0.6c-0.7-0.2-1.2-0.9-1.2-1.7V41.9
			c-1.8,1.1-3.8,1.8-6,1.8c-6.3,0-11.4-5.3-11.4-11.8s5.1-11.8,11.4-11.8c2.2,0,4.2,0.6,6,1.8V1.8C48.3,0.8,49,0,50,0h1.9
			c20,0,36.4,16.8,36.6,37.5l8.9,15.4c0.9,1.5,1,3.4,0.4,5c-0.6,1.6-1.9,2.9-3.5,3.4l-5.9,2v11.3c0,5.4-4.3,9.8-9.5,9.8h-8
			c-1.2,0-2.1,1-2.1,2.3v11.6C68.9,99.2,68.2,100,67.2,100z M51.8,96.5h13.7v-9.8c0-3.2,2.5-5.8,5.6-5.8h8c3.3,0,6-2.8,6-6.3V62.1
			c0-0.7,0.5-1.4,1.2-1.7l7-2.4c0.6-0.2,1.1-0.7,1.3-1.3c0.3-0.7,0.2-1.4-0.2-2l0,0l-9.1-15.8c-0.2-0.3-0.2-0.6-0.2-0.9
			c0-19-14.9-34.4-33.1-34.4h-0.2v22.4c0,0.8-0.5,1.4-1.2,1.7c-0.7,0.2-1.5,0-2-0.6c-1.5-2.1-3.8-3.3-6.3-3.3
			c-4.4,0-7.9,3.7-7.9,8.3s3.6,8.3,7.9,8.3c2.5,0,4.8-1.2,6.3-3.3c0.4-0.6,1.2-0.9,2-0.6c0.7,0.2,1.2,0.9,1.2,1.7V52
			c1.8-1.1,3.8-1.8,6-1.8c6.3,0,11.4,5.3,11.4,11.8s-5.1,11.8-11.4,11.8c-2.2,0-4.2-0.6-6-1.8V96.5z"/>
	</g>
</g>
</svg>
