<svg xmlns="http://www.w3.org/2000/svg" width="108.8" height="108.8" viewBox="0 0 108.8 108.8">
  <g id="icon-financial-aid-loan" transform="translate(-8.1 -8.1)">
    <path id="Path_2147" data-name="Path 2147" d="M113.1,60.6V53.1H115a1.9,1.9,0,0,0,1.9-1.9V43.7h0a1.922,1.922,0,0,0-.9-1.6L63.5,8.4a1.817,1.817,0,0,0-2,0L9,42.2a2.2,2.2,0,0,0-.9,1.6h0v7.5A1.9,1.9,0,0,0,10,53.2h1.9v7.5h3.8v30H11.9v7.5H8.1v18.7H116.8V98.1H113V90.6h-3.8v-30Zm-3.7,37.5h-15V94.3h15Zm-.8-56.2H16.4L62.5,12.3Zm4.5,3.7v3.7H11.9V45.6ZM94.4,56.9V53.2h15v3.7ZM90.6,90.6v7.5H86.8V90.6H83v-30h3.8V53.1h3.8v7.5h3.8v30ZM34.4,53.1h3.8v7.5H42v30H38.2v7.5H34.4V90.6H30.6v-30h3.8ZM45.6,90.6v-30h7.5v30ZM56.9,56.9h-15V53.2h15Zm-15,37.5h15v3.8h-15Zm15-3.8v-30h3.7V53.1h3.8v7.5h3.8v30H64.4v7.5H60.6V90.6Zm15,0v-30h7.5v30ZM83.1,56.9h-15V53.2h15Zm-15,37.5h15v3.8h-15ZM30.6,53.1v3.7h-15V53.1Zm-3.7,7.5v30H19.4v-30Zm3.7,33.8v3.8h-15V94.4ZM11.9,113.1v-3.7H113.1v3.7Zm101.2-7.5H11.9v-3.8H113.1Zm-15-15v-30h7.5v30Z" fill="#600"/>
    <circle id="Ellipse_2" data-name="Ellipse 2" cx="7.5" cy="7.5" r="7.5" transform="translate(55 21.3)" fill="none" stroke="#600" stroke-miterlimit="10" stroke-width="3.75"/>
  </g>
</svg>
