<?xml version="1.0" encoding="utf-8"?>
<!-- Generator: Adobe Illustrator 25.0.1, SVG Export Plug-In . SVG Version: 6.00 Build 0)  -->
<svg version="1.1" id="Layer_1" xmlns="http://www.w3.org/2000/svg" xmlns:xlink="http://www.w3.org/1999/xlink" x="0px" y="0px"
	 viewBox="0 0 99.2 98.7" style="enable-background:new 0 0 99.2 98.7;" xml:space="preserve">
<style type="text/css">
	.st0{fill:#660000;}
</style>
<g>
	<g>
		<g>
			<path class="st0" d="M49.6,45.3H31.8c-0.7,0-1.4-0.4-1.6-1.1c-0.3-0.7-0.1-1.4,0.4-1.9l4-4c-2.9-3.5-4.5-7.9-4.5-12.5
				c0-10.8,8.8-19.6,19.6-19.6s19.6,8.8,19.6,19.6S60.4,45.3,49.6,45.3z M36.1,41.7h13.5c8.8,0,16-7.2,16-16s-7.2-16-16-16
				s-16,7.2-16,16c0,4.3,1.7,8.3,4.7,11.3c0.7,0.7,0.7,1.8,0,2.5L36.1,41.7z"/>
		</g>
		<g>
			<g>
				<path class="st0" d="M42.5,28c-0.6,0-1.2-0.2-1.6-0.7c-0.5-0.5-0.7-1.1-0.7-1.6c0-0.6,0.2-1.2,0.7-1.6c0.6-0.6,1.4-0.8,2.2-0.6
					l0.2,0.1c0.2,0.1,0.4,0.2,0.6,0.4c0.5,0.5,0.7,1,0.7,1.6c0,0.6-0.2,1.2-0.7,1.6c-0.3,0.4-0.7,0.6-1.2,0.6
					C42.7,27.9,42.6,27.9,42.5,28C42.5,28,42.5,28,42.5,28z"/>
			</g>
			<g>
				<path class="st0" d="M49.6,28c-1.2,0-2.2-1-2.2-2.2c0-1.2,1-2.2,2.2-2.2c1.2,0,2.2,1,2.2,2.2C51.8,27,50.8,28,49.6,28z"/>
			</g>
			<g>
				<path class="st0" d="M56.7,28c-0.6,0-1.2-0.2-1.6-0.6c-0.5-0.5-0.7-1.2-0.7-1.6c0-0.6,0.2-1.2,0.7-1.6c0.7-0.8,2.3-0.8,3.1,0
					c0.4,0.4,0.7,1,0.7,1.6c0,0.6-0.2,1.2-0.7,1.6C57.7,27.8,57.1,28,56.7,28z"/>
			</g>
		</g>
	</g>
	<g>
		<path class="st0" d="M49.6,92.5c-1,0-1.9-0.9-1.9-1.9v-8.8h-8.8c-1,0-1.9-0.9-1.9-1.9c0-1,0.9-1.9,1.9-1.9h21.3
			c1,0,1.9,0.9,1.9,1.9c0,1-0.9,1.9-1.9,1.9h-8.8v8.8C51.4,91.6,50.6,92.5,49.6,92.5z"/>
	</g>
	<g>
		<g>
			<path class="st0" d="M82.9,55.1c-6.4,0-11.6-5.2-11.6-11.6S76.5,32,82.9,32c6.4,0,11.6,5.2,11.6,11.6S89.3,55.1,82.9,55.1z
				 M82.9,35.5c-4.4,0-8,3.6-8,8s3.6,8,8,8c4.4,0,8-3.6,8-8S87.3,35.5,82.9,35.5z"/>
		</g>
		<g>
			<path class="st0" d="M93.3,92.4H62.9c-1,0-1.8-0.8-1.8-1.8c0-3.5,1.4-6.6,3.7-8.9h-7.3c-3.4,0-6.2-2.8-6.2-6.2s2.8-6.2,6.2-6.2
				h14.2v-7.1c0-4.9,4-8.9,8.9-8.9h8c4.9,0,8.9,4,8.9,8.9v23.1c0,2.5-1.1,5-3.1,6.7C94.2,92.2,93.8,92.4,93.3,92.4z M64.9,88.8h27.7
				c0.9-1,1.4-2.2,1.4-3.6V62.2c0-2.9-2.4-5.3-5.3-5.3h-8c-2.9,0-5.3,2.4-5.3,5.3v8.9c0,1-0.8,1.8-1.8,1.8h-16
				c-1.5,0-2.7,1.2-2.7,2.7c0,1.5,1.2,2.7,2.7,2.7h23.1V67.5c0-1,0.8-1.8,1.8-1.8c1,0,1.8,0.8,1.8,1.8V80c0,1-0.8,1.8-1.8,1.8h-8.9
				C69.3,81.7,65.7,84.8,64.9,88.8z"/>
		</g>
	</g>
	<g>
		<g>
			<path class="st0" d="M16.2,55.1c-6.4,0-11.6-5.2-11.6-11.6S9.9,32,16.2,32s11.6,5.2,11.6,11.6S22.6,55.1,16.2,55.1z M16.2,35.5
				c-4.4,0-8,3.6-8,8s3.6,8,8,8s8-3.6,8-8S20.7,35.5,16.2,35.5z"/>
		</g>
		<g>
			<path class="st0" d="M36.2,92.4H5.8c-0.4,0-0.8-0.2-1.2-0.4c-2-1.7-3.1-4.1-3.1-6.7V62.2c0-4.9,4-8.9,8.9-8.9h8
				c4.9,0,8.9,4,8.9,8.9v7.1h14.2c3.4,0,6.2,2.8,6.2,6.2s-2.8,6.2-6.2,6.2h-7.3c2.3,2.3,3.7,5.4,3.7,8.9
				C38,91.6,37.2,92.4,36.2,92.4z M6.5,88.8h27.7c-0.8-4.1-4.4-7.1-8.7-7.1h-8.9c-1,0-1.8-0.8-1.8-1.8V67.5c0-1,0.8-1.8,1.8-1.8
				s1.8,0.8,1.8,1.8v10.7h23.1c1.5,0,2.7-1.2,2.7-2.7c0-1.5-1.2-2.7-2.7-2.7h-16c-1,0-1.8-0.8-1.8-1.8v-8.9c0-2.9-2.4-5.3-5.3-5.3
				h-8c-2.9,0-5.3,2.4-5.3,5.3v23.1C5.1,86.6,5.6,87.9,6.5,88.8z"/>
		</g>
	</g>
</g>
</svg>
