<?xml version="1.0" encoding="utf-8"?>
<!-- Generator: Adobe Illustrator 25.0.1, SVG Export Plug-In . SVG Version: 6.00 Build 0)  -->
<svg version="1.1" id="Layer_1" xmlns="http://www.w3.org/2000/svg" xmlns:xlink="http://www.w3.org/1999/xlink" x="0px" y="0px"
	 viewBox="0 0 99.2 98.7" style="enable-background:new 0 0 99.2 98.7;" xml:space="preserve">
<style type="text/css">
	.st0{fill:#660000;}
</style>
<g>
	<path class="st0" d="M95.7,18.2H3.5c-1,0-1.8,0.8-1.8,1.8v6.9c0,1,0.8,1.8,1.8,1.8h0v50.2c0,1,0.8,1.8,1.8,1.8h88.6
		c1,0,1.8-0.8,1.8-1.8V28.6h0c1,0,1.8-0.8,1.8-1.8v-6.9C97.4,19,96.6,18.2,95.7,18.2z M93.9,25.1L93.9,25.1H5.3l0-3.4h88.6V25.1z
		 M92.2,28.6V77H7V28.6H92.2z"/>
	<path class="st0" d="M31.9,70.1c7.8,0,14.2-6.2,14.2-13.9c0-1-0.8-1.8-1.8-1.8H33.6V44.2c0-1-0.8-1.8-1.8-1.8
		c-7.8,0-14.2,6.2-14.2,13.9C17.7,63.9,24.1,70.1,31.9,70.1z M30.1,46v10.2c0,1,0.8,1.8,1.8,1.8h10.5c-0.9,4.9-5.2,8.6-10.5,8.6
		c-5.9,0-10.7-4.6-10.7-10.4C21.2,51.1,25.1,46.9,30.1,46z"/>
	<path class="st0" d="M39,51.1h12.4c1,0,1.8-0.8,1.8-1.8c0-7.6-6.3-13.9-14.2-13.9c-1,0-1.8,0.8-1.8,1.8v12.1
		C37.2,50.3,38,51.1,39,51.1z M40.7,39.1c4.5,0.7,8,4.1,8.8,8.5h-8.8V39.1z"/>
	<path class="st0" d="M60.2,39H85c1,0,1.8-0.8,1.8-1.8S86,35.5,85,35.5H60.2c-1,0-1.8,0.8-1.8,1.8S59.3,39,60.2,39z"/>
	<path class="st0" d="M60.2,49.4H85c1,0,1.8-0.8,1.8-1.8S86,45.9,85,45.9H60.2c-1,0-1.8,0.8-1.8,1.8S59.3,49.4,60.2,49.4z"/>
	<path class="st0" d="M60.2,59.8H85c1,0,1.8-0.8,1.8-1.8S86,56.3,85,56.3H60.2c-1,0-1.8,0.8-1.8,1.8S59.3,59.8,60.2,59.8z"/>
	<path class="st0" d="M60.2,70.1H85c1,0,1.8-0.8,1.8-1.8S86,66.6,85,66.6H60.2c-1,0-1.8,0.8-1.8,1.8S59.3,70.1,60.2,70.1z"/>
</g>
</svg>
