<?xml version="1.0" encoding="utf-8"?>
<!-- Generator: Adobe Illustrator 24.1.2, SVG Export Plug-In . SVG Version: 6.00 Build 0)  -->
<svg version="1.1" id="Layer_1" xmlns="http://www.w3.org/2000/svg" xmlns:xlink="http://www.w3.org/1999/xlink" x="0px" y="0px"
	 viewBox="0 0 200 200" style="enable-background:new 0 0 200 200;" xml:space="preserve">
<style type="text/css">
	.st0{fill:#002F65;}
	.st1{fill:#660000;}
	.st2{fill:#193161;}
	.st3{fill:#2D698A;}
	.st4{fill:#032749;}
	.st5{fill:#035B97;}
	.st6{fill:#002F60;}
</style>
<g id="Group_593_1_" transform="translate(-118 -1053)">
	<g id="Group_592_1_" transform="translate(118.345 1053)">
		<path id="Path_682_1_" class="st1" d="M171.22,153.56l-18.33-18.33c22.08-32.03,14.02-75.89-18.01-97.97S59,23.25,36.92,55.27
			s-14.02,75.89,18.01,97.97c24.07,16.59,55.89,16.59,79.96,0l18.33,18.33c5.03,4.91,13.09,4.81,18-0.22
			C176.05,166.4,176.05,158.51,171.22,153.56L171.22,153.56z M30.92,95.34C30.89,59.95,59.55,31.24,94.94,31.2
			c35.39-0.03,64.11,28.63,64.14,64.02c0.01,14.84-5.12,29.22-14.53,40.7c-0.07,0.08-0.13,0.17-0.2,0.25
			c-2.57,3.1-5.42,5.95-8.52,8.52c-0.09,0.07-0.17,0.14-0.25,0.2c-27.34,22.43-67.69,18.46-90.12-8.89
			C36.05,124.54,30.91,110.17,30.92,95.34L30.92,95.34z M166.8,167.14c-2.56,2.43-6.58,2.43-9.15,0l-17.7-17.69
			c0.38-0.32,0.72-0.67,1.09-1c0.88-0.76,1.74-1.55,2.58-2.35c0.73-0.7,1.44-1.41,2.13-2.13c0.81-0.84,1.59-1.7,2.35-2.58
			c0.32-0.37,0.68-0.71,1-1.09L166.8,158C169.31,160.53,169.31,164.61,166.8,167.14z"/>
		<path id="Path_683_1_" class="st1" d="M150.34,95.34c0-30.56-24.78-55.34-55.34-55.34c-30.56,0-55.34,24.78-55.34,55.34
			c0,30.56,24.78,55.34,55.34,55.34c0,0,0,0,0,0C125.55,150.65,150.31,125.89,150.34,95.34z M95,144.42
			c-27.1,0-49.08-21.97-49.08-49.08c0-27.1,21.97-49.08,49.08-49.08c27.1,0,49.08,21.97,49.08,49.08l0,0
			C144.05,122.44,122.09,144.39,95,144.42L95,144.42z"/>
		<path id="Path_684_1_" class="st1" d="M120.12,74.06h-6.9v-3.61c0-5.19-4.21-9.39-9.39-9.39H86.17c-5.19,0-9.39,4.21-9.39,9.39
			v3.61h-6.9c-5.19,0-9.39,4.21-9.39,9.39v33.31c0,5.19,4.21,9.39,9.39,9.39h50.24c5.19,0,9.39-4.21,9.39-9.39V83.46
			C129.51,78.27,125.3,74.07,120.12,74.06z M123.25,116.76c0,1.73-1.4,3.13-3.13,3.13H69.88c-1.73,0-3.13-1.4-3.13-3.13V83.46
			c0-1.73,1.4-3.13,3.13-3.13h50.23c1.73,0,3.13,1.4,3.13,3.13V116.76z M83.05,70.45c0-1.73,1.4-3.13,3.13-3.13h17.65
			c1.73,0,3.13,1.4,3.13,3.13v3.61H83.05V70.45z"/>
	</g>
</g>
</svg>
