<?xml version="1.0" encoding="utf-8"?>
<!-- Generator: Adobe Illustrator 25.0.1, SVG Export Plug-In . SVG Version: 6.00 Build 0)  -->
<svg version="1.1" id="Layer_1" xmlns="http://www.w3.org/2000/svg" xmlns:xlink="http://www.w3.org/1999/xlink" x="0px" y="0px"
	 viewBox="0 0 99.2 98.7" style="enable-background:new 0 0 99.2 98.7;" xml:space="preserve">
<style type="text/css">
	.st0{fill:#660000;}
</style>
<g>
	<path class="st0" d="M96.2,15.3H36.8l-5.5-5.4c-0.3-0.3-0.8-0.5-1.2-0.5H3c-1,0-1.8,0.8-1.8,1.8v23.5v52.8c0,1,0.8,1.8,1.8,1.8
		h93.2c1,0,1.8-0.8,1.8-1.8V28.8V17.1C97.9,16.1,97.2,15.3,96.2,15.3z M29.3,12.9l5.5,5.4c0.3,0.3,0.8,0.5,1.2,0.5h58.4v8.2h-5.8
		H36.1c-0.5,0-0.9,0.2-1.2,0.5l-5.5,5.4H10.5H4.8v-20H29.3z M4.8,85.8v-5.6V36.4h25.3c0.5,0,0.9-0.2,1.2-0.5l5.5-5.4h57.7v49.6v5.6
		H4.8z"/>
	<path class="st0" d="M61.6,35.9c-1,0-1.8,0.8-1.8,1.8s0.8,1.8,1.8,1.8h27.1c1,0,1.8-0.8,1.8-1.8s-0.8-1.8-1.8-1.8H61.6z"/>
	<path class="st0" d="M88.7,41.7H61.6c-1,0-1.8,0.8-1.8,1.8s0.8,1.8,1.8,1.8h27.1c1,0,1.8-0.8,1.8-1.8S89.6,41.7,88.7,41.7z"/>
	<path class="st0" d="M13.5,41.7h-3c-1,0-1.8,0.8-1.8,1.8s0.8,1.8,1.8,1.8h3c1,0,1.8-0.8,1.8-1.8S14.5,41.7,13.5,41.7z"/>
	<path class="st0" d="M25.6,41.7h-3c-1,0-1.8,0.8-1.8,1.8s0.8,1.8,1.8,1.8h3c1,0,1.8-0.8,1.8-1.8S26.5,41.7,25.6,41.7z"/>
</g>
</svg>
