<?xml version="1.0" encoding="utf-8"?>
<!-- Generator: Adobe Illustrator 25.0.1, SVG Export Plug-In . SVG Version: 6.00 Build 0)  -->
<svg version="1.1" id="Layer_1" xmlns="http://www.w3.org/2000/svg" xmlns:xlink="http://www.w3.org/1999/xlink" x="0px" y="0px"
	 viewBox="0 0 72.7 125" style="enable-background:new 0 0 72.7 125;" xml:space="preserve">
<style type="text/css">
	.st0{fill:#660000;}
</style>
<g>
	<path class="st0" d="M45.2,100.1H33.9V36.4l-18,11.1V35.3l19-11.3h10.4L45.2,100.1L45.2,100.1z"/>
	<path class="st0" d="M70.4,87.6c1.5,1.5,2.3,3.4,2.3,5.5c0,2.2-0.8,4-2.3,5.6S67,101,64.9,101c-2.3,0-4.1-0.8-5.6-2.3
		c-1.5-1.6-2.3-3.4-2.3-5.6s0.8-4,2.3-5.5s3.4-2.3,5.6-2.3C67.1,85.3,68.9,86.1,70.4,87.6z"/>
</g>
</svg>
